<svg xmlns="http://www.w3.org/2000/svg" viewBox="146 46 471 283"><circle cx="562" cy="102" r="46" fill="#d97706"/><g transform="translate(120,60) scale(0.95)" fill="#1a1a1a"><path d="M0 0 C2.1 1.4 2.1 1.4 2.9 5 C3 6.8 3.1 8.6 3.1 10.4 C3.1 11.8 3.2 13.2 3.2 14.6 C3.4 26.8 3.4 26.8 1.1 31.4 C-7.3 36.5 -16.4 39.3 -25.9 41.4 C-34.8 43.6 -43.5 46.7 -51.9 50.4 C-40.1 49.8 -29.7 47.6 -18.7 43.4 C-15.7 42.3 -12.7 41.4 -9.6 40.5 C-0.5 37.7 8.7 34.8 17.6 31.2 C25.2 28.1 31.9 26.5 40.1 27.4 C40.8 27.7 40.8 27.7 44.1 29.4 C44.1 30.1 44.1 30.7 44.1 31.4 C44.7 31.1 44.7 31.1 47.9 29.4 C53.4 26.9 58.1 27.1 64.1 27.4 C64.1 26.6 64.1 25.9 64 25.1 C64 24.1 64 23.2 64 22.1 C64 21.2 63.9 20.2 63.9 19.2 C64.1 16.4 64.1 16.4 66.1 12.4 C70.5 11.4 73.8 10.9 78.1 12.4 C81 15.3 81.1 17.3 81.1 21.4 C79.7 25.7 78.1 27.4 74.7 30.3 C71.1 33.4 71.1 33.4 69.3 36.7 C66.7 41.1 63.5 43.9 59.6 47.2 C55.1 51.2 51 55.4 47 60 C38.3 70 28.7 79.3 18.1 87.4 C17 88.3 15.9 89.1 14.7 90 C-20.3 116.4 -59.3 130.1 -102.4 136.1 C-107.5 136.8 -112.1 137.7 -116.9 139.4 C-119.3 139.8 -121.8 140.2 -124.2 140.6 C-130.8 142 -136 143.6 -140.9 148.4 C-148.3 159.7 -149.6 175.4 -150.3 188.7 C-151.7 215.7 -151.7 215.7 -157.9 227.4 C-160.4 229.4 -160.4 229.4 -162.9 230.4 C-166.8 229.8 -168.4 229.1 -170.8 225.9 C-171.9 223.4 -171.9 223.4 -171.9 221.4 C-177 220.8 -181.1 220.3 -186.2 221 C-189.9 221.4 -189.9 221.4 -192.8 220.4 C-195.6 217.7 -196.1 215.2 -196.9 211.4 C-198 211.3 -199 211.2 -200.1 211.1 C-204.3 210.3 -206.1 209.6 -208.9 206.4 C-209.7 202.1 -209.7 202.1 -209.9 198.4 C-210.6 198.6 -211.3 198.7 -212 198.9 C-219.3 200.1 -225.5 199.2 -231.9 195.4 C-232.2 194.7 -232.2 194.7 -233.9 191.4 C-236.8 190.8 -236.8 190.8 -240.4 190.6 C-241.7 190.6 -242.9 190.5 -244.2 190.5 C-247.2 190.4 -250.1 190.4 -253 190.5 C-260 190.3 -267 189.3 -272.9 185.4 C-273.6 185.7 -273.6 185.7 -276.9 187.4 C-280 187.3 -280 187.3 -282.9 186.4 C-284.9 184.2 -284.9 184.2 -285.9 181.4 C-284.8 176.5 -282.7 173.7 -279.4 170 C-274.3 164.1 -270.3 157.9 -266.3 151.2 C-263.1 146.1 -259.5 141.2 -255.9 136.4 C-251.8 130.8 -247.8 125.2 -244 119.4 C-233.8 104 -220.3 87.5 -204.9 77.4 C-203.4 76 -201.8 74.6 -200.3 73.2 C-194.6 68 -188.4 63.6 -181.9 59.4 C-180.8 58.6 -179.6 57.9 -178.5 57.1 C-169.7 51.5 -160.6 47.7 -150.8 44.2 C-147.5 43 -144.3 41.7 -141.1 40.3 C-137.7 38.8 -134.6 37.6 -131 36.6 C-118.1 32.8 -106.1 26.7 -94.4 20.3 C-86.5 16.1 -79.3 13.5 -70.6 11.8 C-69.6 11.6 -68.6 11.3 -67.5 11.1 C-64.7 10.5 -61.8 10 -58.9 9.4 C-57.8 9.2 -56.6 8.9 -55.4 8.7 C-50.3 7.8 -45.2 7.3 -39.9 7 C-27.7 6.3 -17.5 5.4 -6.2 0.4 C-2.9 -0.6 -2.9 -0.6 0 0 Z M-15.6 19.3 C-19.2 20.5 -22.4 20.9 -26.1 21.1 C-26.8 21.2 -26.8 21.2 -30.4 21.5 C-33.3 21.7 -36.2 21.9 -39.1 22.2 C-65 24.3 -65 24.3 -74.9 30.4 C-81.9 34.1 -88.9 37.5 -96.6 39.3 C-101.3 40.5 -105.6 42.2 -110 44 C-117.6 47.1 -125.1 50 -132.8 52.8 C-133.7 53.1 -134.6 53.4 -135.6 53.8 C-139.2 55.1 -142.7 56.3 -146.4 57.4 C-147.2 57.7 -148.1 58 -148.9 58.4 C-150.5 62.6 -150.5 62.6 -151.9 67.4 C-153.6 70.3 -155.2 72.8 -157.7 75 C-159.9 77.1 -161 78.5 -161.9 81.4 C-160.7 85.4 -159 88.7 -157 92.4 C-155 96.2 -153.4 100.1 -151.8 104.1 C-149.3 110.5 -146.4 116.5 -142.9 122.4 C-142.5 122.4 -142.5 122.4 -140.2 122.2 C-119.8 120.6 -119.8 120.6 -115.3 122.5 C-110.7 123.7 -107.4 122.9 -102.8 122 C-101.9 121.8 -101 121.7 -100.1 121.5 C-98.3 121.1 -96.4 120.8 -94.5 120.4 C-91.8 119.8 -89 119.3 -86.2 118.8 C-52.7 112.3 -52.7 112.3 -42.9 106.4 C-42.2 102.3 -42.2 102.3 -42.9 98.4 C-43.4 98.1 -43.4 98.1 -45.9 96.4 C-46.9 92.4 -46.9 90.4 -45.9 86.4 C-46.4 86.2 -46.4 86.2 -48.8 85.3 C-51.9 83.4 -51.9 83.4 -53.4 80.5 C-53.9 77.4 -53.9 77.4 -51.9 73.4 C-49.4 72.3 -49.4 72.3 -46.2 71.5 C-45 71.2 -43.8 70.9 -42.6 70.6 C-42 70.4 -42 70.4 -38.8 69.6 C-24.8 65.8 -11.9 61 1.1 54.4 C-2.7 53.1 -4.6 54.2 -8.2 55.4 C-51 70.5 -51 70.5 -65.8 63.7 C-69.9 60.6 -71.3 58.4 -72.8 53.5 C-72.9 49.4 -72.3 47.7 -69.9 44.4 C-63.8 39.9 -57.7 36.7 -50.6 33.8 C-49.7 33.4 -48.8 33.1 -47.8 32.7 C-40.3 29.7 -32.7 27.6 -24.8 26 C-20.1 25 -16 24 -11.9 21.4 C-11.6 20.4 -11.2 19.4 -10.9 18.4 C-12.9 18.4 -12.9 18.4 -15.6 19.3 Z M-180.9 76.4 C-182.2 77.4 -183.5 78.4 -184.9 79.4 C-179.7 96.7 -168.1 124.3 -152.9 134.4 C-153.2 130.7 -154.2 128.9 -156.2 125.7 C-158.9 121.6 -160.6 117.5 -162.2 112.9 C-167 100.2 -172.7 87.3 -180.9 76.4 Z " transform="translate(323.8984375,42.60546875)"/></g></svg>
