<svg xmlns="http://www.w3.org/2000/svg" viewBox="146 46 471 283"><circle cx="562" cy="102" r="46" fill="#d97706"/><g transform="translate(120,60) scale(0.95)" fill="#1a1a1a"><path d="M0 0 C0.7 0.4 1.4 0.8 2.1 1.2 C5.2 22.9 5.2 22.9 1.1 31.2 C-7.3 36.3 -16.4 39 -25.9 41.2 C-34.9 43.4 -43.5 46.5 -51.9 50.2 C-40.2 49.6 -29.8 47.4 -18.8 43.2 C-15.8 42.1 -12.8 41.2 -9.7 40.2 C-0.5 37.4 8.7 34.6 17.6 30.9 C21.3 29.5 24.2 28.4 28.1 28.2 C28.7 28.5 28.7 28.5 32.1 30.2 C33.1 34.9 33 38.5 32.1 43.2 C32.2 44.3 32.3 45.5 32.5 46.7 C33.1 51.8 33.3 56.7 33.3 61.9 C33.3 62.3 33.3 62.3 33.4 64.7 C33.4 69.7 33.4 73.3 30.1 77.2 C21.3 85.8 11.4 92.6 1.1 99.2 C0.4 99.6 0.4 99.6 -2.9 101.7 C-33.4 121.3 -66.8 130.9 -102.5 135.9 C-107.6 136.6 -112.1 137.5 -116.9 139.2 C-119.4 139.6 -121.8 140 -124.3 140.4 C-130.9 141.7 -136.1 143.3 -140.9 148.2 C-148.4 159.5 -149.6 175.2 -150.3 188.4 C-151.8 215.5 -151.8 215.5 -157.9 227.2 C-160.5 229.2 -160.5 229.2 -162.9 230.2 C-166.9 229.5 -168.4 228.9 -170.8 225.7 C-171.9 223.2 -171.9 223.2 -171.9 221.2 C-177 220.5 -181.2 220.1 -186.3 220.8 C-189.9 221.2 -189.9 221.2 -192.8 220.2 C-195.7 217.5 -196.2 214.9 -196.9 211.2 C-198 211.1 -199.1 211 -200.1 210.9 C-204.4 210.1 -206.1 209.4 -208.9 206.2 C-209.8 201.9 -209.8 201.9 -209.9 198.2 C-210.6 198.3 -211.3 198.5 -212 198.7 C-219.3 199.9 -225.5 199 -231.9 195.2 C-232.3 194.5 -232.3 194.5 -233.9 191.2 C-236.9 190.6 -236.9 190.6 -240.4 190.4 C-241.7 190.4 -243 190.3 -244.3 190.2 C-247.2 190.2 -250.1 190.2 -253.1 190.3 C-260 190.1 -267.1 189.1 -272.9 185.2 C-273.6 185.5 -273.6 185.5 -276.9 187.2 C-280 187.1 -280 187.1 -282.9 186.2 C-284.9 184 -284.9 184 -285.9 181.2 C-284.8 176.3 -282.8 173.5 -279.4 169.8 C-274.4 163.9 -270.4 157.6 -266.3 151 C-263.1 145.8 -259.6 141 -255.9 136.2 C-251.8 130.6 -247.8 125 -244 119.2 C-233.9 103.8 -220.4 87.3 -204.9 77.2 C-203.4 75.8 -201.9 74.4 -200.4 73 C-194.6 67.7 -188.5 63.4 -181.9 59.2 C-180.8 58.4 -179.7 57.7 -178.5 56.9 C-169.7 51.3 -160.7 47.5 -150.9 44 C-147.6 42.8 -144.4 41.5 -141.2 40.1 C-137.8 38.5 -134.6 37.4 -131 36.4 C-118.2 32.6 -106.2 26.5 -94.5 20 C-86.6 15.9 -79.4 13.3 -70.7 11.5 C-69.7 11.3 -68.6 11.1 -67.6 10.9 C-64.7 10.3 -61.8 9.7 -58.9 9.2 C-57.8 8.9 -56.7 8.7 -55.5 8.5 C-50.3 7.6 -45.2 7.1 -40 6.8 C-27.8 6.1 -17.5 5.2 -6.2 0.2 C-2.9 -0.8 -2.9 -0.8 0 0 Z M-15.6 19.1 C-19.2 20.3 -22.4 20.6 -26.2 20.9 C-26.9 21 -26.9 21 -30.4 21.3 C-33.3 21.5 -36.2 21.7 -39.1 21.9 C-65.1 24.1 -65.1 24.1 -74.9 30.2 C-81.9 33.8 -89 37.2 -96.7 39.1 C-101.3 40.3 -105.7 42 -110.1 43.8 C-117.6 46.9 -125.2 49.8 -132.8 52.5 C-133.7 52.9 -134.7 53.2 -135.6 53.6 C-139.2 54.9 -142.8 56.1 -146.5 57.1 C-147.3 57.5 -148.1 57.8 -148.9 58.2 C-150.6 62.4 -150.6 62.4 -151.9 67.2 C-153.8 70.2 -153.8 70.2 -155.9 73.2 C-156.5 73.9 -157 74.6 -157.5 75.3 C-159 77.3 -160.5 79.2 -161.9 81.2 C-161.5 82.1 -161.1 83 -160.6 83.9 C-157.5 90.5 -154.5 97.1 -151.9 103.9 C-149.4 110.3 -146.4 116.3 -142.9 122.2 C-142.5 122.1 -142.5 122.1 -140.3 122 C-119.8 120.4 -119.8 120.4 -115.4 122.3 C-110.8 123.5 -107.5 122.7 -102.8 121.8 C-102 121.6 -101.1 121.5 -100.2 121.3 C-98.3 120.9 -96.5 120.6 -94.6 120.2 C-91.8 119.6 -89 119.1 -86.3 118.6 C-54.7 112.4 -54.7 112.4 -42.9 106.2 C-42.8 102.3 -42.8 102.3 -42.9 98.2 C-43.4 97.8 -43.4 97.8 -45.9 96.2 C-47 92.2 -47 90.2 -45.9 86.2 C-46.4 86 -46.4 86 -48.8 85 C-51.9 83.2 -51.9 83.2 -53.4 80.2 C-53.9 77.2 -53.9 77.2 -51.9 73.2 C-49.4 72.1 -49.4 72.1 -46.2 71.3 C-45.1 71 -43.9 70.7 -42.7 70.3 C-42.1 70.2 -42.1 70.2 -38.9 69.4 C-24.8 65.6 -12 60.8 1.1 54.2 C-2.7 52.9 -4.6 53.9 -8.2 55.2 C-51.1 70.3 -51.1 70.3 -65.8 63.5 C-70 60.4 -71.4 58.1 -72.8 53.2 C-73 49.2 -72.3 47.5 -69.9 44.2 C-63.8 39.7 -57.7 36.4 -50.7 33.6 C-49.8 33.2 -48.8 32.8 -47.8 32.4 C-40.3 29.5 -32.7 27.4 -24.8 25.8 C-20.1 24.8 -16 23.7 -11.9 21.2 C-11.6 20.2 -11.3 19.2 -10.9 18.2 C-12.9 18.2 -12.9 18.2 -15.6 19.1 Z M-180.9 76.2 C-182.3 77.2 -183.6 78.2 -184.9 79.2 C-179.8 96.4 -168.1 124 -152.9 134.2 C-153.3 130.5 -154.3 128.7 -156.3 125.5 C-158.9 121.4 -160.6 117.3 -162.3 112.7 C-167 99.9 -172.8 87.1 -180.9 76.2 Z " transform="translate(323.94921875,42.828125)"/></g></svg>
