<svg xmlns="http://www.w3.org/2000/svg" viewBox="149 46 468 280"><circle cx="562" cy="102" r="46" fill="#d97706"/><g transform="translate(120,60) scale(0.95)" fill="#1a1a1a"><path d="M0 0 C0.6 -0 0.6 -0 3.4 -0.1 C6.4 0.3 6.4 0.3 9.4 3.3 C9.7 3.1 9.7 3.1 11.6 2.2 C14.7 1.2 16.2 1.6 19.4 2.3 C20 1.7 20.7 1 21.4 0.3 C24 0.7 24 0.7 26.4 1.3 C26.7 3 27 4.6 27.4 6.3 C23.2 9.3 19.5 10.1 14.4 10.3 C13.7 9.7 13.1 9 12.4 8.3 C11.9 8.9 11.5 9.5 11 10.2 C0.6 23.7 -11.4 33.4 -28.8 35.8 C-38.1 37.5 -47.2 41.4 -56 44.9 C-56.4 45.1 -56.4 45.1 -58.3 45.8 C-60.1 46.6 -61.9 47.4 -63.6 48.3 C-64 49.3 -64.3 50.3 -64.6 51.3 C-49.9 51.9 -36.7 49.9 -22.9 44.5 C-19.6 43.3 -19.6 43.3 -15.9 42.4 C-10.6 41 -5.4 39.3 -0.2 37.4 C0.7 37.1 1.7 36.8 2.7 36.4 C9 34.2 15.2 31.8 21.4 29.3 C22.9 28.7 24.3 28.1 25.8 27.6 C31.7 25.2 37.6 22.7 43.4 20.2 C58 14 58 14 63.6 13.6 C64.4 13.6 65.2 13.5 66.1 13.4 C68.2 13.3 70.3 13.3 72.4 13.3 C74.4 15.3 74.4 15.3 74.5 17.9 C73.1 22.2 70.8 24.2 67.5 27.2 C65.5 29.2 64 31.1 62.4 33.4 C59.8 37 56.8 39.7 53.4 42.6 C49 46.3 45.1 50.4 41.4 54.8 C32.4 65.2 22.4 75 11.4 83.3 C10.8 83.7 10.8 83.7 8 85.9 C-26.1 111.8 -63.9 125.2 -106.2 131 C-111.2 131.7 -115.8 132.6 -120.6 134.3 C-124.4 135.1 -128.1 135.8 -131.9 136.4 C-137.9 137.9 -143.2 139.9 -147.6 144.3 C-155.2 158.5 -156.3 174.8 -157.3 190.6 C-158.9 217.6 -158.9 217.6 -166.6 225.3 C-170.6 223.3 -170.6 223.3 -172.6 221.3 C-173 220 -173.3 218.7 -173.6 217.3 C-174.2 217.3 -174.2 217.3 -177.4 217 C-181.3 216.4 -182.8 216 -185.6 213.3 C-186.6 214.3 -187.6 215.3 -188.6 216.3 C-191.1 216.8 -191.1 216.8 -193.6 216.3 C-196.3 213.7 -197.5 212.3 -197.9 208.5 C-197.8 207.8 -197.7 207.1 -197.6 206.3 C-198.7 206.4 -199.7 206.5 -200.8 206.6 C-204.6 206.3 -204.6 206.3 -208.1 204.3 C-210.6 201.3 -210.6 201.3 -210.5 197 C-210.2 195.8 -209.9 194.6 -209.6 193.3 C-212.4 192.7 -212.4 192.7 -215.6 192.3 C-216.6 193 -217.6 193.6 -218.6 194.3 C-222.2 194.6 -222.2 194.6 -225.6 194.3 C-226 194 -226 194 -227.6 192.3 C-228.4 192.2 -229.2 192 -230.1 191.9 C-232.6 191.3 -232.6 191.3 -235.6 188.3 C-235.6 187.7 -235.6 187 -235.6 186.3 C-236.7 186.3 -237.8 186.2 -238.9 186.1 C-240.4 186 -241.8 186 -243.3 185.9 C-244.7 185.8 -246.2 185.7 -247.6 185.6 C-250.7 185.4 -253.6 184.9 -256.6 184.3 C-257.4 184.5 -258.1 184.7 -258.9 184.9 C-264.3 185.7 -269.2 184.3 -273.7 181.2 C-274.3 180.6 -275 179.9 -275.6 179.3 C-276.3 179.6 -276.3 179.6 -279.6 181.3 C-280.9 181.6 -282.3 182 -283.6 182.3 C-284.6 181.3 -285.6 180.3 -286.6 179.3 C-284.8 175.7 -283.2 173.5 -280.6 170.6 C-276.3 165.4 -272.8 160 -269.3 154.2 C-265.7 148.4 -261.8 142.8 -257.6 137.3 C-253.5 131.7 -249.5 126.1 -245.7 120.3 C-235.3 104.7 -221.4 87.6 -205.6 77.3 C-204.1 75.9 -202.6 74.6 -201.1 73.1 C-195.3 67.9 -189.1 63.6 -182.6 59.3 C-181.5 58.5 -180.3 57.8 -179.1 57 C-168.7 50.5 -157.9 46 -146.3 42.2 C-143.6 41.3 -143.6 41.3 -140.6 39.3 C-139 38.8 -137.3 38.4 -135.6 37.9 C-130 36.5 -124.8 34.5 -119.5 32.2 C-118.6 31.8 -117.7 31.4 -116.8 31 C-109.5 27.8 -102.5 24.2 -95.5 20.4 C-88 16.4 -81.2 13.7 -72.9 12.2 C-72 12 -71.1 11.9 -70.2 11.7 C-67.7 11.2 -65.1 10.8 -62.6 10.3 C-61.5 10.1 -60.5 9.9 -59.4 9.7 C-54.1 8.8 -48.8 8.2 -43.5 7.9 C-42.3 7.8 -41.2 7.7 -40 7.7 C-37.8 7.5 -35.5 7.4 -33.3 7.3 C-24.5 6.7 -17 4.6 -9 1.2 C-5.9 0 -3.3 0 0 0 Z M10.4 5.3 C11.4 7.3 11.4 7.3 11.4 7.3 Z M-16.8 13.7 C-24 15.9 -31.3 16.3 -38.7 16.8 C-72.5 19.6 -72.5 19.6 -83.5 27.3 C-88.9 30.8 -94.6 32.9 -100.9 34.2 C-105.7 35.2 -109.9 37 -114.3 38.9 C-121.5 42.1 -128.8 44.9 -136.2 47.6 C-137.1 48 -138 48.3 -139 48.6 C-144.5 50.6 -150.1 52.5 -155.6 54.3 C-155.7 55.3 -155.7 56.3 -155.8 57.3 C-157.2 64.1 -161.8 68.5 -166.3 73.6 C-167 74.3 -167.6 75 -168.2 75.7 C-168.7 76.2 -169.1 76.8 -169.6 77.3 C-169 78.6 -168.5 79.9 -167.9 81.2 C-167.1 82.9 -166.3 84.6 -165.5 86.4 C-165.1 87.3 -164.7 88.2 -164.3 89.1 C-161.8 94.5 -159.6 99.8 -157.5 105.3 C-154.9 112.1 -151.5 118.2 -147.6 124.3 C-147.1 124.2 -147.1 124.2 -144.7 123.9 C-128.1 121.5 -128.1 121.5 -121.6 122.3 C-121.3 122.6 -121.3 122.6 -119.6 124.3 C-116.9 124.1 -114.3 123.8 -111.6 123.3 C-110.7 123.2 -109.7 123 -108.8 122.9 C-85.2 118.9 -61.6 114.9 -39.6 105.3 C-40.9 104 -42.3 102.7 -43.6 101.3 C-41.5 97.1 -41 96.7 -37.1 94.7 C-36.2 94.2 -35.3 93.8 -34.3 93.3 C-33.4 92.8 -32.4 92.4 -31.4 91.9 C-25.1 88.7 -19.2 85.6 -13.6 81.3 C-14.3 81 -14.9 80.7 -15.6 80.3 C-18.2 81.4 -20.6 82.6 -23.1 83.9 C-24.5 84.7 -26 85.4 -27.4 86.2 C-28.1 86.5 -28.8 86.9 -29.6 87.3 C-32.3 88.7 -35.1 90 -37.9 91.4 C-38.7 91.8 -39.5 92.2 -40.4 92.6 C-42.6 93.3 -42.6 93.3 -46.6 92.3 C-47 91 -47.3 89.7 -47.6 88.3 C-43.1 84.1 -37.9 82.1 -32.2 79.8 C-30.3 79 -28.5 78.2 -26.6 77.4 C-25.8 77.1 -24.9 76.7 -24 76.3 C-21.2 75.1 -18.4 73.8 -15.6 72.3 C-19.9 71.2 -20.4 71.3 -24.1 73.1 C-29 75.1 -33.8 76.5 -38.9 77.6 C-41.6 78.3 -41.6 78.3 -45.1 79.6 C-48.1 80.4 -49.7 80.4 -52.6 79.3 C-53.3 78 -53.9 76.7 -54.6 75.3 C-52.2 72.9 -50.2 72.6 -46.9 71.9 C-28.2 67.5 -10.9 60.2 6.1 51.5 C10.6 49.2 15.1 46.9 19.6 44.7 C21.5 43.7 23.4 42.8 25.3 41.9 C28.2 40.4 31.2 38.9 34.1 37.5 C40.4 34.4 46.4 31 52.4 27.3 C52 27.1 52 27.1 50.4 26.3 C48.2 27.1 48.2 27.1 45.6 28.3 C44.6 28.8 43.6 29.2 42.6 29.7 C41.5 30.2 40.4 30.7 39.3 31.2 C26.6 36.9 13.6 41.8 0.4 46.3 C-0.4 46.6 -1.2 46.8 -2 47.1 C-40.6 60.4 -40.6 60.4 -56.1 60.6 C-56.8 60.6 -56.8 60.6 -60.5 60.7 C-65.1 60.3 -67.1 59.2 -70.6 56.3 C-72.8 53.6 -73.7 52.3 -73.4 48.9 C-71.7 43.5 -66 40.6 -61.3 38 C-58.9 36.8 -56.4 35.7 -53.9 34.7 C-53 34.3 -52.1 33.9 -51.2 33.5 C-43.7 30.5 -36.1 28.5 -28.1 27 C-22.3 25.9 -17.7 24.4 -12.6 21.3 C-11.2 19 -11.2 19 -10.6 16.6 C-10.3 15.2 -10 13.8 -9.6 12.3 C-12.6 12.3 -12.6 12.3 -16.8 13.7 Z M-7.6 66.3 C-9.6 67.1 -9.6 67.1 -11.8 68.2 C-13 68.9 -14.3 69.6 -15.6 70.3 C-14.6 70.6 -13.6 71 -12.6 71.3 C-8.9 69.4 -8.9 69.4 -5.6 67.3 C-6.3 67 -6.9 66.7 -7.6 66.3 Z M-189.2 72.8 C-190.1 73.5 -190.9 74.1 -191.7 74.8 C-192.4 75.3 -193 75.8 -193.6 76.3 C-193 77.6 -192.3 79 -191.6 80.3 C-190.7 82.2 -189.8 84.2 -188.9 86.1 C-180.5 103.8 -171.9 120.7 -159.5 136 C-157.6 138.3 -157.6 138.3 -156.6 140.3 C-156 140 -156 140 -152.6 138.3 C-151.4 134.7 -151.9 133.7 -153.2 130.1 C-153.6 129.2 -153.9 128.3 -154.2 127.4 C-155.4 124.9 -156.6 122.8 -158.1 120.5 C-160.7 116.4 -162.3 112.3 -163.9 107.8 C-168.2 96.4 -173.6 85.8 -179.6 75.3 C-180.6 73.3 -181.6 71.3 -182.6 69.3 C-185.6 69.3 -186.9 71 -189.2 72.8 Z " transform="translate(327.625,44.6875)"/></g></svg>
