<svg xmlns="http://www.w3.org/2000/svg" viewBox="146 46 471 283"><circle cx="562" cy="102" r="46" fill="#d97706"/><g transform="translate(120,60) scale(0.95)" fill="#1a1a1a"><path d="M0 0 C3.6 0.4 3.6 0.4 6.8 -0 C11.2 -0.6 15.4 -0.7 19.8 -0.8 C21.4 -0.8 22.9 -0.8 24.5 -0.8 C28.6 -0.6 28.6 -0.6 32.6 1.4 C33.6 5.4 33.6 5.4 31.6 9.4 C26.9 11.2 22 12 17.1 13 C16.4 13.1 16.4 13.1 13.2 13.8 C12.6 13.9 12.6 13.9 9.6 14.4 C8.5 14.7 7.4 14.9 6.3 15.1 C3.6 15.4 3.6 15.4 1.6 14.4 C1 15.8 0.3 17.1 -0.4 18.4 C-11.1 31.8 -23.8 37.6 -40.3 41.4 C-49.3 43.6 -57.9 46.7 -66.4 50.4 C-54.6 49.9 -44.2 47.6 -33.2 43.5 C-30.2 42.4 -27.2 41.4 -24.1 40.5 C-13.4 37.2 -2.7 33.8 7.6 29.4 C17.5 25.3 27.4 21.3 37.3 17.4 C39.4 16.5 41.4 15.7 43.5 14.8 C50.5 12 56.2 9.8 63.6 12.5 C65.6 14.4 65.6 14.4 66.6 17.8 C66.6 23.9 64.5 26.5 60.2 30.9 C59.6 31.5 59 32 58.4 32.7 C56.6 34.4 56.6 34.4 54.2 37.9 C51.6 41.4 49 43.9 45.7 46.6 C40.9 50.7 36.6 55.3 32.5 60.1 C23.8 70.1 14.2 79.4 3.6 87.4 C2.5 88.3 1.4 89.2 0.2 90 C-34.8 116.4 -73.7 130.2 -116.9 136.1 C-122 136.9 -126.5 137.7 -131.4 139.4 C-133.8 139.9 -136.2 140.3 -138.7 140.7 C-145.3 142 -150.5 143.6 -155.4 148.4 C-162.8 159.8 -164 175.5 -164.7 188.7 C-166.2 215.7 -166.2 215.7 -172.4 227.4 C-174.9 229.4 -174.9 229.4 -177.4 230.4 C-181.3 229.8 -182.9 229.1 -185.2 225.9 C-186.4 223.4 -186.4 223.4 -186.4 221.4 C-191.5 220.8 -195.6 220.3 -200.7 221.1 C-204.4 221.4 -204.4 221.4 -207.2 220.4 C-210.1 217.8 -210.6 215.2 -211.4 211.4 C-212.4 211.4 -213.5 211.3 -214.6 211.2 C-218.8 210.4 -220.5 209.7 -223.4 206.4 C-224.2 202.2 -224.2 202.2 -224.4 198.4 C-225.1 198.6 -225.7 198.8 -226.4 198.9 C-233.7 200.2 -240 199.2 -246.4 195.4 C-246.7 194.8 -246.7 194.8 -248.4 191.4 C-251.3 190.8 -251.3 190.8 -254.9 190.7 C-256.1 190.6 -257.4 190.6 -258.7 190.5 C-261.7 190.5 -264.6 190.5 -267.5 190.6 C-274.4 190.4 -281.5 189.3 -287.4 185.4 C-288 185.8 -288 185.8 -291.4 187.4 C-294.4 187.4 -294.4 187.4 -297.4 186.4 C-299.4 184.3 -299.4 184.3 -300.4 181.4 C-299.2 176.6 -297.2 173.7 -293.9 170.1 C-288.8 164.2 -284.8 157.9 -280.8 151.3 C-277.6 146.1 -274 141.3 -270.4 136.4 C-266.3 130.9 -262.2 125.3 -258.4 119.4 C-248.3 104.1 -234.8 87.6 -219.4 77.4 C-217.8 76.1 -216.3 74.7 -214.8 73.2 C-209.1 68 -202.9 63.7 -196.4 59.4 C-195.2 58.7 -194.1 57.9 -192.9 57.2 C-184.1 51.5 -175.1 47.8 -165.3 44.3 C-162 43.1 -158.8 41.8 -155.6 40.3 C-152.2 38.8 -149 37.7 -145.4 36.7 C-132.6 32.9 -120.6 26.8 -108.9 20.3 C-101 16.1 -93.8 13.6 -85.1 11.8 C-84.1 11.6 -83.1 11.4 -82 11.2 C-79.1 10.6 -76.3 10 -73.4 9.4 C-72.2 9.2 -71.1 9 -69.9 8.7 C-64.7 7.8 -59.6 7.4 -54.4 7.1 C-42.3 6.4 -32.4 5.3 -21.1 0.7 C-14 -1.7 -7.3 -0.9 0 0 Z M-30 19.4 C-33.6 20.5 -36.9 20.9 -40.6 21.2 C-41.3 21.2 -41.3 21.2 -44.9 21.5 C-47.7 21.8 -50.6 22 -53.5 22.2 C-79.5 24.4 -79.5 24.4 -89.4 30.4 C-96.4 34.1 -103.4 37.5 -111.1 39.3 C-115.8 40.5 -120.1 42.2 -124.5 44.1 C-132 47.1 -139.6 50 -147.2 52.8 C-148.2 53.1 -149.1 53.5 -150 53.8 C-153.6 55.1 -157.2 56.4 -160.9 57.4 C-161.7 57.7 -162.5 58.1 -163.4 58.4 C-165 62.7 -165 62.7 -166.4 67.4 C-168.1 70.3 -169.7 72.8 -172.2 75.1 C-174.4 77.2 -175.5 78.5 -176.4 81.4 C-175.2 85.4 -173.5 88.8 -171.5 92.4 C-169.5 96.3 -167.9 100.1 -166.3 104.2 C-163.8 110.6 -160.8 116.5 -157.4 122.4 C-156.9 122.4 -156.9 122.4 -154.7 122.2 C-134.3 120.6 -134.3 120.6 -129.8 122.5 C-125.2 123.7 -121.9 123 -117.3 122.1 C-116.4 121.9 -115.5 121.7 -114.6 121.5 C-112.7 121.2 -110.9 120.8 -109 120.4 C-106.2 119.9 -103.5 119.4 -100.7 118.8 C-67.2 112.3 -67.2 112.3 -57.4 106.4 C-56.7 102.3 -56.7 102.3 -57.4 98.4 C-57.9 98.1 -57.9 98.1 -60.4 96.4 C-61.4 92.5 -61.4 90.5 -60.4 86.4 C-60.8 86.3 -60.8 86.3 -63.2 85.3 C-66.4 83.4 -66.4 83.4 -67.9 80.5 C-68.4 77.4 -68.4 77.4 -66.4 73.4 C-63.8 72.4 -63.8 72.4 -60.7 71.5 C-59.5 71.2 -58.3 70.9 -57.1 70.6 C-56.5 70.4 -56.5 70.4 -53.3 69.6 C-39.2 65.8 -26.4 61 -13.4 54.4 C-17.1 53.2 -19 54.2 -22.7 55.5 C-65.5 70.6 -65.5 70.6 -80.2 63.8 C-84.4 60.7 -85.8 58.4 -87.2 53.5 C-87.4 49.4 -86.7 47.8 -84.4 44.4 C-78.2 40 -72.1 36.7 -65.1 33.9 C-64.2 33.5 -63.2 33.1 -62.3 32.7 C-54.7 29.7 -47.2 27.7 -39.3 26 C-34.6 25 -30.5 24 -26.4 21.4 C-26 20.4 -25.7 19.5 -25.4 18.4 C-27.4 18.4 -27.4 18.4 -30 19.4 Z M-195.4 76.4 C-196.7 77.4 -198 78.4 -199.4 79.4 C-194.2 96.7 -182.6 124.3 -167.4 134.4 C-167.7 130.8 -168.7 128.9 -170.7 125.8 C-173.3 121.7 -175 117.5 -176.7 112.9 C-181.4 100.2 -187.2 87.3 -195.4 76.4 Z " transform="translate(338.375,42.5625)"/></g></svg>
