<svg xmlns="http://www.w3.org/2000/svg" viewBox="149 46 468 280"><circle cx="562" cy="102" r="46" fill="#d97706"/><g transform="translate(120,60) scale(0.95)" fill="#1a1a1a"><path d="M0 0 C0.7 0.3 0.7 0.3 4 2 C4.2 4.8 4.2 4.8 4 8 C-4.3 15.9 -18.6 15.8 -29.2 16.6 C-62.8 19.3 -62.8 19.3 -73.9 27 C-79.3 30.5 -85 32.6 -91.3 33.9 C-96 34.9 -100.3 36.6 -104.7 38.6 C-111.9 41.8 -119.2 44.7 -126.6 47.4 C-127.5 47.7 -128.4 48 -129.4 48.4 C-134.9 50.4 -140.3 51.8 -146 53 C-145.9 53.5 -145.9 53.5 -145.6 56 C-146.1 61.4 -148.5 64 -152 68 C-152.6 68.7 -153.2 69.3 -153.8 70 C-155.5 72 -157.3 74 -159 76 C-158.4 77.3 -157.8 78.5 -157.2 79.8 C-153.6 87.9 -150 95.9 -146.8 104.1 C-144.4 110.3 -141.4 116.2 -138 122 C-137.5 121.9 -137.5 121.9 -135.1 121.6 C-118.5 119.2 -118.5 119.2 -112 120 C-111.3 120.7 -110.7 121.3 -110 122 C-107.3 121.8 -104.7 121.5 -102 121 C-101.1 120.8 -100.1 120.7 -99.1 120.5 C-51.7 112.7 -51.7 112.7 -33 104 C-33 102 -33 102 -35 98 C-29.9 93.5 -24 90.8 -17.9 87.7 C-13.6 85.5 -9.7 83.3 -6 80 C-7 80.5 -8.1 81 -9.1 81.6 C-13.4 83.7 -17.7 85.9 -22 88 C-23.1 88.6 -24.2 89.1 -25.4 89.7 C-26.3 90.1 -27.3 90.6 -28.2 91.1 C-29.1 91.5 -29.9 91.9 -30.8 92.3 C-33 93 -33 93 -37 92 C-37.7 91.3 -38.3 90.7 -39 90 C-37.8 85.2 -37.1 84.7 -33 82 C-29.5 80.3 -26 78.8 -22.4 77.4 C-20.6 76.6 -18.7 75.8 -16.8 75 C-16 74.7 -15.2 74.3 -14.3 74 C-12.2 73.1 -10.1 72 -8 71 C-13.1 72.5 -18.1 74 -23.2 75.6 C-24.9 76.2 -26.6 76.7 -28.3 77.2 C-29.2 77.5 -30 77.8 -30.9 78.1 C-39.1 80.6 -39.1 80.6 -43 79 C-44 78 -45 77 -46 76 C-44 72 -44 72 -40 70.4 C-38.3 69.9 -36.7 69.5 -35 69 C-33.4 68.5 -31.9 68.1 -30.3 67.6 C-29.6 67.4 -28.8 67.2 -28 67 C-12.6 62.5 1.5 56.5 15.7 49.2 C20.2 46.9 24.7 44.6 29.2 42.4 C31.1 41.4 33 40.5 34.9 39.5 C37.9 38.1 40.8 36.6 43.8 35.1 C44.8 34.6 45.8 34.1 46.9 33.6 C47.7 33.2 48.5 32.8 49.4 32.4 C53 30.4 56.5 28.2 60 26 C59.4 26.3 58.7 26.6 58.1 26.9 C42.3 34 26.4 40.4 10 46 C9.2 46.3 8.5 46.5 7.7 46.8 C-31 60.1 -31 60.1 -46.4 60.3 C-47.2 60.3 -47.2 60.3 -50.9 60.4 C-56.9 59.8 -59.8 57.2 -64 53 C-64.9 50.1 -64.9 50.1 -65 47 C-59.3 36.6 -43.7 31.6 -33 28 C-28.2 26.7 -23.3 25.6 -18.4 24.6 C-13.5 23.7 -9.5 22.4 -5 20 C-4.3 20 -3.7 20 -3 20 C-2.9 19.1 -2.8 18.1 -2.8 17.2 C-2 14 -2 14 -0.2 12 C2 11 2 11 4.4 11.8 C5.2 12.2 6.1 12.6 7 13 C7.5 13 7.5 13 10.2 12.9 C10.7 12.9 10.7 12.9 13 13 C13.7 14 14.3 15 15 16 C5.4 26 -5.3 32.6 -19.1 34.5 C-28.5 36.2 -37.6 40.1 -46.4 43.6 C-46.7 43.8 -46.7 43.8 -48.6 44.5 C-50.5 45.2 -52.2 46.1 -54 47 C-54.3 48 -54.7 49 -55 50 C-40.3 50.6 -27 48.5 -13.3 43.2 C-10 42 -10 42 -6.3 41.1 C-1 39.7 4.2 38 9.4 36.1 C10.4 35.8 11.3 35.4 12.3 35.1 C18.6 32.9 24.8 30.5 31 28 C32.5 27.4 34 26.8 35.4 26.2 C41.3 23.9 47.2 21.4 53 18.9 C55.4 17.9 57.7 17 60 16 C61.4 15.4 62.7 14.9 64.1 14.3 C68.1 13 71.2 12.6 75.4 12.7 C76.6 12.7 77.8 12.7 79 12.7 C82 13 82 13 84 15 C83.7 19.2 82.4 21 79.3 23.8 C76.6 26.4 74.2 29 72 32.1 C69.4 35.7 66.4 38.4 63 41.3 C58.6 45 54.7 49.1 51 53.5 C42 63.9 32 73.7 21 82 C20.4 82.4 20.4 82.4 17.6 84.6 C-16.5 110.5 -54.3 123.9 -96.5 129.7 C-101.6 130.4 -106.2 131.3 -111 133 C-114.7 133.8 -118.5 134.4 -122.2 135.1 C-128.3 136.5 -133.6 138.6 -138 143 C-145.6 157.2 -146.7 173.5 -147.7 189.3 C-149.3 216.3 -149.3 216.3 -157 224 C-161 222 -161 222 -163 220 C-163.3 218.7 -163.7 217.4 -164 216 C-164.6 215.9 -164.6 215.9 -167.8 215.7 C-171.7 215.1 -173.2 214.7 -176 212 C-177 213 -178 214 -179 215 C-181.4 215.5 -181.4 215.5 -184 215 C-186.7 212.4 -187.9 210.9 -188.2 207.2 C-188.2 206.5 -188.1 205.7 -188 205 C-189 205.1 -190.1 205.2 -191.1 205.3 C-195 205 -195 205 -198.5 203 C-201 200 -201 200 -200.9 195.7 C-200.6 194.5 -200.3 193.3 -200 192 C-202.8 191.4 -202.8 191.4 -206 191 C-207 191.7 -208 192.3 -209 193 C-212.6 193.2 -212.6 193.2 -216 193 C-216.3 192.7 -216.3 192.7 -218 191 C-218.8 190.9 -219.6 190.7 -220.4 190.6 C-223 190 -223 190 -226 187 C-226 186.3 -226 185.7 -226 185 C-227.1 184.9 -228.2 184.9 -229.3 184.8 C-230.8 184.7 -232.2 184.6 -233.7 184.6 C-235.1 184.5 -236.5 184.4 -238 184.3 C-241.1 184.1 -244 183.6 -247 183 C-247.7 183.2 -248.5 183.4 -249.2 183.6 C-254.7 184.4 -259.6 183 -264.1 179.9 C-264.7 179.3 -265.3 178.6 -266 178 C-266.7 178.3 -266.7 178.3 -270 180 C-271.3 180.3 -272.6 180.7 -274 181 C-275 180 -276 179 -277 178 C-275.2 174.4 -273.6 172.2 -271 169.2 C-266.7 164.1 -263.2 158.7 -259.7 152.9 C-256.1 147 -252.1 141.5 -248 136 C-243.9 130.4 -239.9 124.8 -236.1 119 C-225.7 103.3 -211.8 86.3 -196 76 C-194.5 74.6 -192.9 73.2 -191.4 71.8 C-185.7 66.6 -179.5 62.2 -173 58 C-171.8 57.2 -170.7 56.5 -169.5 55.7 C-159.1 49.1 -148.3 44.7 -136.7 40.9 C-134 40 -134 40 -131 38 C-129.3 37.5 -127.6 37 -125.9 36.6 C-120.4 35.2 -115.2 33.2 -109.9 30.9 C-109 30.5 -108.1 30.1 -107.1 29.7 C-99.9 26.5 -92.8 22.9 -85.9 19 C-78.4 15.1 -71.6 12.4 -63.2 10.9 C-62.4 10.7 -61.5 10.5 -60.6 10.4 C-58 9.9 -55.5 9.5 -53 9 C-51.9 8.8 -50.8 8.6 -49.7 8.4 C-44.4 7.4 -39.2 6.9 -33.8 6.6 C-32.7 6.5 -31.6 6.4 -30.4 6.3 C-28.2 6.2 -25.9 6.1 -23.6 6 C-15.3 5.4 -7.5 3.8 0 0 Z M2 65 C0.1 65.8 0.1 65.8 -2.1 66.9 C-3.4 67.6 -4.7 68.3 -6 69 C-5 69.3 -4 69.7 -3 70 C0.7 68.1 0.7 68.1 4 66 C3.3 65.7 2.7 65.3 2 65 Z M-179.6 71.5 C-180.4 72.1 -181.3 72.8 -182.1 73.5 C-182.7 74 -183.4 74.5 -184 75 C-183.3 76.3 -182.7 77.6 -182 79 C-181.1 80.9 -180.2 82.8 -179.3 84.8 C-170.9 102.5 -162.2 119.3 -149.8 134.7 C-148 137 -148 137 -147 139 C-146.3 138.7 -146.3 138.7 -143 137 C-141.8 133.4 -142.3 132.3 -143.6 128.8 C-143.9 127.9 -144.3 127 -144.6 126.1 C-145.7 123.6 -146.9 121.5 -148.4 119.2 C-151 115.1 -152.7 111 -154.3 106.5 C-158.6 95.1 -164 84.5 -170 74 C-171 72 -172 70 -173 68 C-176 68 -177.3 69.7 -179.6 71.5 Z " transform="translate(318,46)"/></g></svg>
