<svg xmlns="http://www.w3.org/2000/svg" viewBox="0 0 800 600" width="800" height="600">
  <rect width="800" height="600" fill="#f8f4ed"/>
  <rect x="40" y="40" width="720" height="520" fill="none" stroke="#1a1a1a" stroke-width="1.5"/>
  <rect x="56" y="56" width="688" height="488" fill="none" stroke="#1a1a1a" stroke-width="0.5"/>
  <text x="80" y="100" font-family="JetBrains Mono, monospace" font-size="11" fill="#1a1a1a" letter-spacing="2.5">SPECIMEN &#8212; PHRASE</text>
  <line x1="80" y1="115" x2="220" y2="115" stroke="#d97706" stroke-width="1.5"/>
  <text x="720" y="100" font-family="JetBrains Mono, monospace" font-size="11" fill="#1a1a1a" letter-spacing="2" text-anchor="end">CAT. CIRCA 2014</text>
  <text x="400" y="265" font-family="EB Garamond, Garamond, serif" font-style="italic" font-size="72" fill="#1a1a1a" text-anchor="middle" font-weight="500">Be your <tspan fill="#d97706">own</tspan> bank.</text>
  <g transform="translate(248,290) scale(0.40)">
    <circle cx="562" cy="102" r="46" fill="#d97706"/>
    <g transform="translate(120,60) scale(0.95)" fill="#1a1a1a">
      <path d="M0 0 C1.1 -0 2.3 -0 3.4 -0 C6.3 0.2 6.3 0.2 8.3 2.2 C9.2 6.8 9.4 11.4 7.1 15.5 C5.3 17.6 3.4 19.4 1.3 21.2 C0.6 21.9 -0 22.5 -0.7 23.1 C-8.9 30 -18.2 34.2 -28.8 35.7 C-38.2 37.4 -47.2 41.3 -56.1 44.9 C-56.4 45 -56.4 45 -58.3 45.8 C-60.1 46.5 -61.9 47.4 -63.7 48.2 C-64 49.2 -64.3 50.2 -64.7 51.2 C-49.9 51.8 -36.7 49.8 -23 44.4 C-19.7 43.2 -19.7 43.2 -16 42.3 C-10.6 41 -5.5 39.2 -0.3 37.4 C0.7 37 1.6 36.7 2.6 36.3 C8.9 34.1 15.1 31.8 21.3 29.2 C22.8 28.7 24.3 28.1 25.8 27.5 C31.8 25.1 37.8 22.5 43.8 20 C50.5 17.1 55.6 16 62.9 16 C63.3 16 63.3 16 65.5 15.9 C67.8 15.9 70.1 16.1 72.3 16.2 C73 17.2 73.6 18.2 74.3 19.2 C73.9 19.7 73.5 20.2 73.1 20.6 C69.7 24.4 66.5 28.3 63.4 32.3 C60.3 36.2 57.1 39.4 53.2 42.6 C48.9 46.3 45 50.4 41.3 54.8 C32.3 65.2 22.3 74.9 11.3 83.2 C10.8 83.7 10.8 83.7 7.9 85.9 C-26.2 111.7 -64 125.1 -106.2 131 C-111.3 131.7 -115.9 132.5 -120.7 134.2 C-124.4 135 -128.2 135.7 -131.9 136.4 C-138 137.8 -143.2 139.8 -147.7 144.2 C-155.2 158.5 -156.4 174.8 -157.3 190.5 C-159 217.6 -159 217.6 -166.7 225.2 C-170.7 223.2 -170.7 223.2 -172.7 221.2 C-173 219.9 -173.3 218.6 -173.7 217.2 C-174.3 217.2 -174.3 217.2 -177.4 216.9 C-181.4 216.3 -182.9 215.9 -185.7 213.2 C-186.7 214.2 -187.7 215.2 -188.7 216.2 C-191.1 216.8 -191.1 216.8 -193.7 216.2 C-196.4 213.7 -197.6 212.2 -197.9 208.4 C-197.9 207.7 -197.8 207 -197.7 206.2 C-198.7 206.4 -199.8 206.5 -200.8 206.6 C-204.7 206.2 -204.7 206.2 -208.2 204.2 C-210.7 201.2 -210.7 201.2 -210.6 196.9 C-210.3 195.7 -210 194.5 -209.7 193.2 C-212.5 192.6 -212.5 192.6 -215.7 192.2 C-216.7 192.9 -217.7 193.6 -218.7 194.2 C-222.2 194.5 -222.2 194.5 -225.7 194.2 C-226 193.9 -226 193.9 -227.7 192.2 C-228.5 192.1 -229.3 192 -230.1 191.8 C-232.7 191.2 -232.7 191.2 -235.7 188.2 C-235.7 187.6 -235.7 186.9 -235.7 186.2 C-236.8 186.2 -237.9 186.1 -239 186.1 C-240.5 186 -241.9 185.9 -243.4 185.8 C-244.8 185.7 -246.2 185.7 -247.7 185.6 C-250.8 185.3 -253.6 184.9 -256.7 184.2 C-257.4 184.4 -258.2 184.6 -258.9 184.8 C-264.4 185.7 -269.3 184.2 -273.8 181.1 C-274.4 180.5 -275 179.9 -275.7 179.2 C-276.3 179.6 -276.3 179.6 -279.7 181.2 C-281 181.6 -282.3 181.9 -283.7 182.2 C-284.7 181.3 -285.7 180.3 -286.7 179.2 C-284.9 175.7 -283.3 173.5 -280.7 170.5 C-276.4 165.3 -272.9 159.9 -269.4 154.2 C-265.8 148.3 -261.8 142.8 -257.7 137.2 C-253.6 131.7 -249.5 126.1 -245.8 120.2 C-235.4 104.6 -221.5 87.6 -205.7 77.2 C-204.1 75.9 -202.6 74.5 -201.1 73.1 C-195.4 67.8 -189.2 63.5 -182.7 59.2 C-181.5 58.5 -180.4 57.7 -179.2 56.9 C-168.8 50.4 -158 45.9 -146.3 42.2 C-143.7 41.2 -143.7 41.2 -140.7 39.2 C-139 38.7 -137.3 38.3 -135.6 37.9 C-130 36.4 -124.9 34.4 -119.6 32.1 C-118.7 31.7 -117.8 31.3 -116.8 30.9 C-109.5 27.7 -102.5 24.1 -95.5 20.3 C-88.1 16.3 -81.3 13.6 -72.9 12.1 C-72.1 12 -71.2 11.8 -70.3 11.6 C-67.7 11.2 -65.2 10.7 -62.7 10.2 C-61.6 10 -60.5 9.8 -59.4 9.6 C-54.1 8.7 -48.9 8.2 -43.5 7.8 C-42.4 7.8 -41.3 7.7 -40.1 7.6 C-37.8 7.5 -35.6 7.3 -33.3 7.2 C-24.6 6.7 -17.1 4.5 -9 1.1 C-6 -0 -3.3 -0 0 0 Z M-16.9 13.7 C-24 15.9 -31.3 16.2 -38.8 16.8 C-72.5 19.6 -72.5 19.6 -83.6 27.2 C-89 30.7 -94.7 32.8 -101 34.1 C-105.7 35.2 -109.9 36.9 -114.4 38.9 C-121.6 42 -128.9 44.9 -136.3 47.6 C-137.2 47.9 -138.1 48.2 -139 48.5 C-144.6 50.5 -150.1 52.4 -155.7 54.2 C-155.7 55.2 -155.8 56.2 -155.8 57.2 C-157.3 64 -161.9 68.4 -166.4 73.5 C-167 74.2 -167.6 74.9 -168.3 75.6 C-168.7 76.2 -169.2 76.7 -169.7 77.2 C-169.1 78.5 -168.5 79.8 -167.9 81.1 C-167.1 82.8 -166.4 84.6 -165.6 86.3 C-165.2 87.2 -164.7 88.1 -164.3 89.1 C-161.9 94.4 -159.7 99.8 -157.6 105.2 C-154.9 112 -151.5 118.1 -147.7 124.2 C-147.2 124.2 -147.2 124.2 -144.8 123.8 C-128.1 121.4 -128.1 121.4 -121.7 122.2 C-121.4 122.6 -121.4 122.6 -119.7 124.2 C-117 124.1 -114.4 123.7 -111.7 123.2 C-110.7 123.1 -109.8 122.9 -108.8 122.8 C-85.2 118.9 -61.7 114.9 -39.7 105.2 C-41 103.9 -42.3 102.6 -43.7 101.2 C-41.6 97 -41.1 96.6 -37.1 94.6 C-36.2 94.2 -35.3 93.7 -34.4 93.2 C-33.4 92.8 -32.5 92.3 -31.5 91.8 C-25.2 88.7 -19.3 85.5 -13.7 81.2 C-14.3 80.9 -15 80.6 -15.7 80.2 C-18.2 81.4 -20.7 82.6 -23.1 83.9 C-24.6 84.6 -26 85.4 -27.5 86.1 C-28.2 86.5 -28.9 86.8 -29.6 87.2 C-32.4 88.6 -35.2 90 -37.9 91.3 C-38.8 91.7 -39.6 92.1 -40.5 92.5 C-42.7 93.2 -42.7 93.2 -46.7 92.2 C-47 90.9 -47.3 89.6 -47.7 88.2 C-43.1 84 -37.9 82 -32.2 79.7 C-30.4 78.9 -28.5 78.1 -26.7 77.4 C-25.8 77 -25 76.6 -24.1 76.3 C-21.2 75 -18.4 73.7 -15.7 72.2 C-20 71.2 -20.4 71.3 -24.2 73 C-29 75.1 -33.9 76.4 -39 77.6 C-41.7 78.2 -41.7 78.2 -45.1 79.5 C-48.1 80.4 -49.8 80.4 -52.7 79.2 C-53.3 77.9 -54 76.6 -54.7 75.2 C-52.3 72.9 -50.2 72.5 -47 71.8 C-28.3 67.4 -11 60.2 6 51.4 C10.5 49.1 15 46.9 19.6 44.6 C21.4 43.7 23.3 42.7 25.2 41.8 C28.2 40.3 31.1 38.9 34 37.4 C40.3 34.3 46.4 31 52.3 27.2 C52 27.1 52 27.1 50.3 26.2 C48.2 27 48.2 27 45.5 28.2 C44.5 28.7 43.5 29.1 42.5 29.6 C41.4 30.1 40.4 30.6 39.2 31.1 C26.5 36.9 13.5 41.7 0.3 46.2 C-0.5 46.5 -1.2 46.8 -2 47.1 C-40.7 60.3 -40.7 60.3 -56.1 60.6 C-56.9 60.6 -56.9 60.6 -60.6 60.7 C-65.1 60.2 -67.2 59.1 -70.7 56.2 C-72.8 53.6 -73.8 52.2 -73.5 48.8 C-71.8 43.4 -66 40.6 -61.3 37.9 C-58.9 36.7 -56.5 35.7 -54 34.6 C-53.1 34.2 -52.2 33.9 -51.3 33.5 C-43.8 30.4 -36.1 28.4 -28.1 26.9 C-22.4 25.8 -17.7 24.4 -12.7 21.2 C-11.2 18.9 -11.2 18.9 -10.7 16.5 C-10.4 15.1 -10 13.7 -9.7 12.2 C-12.7 12.2 -12.7 12.2 -16.9 13.7 Z M-189.3 72.8 C-190.1 73.4 -190.9 74 -191.8 74.7 C-192.4 75.2 -193 75.7 -193.7 76.2 C-193 77.6 -192.4 78.9 -191.7 80.2 C-190.8 82.2 -189.9 84.1 -189 86 C-180.6 103.8 -171.9 120.6 -159.5 135.9 C-157.7 138.2 -157.7 138.2 -156.7 140.2 C-156 139.9 -156 139.9 -152.7 138.2 C-151.5 134.6 -152 133.6 -153.3 130.1 C-153.6 129.2 -154 128.3 -154.3 127.3 C-155.4 124.8 -156.6 122.7 -158.1 120.4 C-160.7 116.4 -162.4 112.3 -164 107.8 C-168.2 96.4 -173.6 85.8 -179.7 75.2 C-180.7 73.3 -181.7 71.3 -182.7 69.2 C-185.7 69.2 -187 70.9 -189.3 72.8 Z" transform="translate(327.625,44.6875)"/>
    </g>
  </g>
  <text x="400" y="450" font-family="EB Garamond, Garamond, serif" font-style="italic" font-size="14" fill="#1a1a1a" text-anchor="middle">Popularized by Andreas Antonopoulos starting late 2013 &#8212;</text>
  <text x="400" y="470" font-family="EB Garamond, Garamond, serif" font-style="italic" font-size="14" fill="#1a1a1a" text-anchor="middle">the phrase that names what bitcoin invites the user to become.</text>
  <line x1="280" y1="500" x2="520" y2="500" stroke="#1a1a1a" stroke-width="0.5"/>
  <text x="400" y="525" font-family="JetBrains Mono, monospace" font-size="10" fill="#1a1a1a" letter-spacing="1.5" text-anchor="middle">ANDREAS ANTONOPOULOS, POPULARIZER &#8212; CIRCA 2014</text>
  <text x="720" y="575" font-family="JetBrains Mono, monospace" font-size="9" fill="#1a1a1a" letter-spacing="1.5" text-anchor="end">bitcoinannotated.com</text>
</svg>
