<svg xmlns="http://www.w3.org/2000/svg" viewBox="0 0 800 600" width="800" height="600">
  <rect width="800" height="600" fill="#f8f4ed"/>
  <rect x="40" y="40" width="720" height="520" fill="none" stroke="#1a1a1a" stroke-width="1.5"/>
  <rect x="56" y="56" width="688" height="488" fill="none" stroke="#1a1a1a" stroke-width="0.5"/>

  <text x="80" y="100" font-family="JetBrains Mono, monospace" font-size="11" fill="#1a1a1a" letter-spacing="2.5">SPECIMEN &#8212; PHRASE</text>
  <line x1="80" y1="115" x2="220" y2="115" stroke="#d97706" stroke-width="1.5"/>

  <text x="720" y="100" font-family="JetBrains Mono, monospace" font-size="11" fill="#1a1a1a" letter-spacing="2" text-anchor="end">CAT. JULY 2019</text>

  <text x="400" y="295" font-family="EB Garamond, Garamond, serif" font-style="italic" font-size="86" fill="#1a1a1a" text-anchor="middle" font-weight="500">Bitcoin fixes <tspan fill="#d97706">this</tspan>.</text>

  <g transform="translate(336.30,355.00) scale(0.076104)">
    <metadata>
Created by potrace 1.16, written by Peter Selinger 2001-2019
</metadata>
<g transform="translate(0.000000,1314.000000) scale(0.100000,-0.100000)"
fill="#1a1a1a" stroke="none">
<path d="M4739 12979 c-28 -30 -49 -71 -131 -249 -19 -41 -56 -120 -82 -176
-25 -55 -46 -104 -46 -108 0 -4 -9 -20 -19 -35 -10 -14 -45 -78 -77 -141 -31
-63 -70 -133 -86 -155 -65 -91 -176 -276 -263 -440 -27 -49 -59 -104 -71 -120
-13 -17 -28 -52 -34 -78 -5 -26 -23 -71 -39 -100 -16 -29 -32 -70 -35 -92 -8
-49 -78 -277 -112 -363 -13 -34 -24 -69 -24 -76 0 -7 -13 -56 -29 -108 -16
-52 -44 -166 -63 -254 l-33 -159 3 -270 2 -270 31 -93 c37 -117 131 -313 176
-369 18 -23 48 -51 66 -62 19 -11 42 -36 52 -55 18 -33 18 -36 -3 -108 -11
-40 -34 -127 -51 -193 -16 -66 -39 -146 -50 -177 -11 -31 -27 -96 -36 -143 -8
-46 -37 -142 -64 -212 -27 -71 -54 -153 -61 -183 -6 -30 -25 -90 -41 -132 -17
-42 -52 -141 -79 -220 -95 -277 -100 -289 -208 -468 -62 -102 -73 -115 -100
-118 -32 -3 -21 -13 -237 211 -41 43 -96 109 -122 145 -25 37 -61 83 -79 102
-18 19 -92 152 -164 294 -72 143 -151 285 -176 316 -24 31 -44 65 -44 76 0 28
39 63 109 99 159 82 320 245 431 438 87 151 101 232 77 421 -22 178 -38 231
-107 373 -33 67 -60 129 -60 138 0 18 40 95 74 142 17 23 25 52 30 104 3 40
13 98 20 129 8 30 17 109 21 176 7 120 7 121 -25 200 -18 43 -47 121 -65 172
-52 145 -114 220 -264 316 -124 80 -350 147 -444 132 -73 -12 -238 -108 -304
-177 -164 -171 -161 -169 -190 -158 -16 6 -41 23 -58 38 -113 105 -316 190
-455 191 -58 0 -75 -4 -158 -47 -106 -54 -222 -163 -265 -250 -36 -72 -84
-221 -91 -282 -8 -78 -21 -88 -124 -93 -53 -3 -110 -13 -146 -26 -164 -59
-309 -209 -346 -356 -10 -39 -23 -83 -28 -97 -15 -38 -4 -303 15 -363 9 -27
45 -103 81 -168 56 -103 76 -129 155 -203 50 -47 108 -109 129 -137 57 -76
107 -126 156 -155 51 -30 62 -48 62 -105 0 -102 76 -240 162 -294 22 -14 47
-39 56 -57 27 -50 71 -85 116 -92 23 -4 68 -23 101 -43 l60 -37 130 0 c172 -1
327 -13 395 -32 62 -18 161 -21 268 -9 88 11 109 -3 143 -93 21 -58 52 -112
105 -184 17 -23 39 -57 48 -76 10 -18 34 -52 55 -75 20 -22 55 -70 76 -105 22
-35 74 -100 115 -145 41 -45 102 -114 135 -154 75 -92 338 -355 400 -402 25
-19 79 -63 118 -98 40 -35 90 -72 112 -84 21 -11 61 -35 87 -52 89 -58 116
-74 151 -85 103 -34 79 -102 -42 -118 -25 -3 -98 -20 -161 -38 -63 -19 -142
-40 -175 -49 -33 -8 -84 -22 -114 -30 -52 -15 -56 -15 -130 10 -42 14 -85 32
-96 38 -11 7 -51 21 -90 30 -442 110 -770 87 -1120 -79 -28 -13 -64 -27 -80
-30 -72 -17 -232 -100 -295 -154 -60 -52 -179 -168 -242 -236 -39 -43 -116
-108 -166 -139 -64 -40 -152 -106 -219 -163 -86 -75 -180 -148 -246 -190 -31
-21 -105 -73 -164 -115 -58 -43 -112 -78 -119 -78 -11 0 -14 -19 -14 -80 0
-94 1 -94 111 -61 35 11 93 22 127 26 70 8 208 46 342 94 104 37 191 51 332
51 87 0 122 5 189 26 50 16 122 29 188 34 58 4 122 15 141 23 19 8 67 18 105
21 40 4 91 17 120 31 212 100 284 134 386 180 64 29 162 82 217 119 56 36 136
85 179 108 43 23 98 57 123 75 101 75 138 100 215 140 186 99 262 131 375 157
63 15 196 55 295 88 155 52 193 62 270 65 l90 5 124 -94 c68 -51 176 -125 240
-164 64 -38 154 -101 200 -138 47 -37 98 -74 115 -83 66 -33 153 -89 194 -125
24 -20 65 -49 90 -64 26 -15 87 -64 136 -108 49 -45 123 -103 165 -131 86 -57
198 -186 256 -295 19 -36 43 -76 54 -90 51 -70 107 -170 141 -253 21 -50 56
-123 78 -162 73 -125 77 -134 66 -153 -10 -15 -43 -17 -335 -19 -178 -1 -360
-5 -404 -8 -110 -7 -256 -45 -341 -88 -38 -19 -97 -43 -130 -52 -61 -18 -140
-54 -184 -85 -73 -51 -123 -45 -185 20 -37 39 -115 79 -260 132 -146 54 -163
58 -248 47 -40 -5 -109 -13 -154 -19 -78 -9 -197 -49 -366 -124 -43 -19 -187
-116 -307 -206 -14 -11 -53 -35 -87 -55 -44 -25 -79 -57 -118 -105 -30 -38
-78 -88 -105 -112 -28 -24 -65 -65 -83 -93 -17 -27 -100 -129 -183 -225 -83
-97 -166 -203 -186 -236 -19 -33 -50 -80 -69 -105 -19 -25 -48 -80 -63 -123
-18 -49 -41 -89 -61 -109 -38 -38 -47 -53 -74 -135 -30 -89 -160 -348 -197
-392 -7 -8 -25 -40 -42 -70 -117 -219 -158 -285 -209 -335 -80 -78 -103 -113
-103 -157 0 -48 20 -88 60 -122 53 -44 83 -37 159 43 84 87 205 155 318 178
43 9 112 30 153 48 41 18 101 36 134 40 32 4 77 13 99 21 23 8 73 19 112 24
54 8 103 26 215 80 138 67 265 111 374 131 53 9 184 64 337 140 52 26 113 51
135 55 37 7 414 197 499 253 22 14 82 59 134 101 52 41 104 82 116 90 23 16
178 180 262 278 58 66 145 226 169 310 27 92 16 201 -29 292 -33 67 -67 173
-67 207 0 19 40 51 73 59 28 6 147 57 212 91 181 94 656 162 934 134 160 -17
210 -47 246 -148 36 -104 76 -204 135 -338 122 -279 115 -259 222 -640 25 -88
51 -189 58 -225 6 -36 24 -94 40 -130 15 -36 31 -94 34 -129 4 -35 15 -84 25
-110 10 -25 22 -75 25 -111 11 -98 45 -346 58 -418 15 -78 7 -94 -53 -105
-263 -49 -361 -77 -494 -142 -38 -19 -77 -35 -85 -35 -16 0 -231 -104 -272
-132 -14 -10 -71 -41 -125 -69 -54 -27 -147 -76 -208 -108 -113 -60 -135 -69
-315 -120 -58 -17 -139 -40 -180 -52 -41 -11 -113 -25 -159 -29 -78 -7 -87
-10 -113 -39 -49 -55 -34 -138 30 -170 18 -9 92 -10 310 -2 158 6 465 13 682
16 289 5 439 12 560 26 179 20 492 39 662 39 59 0 141 5 182 11 56 8 170 8
433 0 354 -11 390 -10 643 20 47 5 169 12 272 14 196 4 217 9 265 55 26 24 29
47 9 93 -21 49 -45 65 -121 77 -38 6 -89 20 -114 31 -24 10 -100 34 -170 53
-69 19 -173 52 -231 74 -58 22 -121 43 -140 47 -19 3 -78 28 -131 55 -53 27
-124 56 -159 65 -35 9 -104 37 -154 62 -65 33 -109 48 -159 54 -37 5 -89 18
-115 29 -25 11 -75 25 -110 30 -36 5 -69 13 -74 18 -14 14 -28 120 -28 217 0
105 -22 266 -49 374 -44 170 -81 332 -101 438 -11 61 -27 130 -35 153 -20 57
-19 93 4 114 23 20 168 96 184 96 7 0 53 20 102 44 50 24 124 57 165 74 41 16
100 40 130 52 30 12 75 27 100 32 41 9 132 31 300 73 95 24 199 35 440 45 241
10 244 9 256 -59 50 -306 163 -463 427 -595 43 -22 91 -54 107 -73 40 -45 61
-51 134 -38 49 9 75 8 131 -3 60 -13 106 -13 315 -3 540 27 533 27 725 71 218
49 246 56 355 76 47 9 114 24 150 35 36 11 151 37 256 58 166 34 210 47 320
97 71 31 167 69 214 84 47 15 101 35 120 43 60 26 342 75 468 82 141 7 161 39
85 132 -41 49 -131 100 -228 128 -97 29 -198 75 -236 110 -20 18 -54 38 -75
45 -32 10 -178 77 -292 133 -13 6 -28 19 -33 28 -13 25 -72 59 -127 74 -68 19
-187 72 -246 110 -28 18 -69 36 -91 40 -22 3 -50 13 -63 21 -13 9 -75 29 -138
45 -63 16 -146 45 -184 64 -71 36 -156 52 -455 85 -239 27 -753 -3 -843 -49
-9 -4 -39 -13 -67 -20 -168 -40 -288 -86 -330 -126 -23 -22 -79 -73 -124 -113
-56 -51 -94 -95 -123 -145 -23 -40 -55 -86 -72 -103 l-31 -31 -230 -7 c-286
-9 -516 -30 -589 -56 -30 -10 -77 -22 -103 -25 -94 -13 -379 -86 -438 -112
-33 -14 -100 -45 -150 -69 -139 -66 -257 -114 -281 -114 -30 0 -52 29 -74 96
-28 89 -58 172 -92 249 -46 104 -42 138 30 276 66 128 105 195 161 278 21 31
40 64 44 74 16 44 97 149 172 224 46 44 101 106 124 137 47 64 570 586 633
632 24 17 78 51 121 74 84 46 188 108 347 210 56 36 116 74 133 85 18 11 65
43 104 71 61 43 128 79 376 201 15 7 39 20 55 28 51 28 285 108 452 155 225
64 287 80 308 80 13 0 51 7 85 15 145 35 348 77 432 90 50 8 198 32 330 53
162 27 303 44 435 52 108 6 213 15 235 21 86 20 515 62 540 52 13 -4 45 -94
45 -126 0 -8 12 -32 26 -53 15 -21 35 -61 45 -89 10 -27 25 -70 34 -95 64
-179 213 -388 360 -508 69 -57 195 -142 269 -182 59 -33 139 -41 430 -44 234
-2 277 0 325 15 99 31 284 125 349 179 35 28 75 55 88 61 36 13 110 11 171 -5
29 -8 104 -17 167 -21 171 -11 267 17 366 106 221 199 280 296 306 500 24 184
15 364 -22 433 -14 28 -40 78 -56 110 -30 59 -76 111 -156 174 -58 46 -62 72
-23 142 30 56 31 60 31 186 -1 71 -5 149 -11 174 -5 25 -13 70 -17 100 -16
107 -113 243 -212 296 -25 14 -67 42 -94 64 -48 38 -165 87 -273 115 -28 7
-55 15 -60 18 -5 3 -10 57 -11 119 -1 93 -5 126 -26 186 -35 101 -52 125 -149
214 -103 94 -299 201 -388 213 -30 3 -86 13 -126 21 -179 35 -313 -2 -538
-150 -117 -77 -176 -131 -226 -204 -47 -71 -70 -82 -178 -82 -62 0 -103 -8
-220 -44 -138 -43 -146 -47 -199 -98 -139 -136 -283 -388 -297 -520 -3 -37
-13 -91 -21 -120 -17 -64 -18 -211 -2 -350 13 -123 47 -194 110 -234 47 -30
65 -63 49 -92 -9 -17 -23 -21 -83 -25 -40 -2 -176 -15 -303 -30 -126 -14 -324
-31 -440 -37 -120 -6 -249 -19 -302 -30 -51 -11 -141 -24 -200 -30 -60 -6
-148 -20 -198 -31 -49 -11 -121 -27 -159 -35 -181 -39 -395 -103 -511 -152
-128 -54 -164 -32 -117 74 17 38 50 116 73 174 72 184 97 244 123 303 27 61
61 150 77 204 12 41 48 69 96 76 21 4 54 18 73 32 18 14 39 25 46 25 7 0 34
16 60 36 26 20 61 41 78 47 17 5 51 27 76 47 25 21 68 53 96 71 28 19 79 57
112 84 33 28 87 65 120 83 75 42 219 166 253 218 14 21 39 58 55 82 16 24 40
63 54 87 14 25 39 68 57 97 36 62 76 216 93 363 7 55 13 102 15 105 2 3 8 77
15 165 6 88 18 201 26 250 8 50 25 191 39 315 28 252 43 339 86 486 16 56 29
110 29 120 0 19 4 28 113 254 36 74 75 159 87 188 11 30 31 70 45 90 47 69 19
138 -61 149 -36 5 -45 1 -78 -27 -21 -18 -48 -54 -61 -79 -12 -25 -33 -55 -45
-66 -12 -11 -29 -33 -37 -49 -24 -47 -117 -152 -259 -293 -75 -74 -143 -151
-155 -175 -12 -24 -54 -79 -94 -123 -69 -77 -158 -202 -182 -255 -6 -14 -36
-56 -68 -95 -31 -38 -63 -83 -72 -100 -8 -16 -34 -57 -56 -90 -44 -66 -148
-275 -196 -397 -17 -43 -44 -111 -60 -151 -16 -41 -52 -121 -79 -178 -81 -168
-122 -258 -162 -354 -21 -49 -63 -149 -94 -221 -31 -72 -60 -153 -65 -180 -5
-27 -24 -80 -41 -119 -53 -118 -87 -217 -95 -280 -4 -33 -18 -81 -31 -107 -13
-26 -36 -89 -50 -140 -14 -51 -32 -106 -40 -123 -8 -16 -20 -52 -28 -80 -8
-27 -26 -81 -41 -120 -15 -38 -31 -88 -37 -110 -6 -22 -28 -94 -49 -160 -21
-66 -41 -144 -45 -174 -12 -91 -53 -123 -249 -196 -55 -20 -120 -48 -145 -61
-25 -13 -65 -32 -90 -43 -25 -11 -61 -29 -80 -40 -36 -20 -299 -153 -445 -224
-87 -43 -134 -73 -243 -156 -41 -31 -88 -65 -106 -76 -59 -36 -197 -139 -269
-200 -38 -33 -90 -74 -116 -91 -56 -37 -233 -222 -272 -283 -16 -24 -43 -58
-61 -75 -18 -17 -41 -45 -50 -61 -10 -17 -49 -75 -88 -130 -84 -119 -164 -250
-175 -285 -4 -14 -22 -45 -39 -70 -18 -25 -49 -85 -70 -135 -21 -49 -44 -97
-52 -105 -23 -23 -50 14 -73 101 -28 105 -51 156 -118 255 -101 151 -112 168
-139 219 -15 28 -37 64 -49 80 -13 17 -34 53 -48 80 -14 28 -48 77 -76 110
-28 33 -66 80 -84 104 -121 166 -296 335 -519 499 -41 30 -58 49 -58 66 0 26
126 153 230 231 36 27 89 70 118 96 55 48 255 162 307 175 17 4 51 17 76 30
56 28 300 118 347 129 18 4 81 31 140 61 59 30 122 59 140 65 18 6 45 21 60
33 25 20 234 146 291 176 71 36 377 336 466 455 112 150 197 307 235 430 7 22
25 65 40 95 15 30 35 87 43 125 9 39 23 90 32 114 8 24 15 62 15 85 0 60 26
138 53 164 18 17 44 25 103 32 209 24 217 26 386 110 322 158 431 240 499 372
12 23 37 64 55 91 19 27 39 68 45 90 6 23 32 102 56 175 52 157 73 257 73 355
1 123 5 132 133 262 73 74 126 137 145 173 112 213 162 545 112 740 -30 116
-123 304 -164 333 -17 12 -47 42 -67 68 -27 34 -61 59 -130 96 l-94 50 -147 3
c-176 5 -242 -11 -353 -83 -97 -62 -134 -60 -151 10 -4 17 -18 43 -31 59 -13
16 -35 50 -48 75 -69 133 -197 231 -329 252 -32 6 -73 17 -90 27 -23 12 -64
17 -153 20 -182 6 -259 -7 -383 -66 -120 -57 -187 -118 -253 -233 -21 -36 -48
-78 -61 -94 l-23 -29 -146 14 c-188 17 -277 10 -369 -31 -115 -50 -185 -103
-215 -163 -14 -28 -44 -76 -67 -107 -82 -112 -116 -176 -116 -218 0 -19 -7
-64 -16 -99 -29 -117 -4 -306 64 -477 22 -55 52 -132 66 -171 15 -39 43 -98
63 -130 32 -51 36 -66 35 -114 -2 -36 8 -89 28 -155 16 -55 34 -135 39 -177 6
-42 19 -100 30 -128 22 -58 142 -279 176 -325 12 -16 29 -43 37 -60 9 -16 58
-75 109 -130 52 -55 106 -114 120 -132 15 -17 71 -55 125 -83 55 -29 115 -65
135 -80 42 -33 96 -50 162 -50 50 0 116 -22 129 -43 15 -24 7 -88 -22 -179
-16 -51 -36 -124 -45 -162 -15 -64 -133 -333 -160 -366 -7 -8 -22 -33 -33 -56
-11 -22 -37 -60 -57 -85 -87 -107 -103 -126 -160 -186 -60 -65 -283 -248 -352
-289 -64 -38 -242 -134 -249 -134 -3 0 -42 -16 -85 -35 -44 -19 -146 -53 -227
-74 -184 -49 -188 -51 -242 -96 -24 -20 -66 -48 -93 -62 -27 -13 -92 -53 -143
-88 -51 -36 -109 -72 -128 -82 -63 -33 -283 -252 -322 -321 -55 -98 -97 -112
-169 -58 -16 13 -82 48 -146 79 -109 53 -118 60 -133 97 -9 22 -22 42 -29 45
-6 2 -38 11 -69 19 -32 9 -76 31 -100 51 -24 19 -74 55 -112 81 -37 25 -91 63
-118 85 -27 21 -55 39 -61 39 -14 0 -124 79 -223 160 -37 30 -96 73 -133 95
-36 22 -80 60 -98 84 -37 48 -37 64 2 116 12 17 39 59 59 95 21 36 54 88 73
115 54 77 141 266 188 410 24 72 57 164 73 205 16 41 33 97 37 123 6 49 69
226 100 287 20 38 47 149 65 265 7 44 21 97 31 117 11 21 24 61 30 90 6 29 17
71 24 93 8 22 16 53 20 68 13 62 43 77 156 77 188 0 295 48 461 208 77 75 101
104 119 150 12 31 39 91 59 132 20 41 42 97 49 124 7 27 25 74 41 105 16 32
31 81 35 116 3 33 15 94 25 135 10 41 21 100 25 130 4 30 16 100 26 154 27
139 37 681 16 836 -8 58 -15 147 -16 199 -1 52 -9 124 -17 159 -14 60 -14 72
1 133 18 73 15 94 -21 149 -23 35 -45 121 -65 250 -16 106 -29 200 -40 280 -5
41 -16 122 -25 180 -8 58 -18 157 -23 221 -9 126 -24 168 -66 187 -46 21 -84
15 -116 -19z m2831 -1404 c185 -32 285 -127 335 -320 17 -68 20 -138 5 -165
-15 -27 -42 -40 -109 -51 -104 -16 -259 -98 -296 -156 -48 -74 -77 -71 -173
20 -88 82 -125 98 -236 103 -73 4 -116 28 -116 65 0 9 -18 44 -40 77 -53 79
-52 96 18 181 31 38 69 88 85 111 79 117 301 174 527 135z m-3212 -37 c7 -7
12 -36 12 -66 0 -89 -29 -117 -69 -66 -38 48 -14 136 40 143 3 1 10 -4 17 -11z
m342 -43 c27 -33 -40 -95 -104 -95 -54 0 -34 55 34 91 42 23 54 23 70 4z
m-465 -256 c58 -70 83 -149 46 -149 -18 0 -84 77 -111 128 -28 55 22 71 65 21z
m4455 14 c90 -36 192 -158 220 -262 6 -25 22 -65 35 -90 56 -112 56 -382 1
-507 -14 -33 -30 -81 -36 -109 -13 -59 -52 -130 -77 -139 -22 -9 -43 18 -43
54 0 46 -39 143 -83 205 -50 70 -97 99 -181 114 -74 13 -99 38 -115 113 -21
97 -93 214 -183 298 -100 93 -100 100 8 191 119 100 145 118 204 133 70 18
204 18 250 -1z m-3962 -15 c30 -30 -6 -108 -49 -108 -9 0 -48 -16 -84 -36 -71
-37 -95 -38 -95 -4 0 37 18 58 83 96 119 71 124 73 145 52z m1893 -44 c41 -19
65 -38 84 -65 31 -48 65 -132 65 -162 0 -22 -71 -104 -115 -133 -13 -8 -43
-47 -66 -86 -37 -63 -43 -82 -50 -157 -20 -206 -22 -209 -126 -241 -71 -22
-130 -56 -190 -111 -72 -65 -98 -51 -153 83 -21 51 -48 144 -61 207 -24 124
-26 107 22 300 4 18 19 50 32 70 13 20 33 50 43 67 96 160 153 210 263 235
114 26 182 24 252 -7z m-4242 -221 c139 -68 258 -172 287 -251 10 -26 25 -58
33 -71 18 -29 57 -119 78 -181 17 -53 11 -325 -10 -388 -19 -58 -74 -51 -107
14 -90 182 -179 278 -306 333 -109 46 -178 51 -267 17 -75 -29 -132 -34 -140
-12 -11 29 12 241 33 301 19 56 114 194 152 223 10 7 18 19 18 27 0 7 12 23
27 35 37 29 60 23 202 -47z m1723 45 c8 -7 25 -29 38 -48 13 -19 43 -56 67
-82 46 -50 54 -85 28 -112 -23 -22 -38 -12 -108 74 -67 82 -89 138 -66 166 14
17 21 18 41 2z m644 -104 c11 -42 -23 -75 -113 -111 -45 -18 -102 -46 -129
-63 -73 -46 -94 -39 -94 32 0 41 42 80 115 107 33 12 86 35 119 51 65 33 91
29 102 -16z m-3437 -29 c138 -66 351 -257 351 -316 0 -35 -5 -35 -85 -8 l-62
21 -59 -30 c-33 -17 -75 -37 -94 -45 -59 -24 -163 -134 -197 -207 -44 -93 -54
-100 -109 -70 -68 35 -161 148 -169 204 -10 66 -1 133 27 201 14 33 33 81 42
106 24 66 77 123 149 159 75 38 98 36 206 -15z m6742 -23 c60 -39 71 -54 118
-152 47 -99 74 -194 66 -232 -4 -16 -22 -36 -45 -52 -21 -14 -101 -86 -176
-161 -76 -74 -143 -135 -149 -135 -19 0 -40 30 -75 109 -29 62 -48 86 -133
166 -92 86 -100 96 -104 138 -11 94 45 174 174 249 107 63 115 66 175 82 77
21 99 19 149 -12z m-861 -41 c71 -36 160 -202 160 -298 0 -37 -29 -63 -71 -63
-32 0 -138 -70 -182 -120 -17 -20 -54 -65 -80 -99 -55 -69 -67 -73 -94 -33
-23 35 -85 91 -140 126 -80 49 -100 117 -67 223 31 97 103 178 209 236 108 60
187 68 265 28z m-3172 -68 c33 -30 130 -150 147 -183 18 -34 17 -101 -2 -107
-6 -2 -54 39 -106 91 -102 101 -122 140 -98 192 13 28 31 31 59 7z m692 -148
c0 -21 -32 -43 -102 -69 -38 -14 -97 -37 -133 -51 -77 -29 -93 -31 -102 -10
-12 34 56 72 262 146 50 18 75 13 75 -16z m-763 -162 c63 -67 155 -197 170
-239 30 -89 -8 -153 -54 -89 -10 14 -39 54 -65 88 -128 167 -152 213 -137 255
12 33 47 27 86 -15z m-2330 -103 c32 -18 75 -49 96 -68 l37 -36 0 -117 c0
-133 0 -134 -81 -123 -27 4 -91 1 -142 -6 -118 -16 -124 -13 -176 94 -55 114
-55 148 2 218 24 29 54 59 68 66 40 22 129 9 196 -28z m3061 -5 c5 -67 -27
-102 -123 -136 -44 -15 -106 -37 -138 -48 -78 -29 -112 -11 -100 52 6 33 73
94 110 102 16 4 66 21 113 40 112 44 134 43 138 -10z m-2321 -113 c87 -87 118
-138 163 -265 36 -103 41 -87 -83 -274 -92 -140 -108 -151 -150 -102 -106 126
-187 210 -220 229 -21 12 -56 39 -78 59 l-39 38 0 101 c0 167 27 202 205 268
103 38 113 35 202 -54z m6189 46 c28 -26 39 -48 54 -108 29 -112 24 -160 -31
-266 -10 -21 -19 -44 -19 -51 0 -7 -27 -41 -61 -77 -55 -59 -70 -69 -164 -106
-57 -22 -113 -40 -125 -40 -12 0 -31 -5 -43 -12 -22 -12 -147 -45 -203 -55
-61 -10 -63 13 -24 232 5 28 11 66 14 85 16 98 277 361 391 396 25 7 53 18 63
23 9 6 38 11 65 11 40 0 53 -5 83 -32z m-1007 -26 c37 -27 93 -128 133 -235
33 -92 33 -92 33 -277 l0 -185 -35 -17 c-28 -14 -79 -18 -272 -24 -299 -9
-288 -13 -288 115 0 51 -9 135 -21 193 -32 159 -9 258 76 337 108 100 301 148
374 93z m-6950 -32 c60 -23 88 -41 120 -76 45 -50 48 -60 26 -119 -9 -24 -18
-106 -23 -208 l-8 -167 -51 -53 c-39 -39 -58 -69 -77 -122 -24 -67 -46 -95
-72 -95 -47 0 -169 175 -221 316 -35 95 -37 104 -37 234 -1 126 1 139 25 191
31 65 75 97 159 115 76 17 72 17 159 -16z m6041 -25 c23 -8 60 -31 81 -50 22
-19 43 -35 48 -35 24 0 110 -168 126 -245 8 -43 21 -87 27 -98 17 -32 23 -194
8 -212 -22 -26 -69 -16 -325 70 -38 13 -83 27 -100 30 -52 11 -274 126 -295
153 -58 73 23 219 188 337 87 62 163 78 242 50z m-2772 -54 c9 -10 42 -51 72
-91 30 -40 71 -93 91 -117 37 -46 49 -79 49 -139 0 -42 -19 -54 -39 -25 -9 13
-55 66 -103 118 -93 101 -128 159 -128 210 0 63 23 81 58 44z m-2779 -105 c61
-32 181 -202 181 -257 0 -40 -24 -85 -50 -92 -11 -3 -44 1 -73 9 -28 8 -88 19
-132 24 -113 14 -119 22 -123 159 -4 124 -9 115 92 151 64 23 70 23 105 6z
m3539 -16 c6 -54 -28 -84 -139 -124 -129 -47 -170 -54 -192 -31 -45 44 -1 110
83 125 30 5 84 21 120 34 84 32 124 30 128 -4z m-2826 -211 c132 -67 286 -196
325 -274 8 -16 26 -44 39 -62 24 -31 30 -68 16 -89 -4 -6 -32 -29 -62 -51 -30
-22 -62 -48 -69 -57 -8 -10 -56 -47 -105 -82 -50 -35 -103 -74 -117 -85 -40
-32 -65 -18 -98 54 -15 34 -38 71 -51 82 -47 42 -210 283 -210 312 0 22 79
181 106 212 66 78 128 89 226 40z m2076 -92 c2 -19 -1 -27 -12 -27 -18 0 -35
29 -29 48 9 23 38 8 41 -21z m628 8 c10 -25 -6 -67 -36 -95 -28 -26 -158 -80
-193 -80 -29 0 -43 45 -25 83 13 28 27 36 119 69 120 42 128 43 135 23z m-517
-150 c32 -37 39 -72 21 -105 -14 -27 -37 -15 -60 31 -24 45 -27 109 -6 109 8
0 28 -16 45 -35z m-2739 -66 c20 -12 45 -35 55 -52 10 -18 53 -75 95 -127 42
-52 87 -113 100 -135 13 -22 39 -57 57 -78 55 -61 41 -90 -57 -122 -41 -14
-79 -18 -150 -15 -146 4 -218 3 -307 -5 l-82 -7 -33 35 c-18 20 -53 45 -78 55
-61 26 -107 66 -115 100 -6 30 24 142 56 204 39 77 124 151 194 169 56 15 224
1 265 -22z m3097 -104 c8 -23 -24 -53 -69 -66 -51 -13 -80 -4 -76 24 6 43 130
79 145 42z m8588 -573 c191 -59 357 -218 384 -367 15 -80 1 -155 -43 -243 -50
-98 -74 -104 -174 -41 -112 71 -214 99 -359 99 -81 0 -146 -6 -188 -16 -81
-20 -109 -14 -126 28 -7 18 -52 74 -99 123 -141 146 -141 147 -44 221 36 27
83 64 106 82 48 38 92 63 198 109 73 33 78 33 180 28 59 -3 131 -13 165 -23z
m-840 -406 c149 -71 233 -237 223 -443 -3 -69 -9 -97 -26 -124 -12 -19 -33
-56 -47 -83 -25 -46 -146 -176 -164 -176 -22 0 -45 43 -134 245 -39 89 -144
431 -154 500 -5 40 -3 47 25 74 30 30 32 31 129 31 82 0 106 -4 148 -24z m802
-352 c40 -19 76 -34 81 -34 24 0 222 -201 222 -226 0 -2 7 -29 15 -60 20 -77
5 -172 -37 -229 -80 -112 -129 -163 -170 -178 -24 -9 -67 29 -88 78 -21 49
-73 89 -212 163 -90 48 -102 52 -167 52 -110 0 -123 14 -75 78 59 76 83 192
65 302 -16 96 -9 100 162 93 124 -5 136 -7 204 -39z m627 7 c3 -4 20 -11 37
-15 49 -10 200 -81 276 -130 122 -79 145 -135 159 -394 l7 -123 -37 -53 c-43
-62 -149 -156 -177 -156 -21 0 -35 13 -99 93 -26 33 -55 59 -70 62 -14 3 -54
13 -90 22 -36 9 -92 19 -125 21 -33 2 -66 9 -73 15 -17 14 -9 59 18 97 43 60
51 199 21 344 -22 104 -20 112 42 179 44 46 95 64 111 38z m-924 -643 c55 -16
134 -67 157 -101 12 -18 30 -64 39 -104 17 -70 17 -72 -4 -140 -13 -37 -36
-90 -52 -118 -16 -27 -40 -72 -55 -98 -14 -27 -53 -82 -87 -123 -50 -62 -65
-75 -86 -72 -14 2 -28 10 -33 18 -27 53 -78 169 -84 190 -4 14 -15 39 -25 55
-11 17 -33 66 -50 110 -18 44 -51 121 -75 170 -23 50 -45 99 -49 111 -11 36
22 62 99 80 39 8 93 21 120 29 52 13 125 11 185 -7z m890 -251 c98 -55 128
-122 109 -246 -14 -94 -73 -197 -172 -303 -44 -48 -57 -48 -112 6 -57 56 -100
72 -258 95 -160 22 -173 32 -131 92 70 99 84 124 84 147 0 14 9 56 20 93 24
80 36 91 149 131 114 41 221 36 311 -15z m568 -134 c16 -21 57 -88 91 -148
l61 -111 0 -86 c0 -157 -18 -289 -45 -323 -13 -17 -30 -47 -38 -66 -27 -66
-73 -108 -210 -193 -64 -39 -193 -62 -293 -51 -101 11 -101 10 -108 214 l-5
175 94 96 c86 87 98 105 130 183 19 48 40 119 45 158 15 104 27 119 94 119 24
0 41 9 66 35 46 48 79 47 118 -2z m-1045 -507 c38 -7 80 -22 95 -33 15 -11 39
-24 52 -28 32 -10 148 -129 156 -159 15 -60 -56 -242 -105 -270 -9 -5 -38 -33
-66 -62 -96 -100 -129 -101 -224 -5 -79 79 -152 174 -188 246 -14 28 -48 82
-75 122 -72 104 -68 117 47 154 50 16 101 33 115 38 37 13 116 12 193 -3z
m-9169 -2225 c17 -11 50 -24 72 -30 54 -14 73 -36 52 -58 -20 -19 -44 -12 -93
27 -21 17 -45 30 -54 30 -25 0 -55 25 -47 38 10 17 34 15 70 -7z m-214 -91
c139 -48 230 -86 230 -99 0 -12 -16 -23 -87 -55 l-61 -29 -44 23 c-24 12 -97
42 -163 67 -165 61 -186 87 -99 118 61 22 96 18 224 -25z m5734 -16 c4 -11
-10 -33 -46 -68 -29 -28 -87 -88 -129 -134 -73 -79 -77 -82 -120 -82 -25 0
-54 6 -65 14 -18 13 -12 21 106 141 69 70 134 131 145 135 36 16 102 12 109
-6z m376 -14 c39 -21 24 -44 -121 -192 -94 -96 -133 -118 -212 -118 -52 0 -77
12 -77 36 0 14 255 275 284 291 20 11 92 1 126 -17z m-790 -47 c0 -20 -104
-122 -167 -166 -67 -46 -182 -54 -207 -14 -13 20 32 72 70 81 14 4 68 27 122
53 131 62 182 75 182 46z m1201 -12 c22 -18 22 -19 6 -45 -10 -14 -21 -26 -26
-26 -13 0 -165 -151 -180 -178 -21 -40 -70 -62 -136 -62 -101 0 -108 24 -32
109 28 32 81 91 116 131 35 39 73 76 85 80 41 17 142 11 167 -9z m-6902 -47
c47 -15 111 -39 141 -54 30 -15 72 -30 93 -33 73 -11 90 -53 35 -88 -45 -27
-81 -21 -219 36 -63 26 -136 51 -164 57 -104 21 -110 23 -113 46 -4 29 50 62
102 62 21 0 77 -12 125 -26z m7225 -20 c26 -25 19 -41 -37 -83 -68 -50 -117
-98 -142 -142 -34 -57 -153 -79 -163 -29 -1 8 53 72 120 143 119 124 124 127
165 127 24 0 48 -7 57 -16z m-6330 -56 c12 -17 16 -48 16 -123 0 -108 -13
-150 -45 -150 -21 0 -22 6 -9 82 5 33 2 49 -15 78 -33 56 -19 135 24 135 8 0
21 -10 29 -22z m6607 -38 c33 -18 22 -47 -33 -88 -29 -22 -68 -56 -86 -76 -18
-19 -43 -38 -56 -42 -76 -19 -101 26 -39 73 20 15 58 48 83 72 76 73 93 81
131 61z m-7777 -74 c44 -13 101 -27 126 -31 24 -3 78 -18 118 -32 81 -29 91
-48 40 -86 -32 -24 -102 -14 -268 38 -58 19 -123 37 -145 42 -48 10 -58 40
-26 72 27 27 55 26 155 -3z m923 -37 c25 -77 42 -342 21 -355 -21 -13 -38 28
-38 91 0 34 -7 84 -15 111 -15 50 -21 175 -8 188 13 13 28 -1 40 -35z m7163 8
c29 -14 37 -41 20 -62 -17 -20 -168 -67 -191 -60 -25 8 -24 22 8 64 52 71 103
89 163 58z m-7391 -91 c7 -8 14 -39 17 -68 2 -29 11 -129 20 -221 9 -92 13
-179 10 -192 -12 -48 -81 -57 -90 -12 -2 12 -9 83 -15 157 -6 74 -18 159 -26
189 -20 63 -13 112 17 141 26 24 51 26 67 6z m4827 -24 c18 -11 34 -48 34 -76
0 -50 -77 -22 -95 34 -11 36 29 64 61 42z m291 -24 c23 -25 103 -192 103 -216
0 -19 -69 -11 -105 12 -23 15 -90 130 -101 174 -14 51 63 73 103 30z m311 -11
c12 -13 33 -50 46 -83 12 -33 40 -84 60 -114 57 -82 36 -131 -40 -94 -34 17
-46 33 -96 134 -32 63 -58 124 -58 135 0 47 52 60 88 22z m-6328 -21 c126 -27
225 -58 244 -77 19 -18 19 -19 1 -39 -22 -24 -62 -26 -113 -4 -20 8 -77 24
-126 35 -48 11 -97 24 -107 30 -24 12 -25 45 -1 58 22 14 26 13 102 -3z m6612
5 c31 -12 97 -79 109 -111 6 -14 28 -55 50 -92 34 -57 39 -70 29 -88 -9 -17
-19 -20 -48 -18 -34 3 -40 9 -80 73 -64 106 -115 213 -108 230 6 17 15 19 48
6z m401 -71 c31 -25 107 -170 107 -205 0 -17 -8 -29 -25 -37 -36 -16 -69 10
-106 85 -17 34 -40 74 -50 89 -48 68 8 119 74 68z m-6369 -63 c13 -62 26 -388
17 -405 -21 -39 -90 -92 -120 -92 -39 0 -45 12 -48 90 -1 36 -7 118 -13 183
-7 65 -9 129 -6 142 3 13 33 46 67 74 65 55 93 57 103 8z m6769 -5 c54 -24 90
-80 70 -110 -17 -27 -105 -23 -137 7 -32 30 -66 99 -59 118 8 20 63 13 126
-15z m358 -20 c40 -33 3 -76 -47 -53 -30 13 -40 37 -24 56 17 20 43 19 71 -3z
m-7856 -62 c100 -13 115 -18 115 -35 0 -17 -67 -70 -98 -78 -31 -8 -187 17
-206 33 -47 38 9 105 79 95 17 -2 66 -9 110 -15z m383 -153 c6 -7 14 -86 18
-177 8 -192 8 -191 -89 -229 -86 -34 -87 -32 -87 164 l0 162 50 47 c50 47 87
58 108 33z m-602 -84 c35 -13 -16 -73 -62 -73 -67 0 -103 41 -64 72 23 19 79
19 126 1z m275 -150 c3 -90 -4 -234 -12 -259 -12 -39 -60 -64 -84 -44 -12 10
-15 37 -15 119 0 99 2 110 25 142 43 57 84 78 86 42z m-483 -66 c6 -52 -61
-90 -96 -55 -35 35 7 91 63 86 25 -2 31 -8 33 -31z m190 -159 c7 -7 12 -40 12
-79 0 -57 -4 -72 -23 -95 -52 -60 -89 26 -56 127 17 50 44 70 67 47z m-248
-237 c0 -55 -100 -110 -117 -64 -8 20 67 93 97 93 15 0 20 -6 20 -29z"/>
<path d="M15756 8804 c-30 -29 -11 -61 48 -84 59 -22 89 23 50 78 -18 26 -74
30 -98 6z"/>
<path d="M15870 8360 c-26 -26 -25 -46 5 -75 46 -46 115 -22 115 41 0 50 -81
73 -120 34z"/>
</g>
  </g>

  <text x="400" y="495" font-family="EB Garamond, Garamond, serif" font-style="italic" font-size="14" fill="#1a1a1a" text-anchor="middle">The bitcoiner&#8217;s most flexible phrase &#8212; earnest claim and self-aware shitpost,</text>
  <text x="400" y="515" font-family="EB Garamond, Garamond, serif" font-style="italic" font-size="14" fill="#1a1a1a" text-anchor="middle">same sentence, both meanings.</text>

  <text x="400" y="545" font-family="JetBrains Mono, monospace" font-size="10" fill="#1a1a1a" letter-spacing="1.5" text-anchor="middle">STEPHAN LIVERA, X &#8212; JULY 26, 2019</text>

  <text x="720" y="575" font-family="JetBrains Mono, monospace" font-size="9" fill="#1a1a1a" letter-spacing="1.5" text-anchor="end">bitcoinannotated.com</text>
</svg>
