<svg xmlns="http://www.w3.org/2000/svg" viewBox="0 0 800 600" width="800" height="600">
  <rect width="800" height="600" fill="#f8f4ed"/>
  <rect x="40" y="40" width="720" height="520" fill="none" stroke="#1a1a1a" stroke-width="1.5"/>
  <rect x="56" y="56" width="688" height="488" fill="none" stroke="#1a1a1a" stroke-width="0.5"/>

  <text x="80" y="100" font-family="JetBrains Mono, monospace" font-size="11" fill="#1a1a1a" letter-spacing="2.5">SPECIMEN — PHRASE</text>
  <line x1="80" y1="115" x2="220" y2="115" stroke="#d97706" stroke-width="1.5"/>

  <text x="720" y="100" font-family="JetBrains Mono, monospace" font-size="11" fill="#1a1a1a" letter-spacing="2" text-anchor="end">CAT. CIRCA 2020</text>

  <text x="400" y="320" font-family="EB Garamond, Garamond, serif" font-style="italic" font-size="78" fill="#1a1a1a" text-anchor="middle" font-weight="500">The <tspan fill="#d97706">Cantillon</tspan> Effect.</text>

  <g fill="none" stroke="#1a1a1a" stroke-linecap="round">
    <path d="M349,374 Q 368,367 388,373" stroke-width="4"/>
    <path d="M388,373 Q 406,379 424,374" stroke-width="2.6"/>
    <path d="M424,374 Q 440,371 454,374" stroke-width="1.5"/>
    <path d="M454,374 Q 464,375 471,373" stroke-width="0.8"/>
    <path d="M364,371 Q 366,383 368,392" stroke-width="3"/>
    <path d="M368,392 Q 367,397 366,401" stroke-width="1.3"/>
    <path d="M368,392 Q 372,397 375,400" stroke-width="1.3"/>
    <path d="M366,401 Q 365,404 365,406" stroke-width="0.8"/>
    <path d="M375,400 Q 377,403 378,405" stroke-width="0.8"/>
    <path d="M398,372 Q 399,362 401,353" stroke-width="1.8"/>
    <path d="M401,353 Q 400,348 399,345" stroke-width="0.9"/>
    <path d="M401,353 Q 404,349 406,346" stroke-width="0.9"/>
    <path d="M399,345 Q 398,342 398,340" stroke-width="0.8"/>
    <path d="M406,346 Q 408,343 409,341" stroke-width="0.8"/>
    <path d="M436,374 Q 437,384 439,392" stroke-width="1"/>
    <path d="M439,392 Q 438,396 438,399" stroke-width="0.8"/>
    <path d="M439,392 Q 441,395 443,398" stroke-width="0.8"/>
  </g>
  <circle cx="344" cy="374" r="5" fill="#d97706" stroke="#1a1a1a" stroke-width="0.8"/>

  <text x="400" y="430" font-family="EB Garamond, Garamond, serif" font-style="italic" font-size="14" fill="#1a1a1a" text-anchor="middle">Newly issued money is not neutral: those nearest its source</text>
  <text x="400" y="450" font-family="EB Garamond, Garamond, serif" font-style="italic" font-size="14" fill="#1a1a1a" text-anchor="middle">spend first, while those farthest are paid in money already diluted.</text>

  <line x1="280" y1="485" x2="520" y2="485" stroke="#1a1a1a" stroke-width="0.5"/>

  <text x="400" y="510" font-family="JetBrains Mono, monospace" font-size="10" fill="#1a1a1a" letter-spacing="1.5" text-anchor="middle">RICHARD CANTILLON, ESSAI SUR LE COMMERCE — 1755 (POSTHUMOUS)</text>
  <text x="400" y="530" font-family="JetBrains Mono, monospace" font-size="10" fill="#1a1a1a" letter-spacing="1.5" text-anchor="middle">ABSORBED VIA AMMOUS, THE BITCOIN STANDARD — 2018</text>

  <text x="720" y="575" font-family="JetBrains Mono, monospace" font-size="9" fill="#1a1a1a" letter-spacing="1.5" text-anchor="end">bitcoinannotated.com</text>
</svg>
