<svg xmlns="http://www.w3.org/2000/svg" viewBox="0 0 800 600" width="800" height="600">
  <rect width="800" height="600" fill="#f8f4ed"/>
  <rect x="40" y="40" width="720" height="520" fill="none" stroke="#1a1a1a" stroke-width="1.5"/>
  <rect x="56" y="56" width="688" height="488" fill="none" stroke="#1a1a1a" stroke-width="0.5"/>

  <text x="80" y="100" font-family="JetBrains Mono, monospace" font-size="11" fill="#1a1a1a" letter-spacing="2.5">SPECIMEN &#8212; PHRASE</text>
  <line x1="80" y1="115" x2="220" y2="115" stroke="#d97706" stroke-width="1.5"/>

  <text x="720" y="100" font-family="JetBrains Mono, monospace" font-size="11" fill="#1a1a1a" letter-spacing="2" text-anchor="end">CAT. AUGUST 2013</text>

  <text x="400" y="265" font-family="EB Garamond, Garamond, serif" font-style="italic" font-size="76" fill="#d97706" text-anchor="middle" font-weight="500">the citadel.</text>

  <g transform="translate(371.22,307.50) scale(0.127907)">
    <metadata>
Created by potrace 1.16, written by Peter Selinger 2001-2019
</metadata>
<g transform="translate(0.000000,430.000000) scale(0.100000,-0.100000)"
fill="#1a1a1a" stroke="none">
<path d="M2387 4099 c-77 -41 -183 -127 -221 -180 -54 -72 -114 -149 -162
-206 -57 -68 -67 -94 -103 -268 -25 -118 -27 -236 -6 -389 21 -165 20 -168
-250 -306 -129 -66 -163 -89 -243 -167 -45 -44 -80 -88 -93 -118 -12 -27 -35
-67 -50 -88 -16 -22 -29 -45 -29 -52 0 -22 -46 -55 -76 -55 -16 0 -49 12 -74
26 -25 15 -59 31 -75 38 -65 24 -133 75 -233 175 -89 88 -111 116 -147 190
-82 167 -83 234 -5 395 42 88 61 113 145 199 53 53 109 104 125 112 52 27 52
89 0 100 -65 14 -111 -13 -270 -158 -94 -85 -145 -151 -188 -242 -69 -143 -79
-218 -47 -345 37 -152 93 -238 266 -411 135 -134 168 -156 359 -230 137 -54
135 -51 145 -199 8 -109 58 -242 108 -289 16 -14 33 -36 38 -49 12 -31 -13
-89 -44 -101 -14 -5 -35 -23 -48 -39 -13 -16 -39 -37 -56 -46 -18 -9 -79 -54
-136 -100 -56 -46 -114 -87 -127 -91 -14 -4 -61 -24 -105 -45 -94 -45 -160
-60 -256 -60 -64 0 -77 4 -177 55 -68 35 -124 73 -154 103 -26 26 -58 57 -70
68 -13 12 -33 33 -46 47 -12 14 -36 30 -52 36 l-30 10 0 -140 c0 -105 3 -139
13 -139 6 0 34 -20 60 -45 27 -25 53 -45 57 -45 5 0 30 -18 55 -40 77 -67 125
-85 277 -105 169 -22 238 -12 401 59 103 45 144 70 271 168 126 99 159 125
237 191 86 71 103 77 140 49 106 -79 338 -189 419 -198 132 -15 154 -55 154
-274 -1 -211 -22 -299 -106 -442 -66 -112 -123 -179 -174 -203 -28 -13 -46
-14 -111 -5 -271 38 -353 22 -353 -70 0 -53 25 -77 87 -85 26 -3 75 -13 108
-23 39 -11 96 -17 165 -17 105 0 105 0 190 45 138 72 228 177 312 363 38 85
43 106 66 287 21 165 23 204 13 251 -24 118 -12 142 84 160 111 20 364 161
460 255 56 55 86 74 115 74 65 0 234 -114 309 -207 21 -26 62 -70 91 -98 105
-101 154 -243 154 -450 1 -135 0 -142 -27 -187 -15 -26 -48 -61 -73 -79 -73
-50 -89 -136 -35 -190 67 -66 179 -3 261 146 71 130 80 150 80 182 0 19 5 66
11 104 9 60 8 86 -11 182 -12 62 -26 135 -31 164 -6 29 -21 68 -35 88 -13 20
-33 54 -45 76 -11 22 -80 100 -152 173 -131 132 -232 208 -301 227 -19 5 -49
23 -66 39 -28 26 -31 35 -27 67 3 21 15 103 26 183 37 253 29 365 -33 457 -42
61 -37 71 77 167 86 73 129 100 277 175 96 48 186 91 200 94 48 12 314 10 359
-2 52 -15 136 -74 180 -128 51 -62 66 -122 64 -251 -2 -100 -1 -114 17 -132
46 -46 137 -31 178 30 23 33 24 42 20 160 -4 124 -4 126 -41 190 -108 184
-158 235 -293 297 l-69 32 -200 3 c-191 3 -204 1 -297 -24 -126 -35 -235 -89
-348 -172 -30 -22 -80 -59 -111 -81 -32 -22 -72 -52 -91 -67 -65 -52 -85 -49
-169 27 -110 99 -294 187 -439 210 -276 42 -255 21 -255 267 0 329 23 384 269
634 79 81 141 135 156 138 14 3 51 8 82 11 63 7 150 56 156 87 8 42 -111 95
-233 104 -55 4 -66 1 -138 -37z"/>
</g>
  </g>

  <text x="400" y="395" font-family="EB Garamond, Garamond, serif" font-style="italic" font-size="16" fill="#1a1a1a" text-anchor="middle">&#8220;I am sending this message from the year 2025.&#8221;</text>

  <line x1="280" y1="440" x2="520" y2="440" stroke="#1a1a1a" stroke-width="0.5"/>

  <text x="400" y="480" font-family="JetBrains Mono, monospace" font-size="10" fill="#1a1a1a" letter-spacing="1.5" text-anchor="middle">SOURCE: REDDIT R/BITCOIN, USER LUKA_MAGNOTTA</text>
  <text x="400" y="505" font-family="JetBrains Mono, monospace" font-size="10" fill="#1a1a1a" letter-spacing="1.5" text-anchor="middle">USAGE: BITCOIN&#8217;S LONGEST-RUNNING THOUGHT EXPERIMENT</text>

  <text x="720" y="575" font-family="JetBrains Mono, monospace" font-size="9" fill="#1a1a1a" letter-spacing="1.5" text-anchor="end">bitcoinannotated.com</text>
</svg>
