<svg xmlns="http://www.w3.org/2000/svg" viewBox="0 0 800 600" width="800" height="600">
  <rect width="800" height="600" fill="#f8f4ed"/>
  <rect x="40" y="40" width="720" height="520" fill="none" stroke="#1a1a1a" stroke-width="1.5"/>
  <rect x="56" y="56" width="688" height="488" fill="none" stroke="#1a1a1a" stroke-width="0.5"/>
  <text x="80" y="100" font-family="JetBrains Mono, monospace" font-size="11" fill="#1a1a1a" letter-spacing="2.5">SPECIMEN &#8212; PHRASE</text>
  <line x1="80" y1="115" x2="220" y2="115" stroke="#d97706" stroke-width="1.5"/>
  <text x="720" y="100" font-family="JetBrains Mono, monospace" font-size="11" fill="#1a1a1a" letter-spacing="2" text-anchor="end">CAT. CIRCA 2014</text>
  <text x="400" y="270" font-family="EB Garamond, Garamond, serif" font-style="italic" font-size="76" fill="#1a1a1a" text-anchor="middle" font-weight="500">don&#8217;t trust,</text>
  <text x="400" y="355" font-family="EB Garamond, Garamond, serif" font-style="italic" font-size="76" fill="#d97706" text-anchor="middle" font-weight="500">verify.</text>
  <g transform="translate(280.00,396.01) scale(0.1865)">
    <path d="M70.0 80.7 Q70.4 77.1 73.7 75.0 Q76.9 72.8 81.5 71.2 Q86.0 69.6 90.5 71.3 Q95.0 73.0 99.3 76.4 Q103.5 79.7 105.1 84.2 Q106.7 88.6 105.0 92.7 Q103.4 96.9 99.4 100.1 Q95.4 103.4 90.4 104.0 Q85.4 104.7 80.3 103.3 Q75.1 101.9 71.7 98.4 Q68.3 94.8 67.8 90.6 Q67.3 86.4 68.6 83.0 Q70.0 79.6 70.0 80.7 Z" fill="#1a1a1a"/>
<path d="M158.5 79.5 Q159.1 75.4 162.5 73.0 Q166.0 70.6 170.7 69.4 Q175.3 68.2 179.7 69.7 Q184.0 71.2 188.0 74.5 Q192.0 77.7 193.7 82.0 Q195.4 86.4 194.0 90.7 Q192.6 95.1 188.7 98.4 Q184.9 101.7 180.0 102.3 Q175.0 102.9 169.9 101.6 Q164.9 100.3 161.6 96.9 Q158.4 93.6 158.0 89.6 Q157.5 85.5 158.0 82.5 Q158.5 79.4 158.5 79.5 Z" fill="#1a1a1a"/>
<path d="M250.0 78.7 Q250.5 74.8 254.0 72.5 Q257.4 70.2 262.0 69.0 Q266.5 67.7 270.7 69.2 Q274.9 70.6 278.8 73.8 Q282.6 76.9 284.2 81.1 Q285.7 85.4 284.3 89.6 Q282.9 93.8 279.1 97.0 Q275.4 100.2 270.6 100.7 Q265.7 101.3 260.8 100.0 Q255.9 98.7 252.7 95.4 Q249.5 92.1 249.1 88.2 Q248.6 84.2 249.3 81.4 Q250.0 78.6 250.0 78.7 Z" fill="#1a1a1a"/>
<path d="M337.0 79.5 Q337.4 75.4 340.7 73.0 Q343.9 70.6 348.5 69.4 Q353.0 68.2 357.5 69.7 Q361.9 71.2 366.1 74.5 Q370.3 77.7 372.0 82.0 Q373.6 86.4 371.9 90.7 Q370.3 95.1 366.3 98.4 Q362.3 101.7 357.3 102.3 Q352.3 102.9 347.1 101.6 Q341.9 100.3 338.5 96.9 Q335.1 93.6 334.6 89.6 Q334.1 85.5 335.4 82.5 Q336.8 79.4 337.0 79.5 Z" fill="#1a1a1a"/>
<path d="M425.5 80.7 Q426.0 77.1 429.4 75.0 Q432.9 72.8 437.6 71.2 Q442.2 69.6 446.5 71.3 Q450.7 73.0 454.6 76.4 Q458.4 79.7 460.0 84.2 Q461.5 88.6 460.1 92.7 Q458.7 96.9 454.9 100.1 Q451.2 103.4 446.4 104.0 Q441.5 104.7 436.6 103.3 Q431.7 101.9 428.4 98.4 Q425.2 94.8 424.8 90.6 Q424.3 86.4 425.0 83.0 Q425.5 79.6 425.5 80.7 Z" fill="#1a1a1a"/>
<path d="M515.0 79.5 Q515.5 75.4 519.0 73.0 Q522.4 70.6 527.0 69.4 Q531.5 68.2 535.7 69.7 Q539.9 71.2 543.8 74.5 Q547.6 77.7 549.2 82.0 Q550.7 86.4 549.3 90.7 Q547.9 95.1 544.1 98.4 Q540.4 101.7 535.6 102.3 Q530.7 102.9 525.8 101.6 Q520.9 100.3 517.7 96.9 Q514.5 93.6 514.1 89.6 Q513.6 85.5 514.3 82.5 Q515.0 79.4 515.0 79.5 Z" fill="#1a1a1a"/>
<path d="M603.5 80.7 Q604.0 77.1 607.4 75.0 Q610.9 72.8 615.6 71.2 Q620.2 69.6 624.5 71.3 Q628.7 73.0 632.6 76.4 Q636.4 79.7 638.0 84.2 Q639.5 88.6 638.1 92.7 Q636.7 96.9 632.9 100.1 Q629.2 103.4 624.4 104.0 Q619.5 104.7 614.6 103.3 Q609.7 101.9 606.4 98.4 Q603.2 94.8 602.8 90.6 Q602.3 86.4 603.0 83.0 Q603.5 79.6 603.5 80.7 Z" fill="#1a1a1a"/>
<path d="M693.0 78.7 Q693.5 74.8 697.0 72.5 Q700.4 70.2 705.0 69.0 Q709.5 67.7 713.7 69.2 Q717.9 70.6 721.8 73.8 Q725.6 76.9 727.2 81.1 Q728.7 85.4 727.3 89.6 Q725.9 93.8 722.1 97.0 Q718.4 100.2 713.6 100.7 Q708.7 101.3 703.8 100.0 Q698.9 98.7 695.7 95.4 Q692.5 92.1 692.1 88.2 Q691.6 84.2 692.3 81.4 Q693.0 78.6 693.0 78.7 Z" fill="#1a1a1a"/>
<path d="M780.0 79.5 Q780.4 75.4 783.7 73.0 Q786.9 70.6 791.5 69.4 Q796.0 68.2 800.5 69.7 Q804.9 71.2 809.1 74.5 Q813.3 77.7 815.0 82.0 Q816.6 86.4 814.9 90.7 Q813.3 95.1 809.3 98.4 Q805.3 101.7 800.3 102.3 Q795.3 102.9 790.1 101.6 Q784.9 100.3 781.5 96.9 Q778.1 93.6 777.6 89.6 Q777.1 85.5 778.4 82.5 Q779.8 79.4 780.0 79.5 Z" fill="#1a1a1a"/>
<path d="M868.5 80.7 Q869.0 77.1 872.4 75.0 Q875.9 72.8 880.6 71.2 Q885.2 69.6 889.5 71.3 Q893.7 73.0 897.6 76.4 Q901.4 79.7 903.0 84.2 Q904.5 88.6 903.1 92.7 Q901.7 96.9 897.9 100.1 Q894.2 103.4 889.4 104.0 Q884.5 104.7 879.6 103.3 Q874.7 101.9 871.4 98.4 Q868.2 94.8 867.8 90.6 Q867.3 86.4 868.0 83.0 Q868.5 79.6 868.5 80.7 Z" fill="#1a1a1a"/>
<path d="M958.0 78.7 Q958.5 74.8 962.0 72.5 Q965.4 70.2 970.0 69.0 Q974.5 67.7 978.7 69.2 Q982.9 70.6 986.8 73.8 Q990.6 76.9 992.2 81.1 Q993.7 85.4 992.3 89.6 Q990.9 93.8 987.1 97.0 Q983.4 100.2 978.6 100.7 Q973.7 101.3 968.8 100.0 Q963.9 98.7 960.7 95.4 Q957.5 92.1 957.1 88.2 Q956.6 84.2 957.3 81.4 Q958.0 78.6 958.0 78.7 Z" fill="#1a1a1a"/>
<path d="M1045.0 79.5 Q1045.4 75.4 1048.7 73.0 Q1051.9 70.6 1056.5 69.4 Q1061.0 68.2 1065.5 69.7 Q1069.9 71.2 1074.1 74.5 Q1078.3 77.7 1080.0 82.0 Q1081.6 86.4 1079.9 90.7 Q1078.3 95.1 1074.3 98.4 Q1070.3 101.7 1065.3 102.3 Q1060.3 102.9 1055.1 101.6 Q1049.9 100.3 1046.5 96.9 Q1043.1 93.6 1042.6 89.6 Q1042.1 85.5 1043.4 82.5 Q1044.8 79.4 1045.0 79.5 Z" fill="#1a1a1a"/>
<path d="M1133.5 80.7 Q1134.0 77.1 1137.4 75.0 Q1140.9 72.8 1145.6 71.2 Q1150.2 69.6 1154.5 71.3 Q1158.7 73.0 1162.6 76.4 Q1166.4 79.7 1168.0 84.2 Q1169.5 88.6 1168.1 92.7 Q1166.7 96.9 1162.9 100.1 Q1159.2 103.4 1154.4 104.0 Q1149.5 104.7 1144.6 103.3 Q1139.7 101.9 1136.4 98.4 Q1133.2 94.8 1132.8 90.6 Q1132.3 86.4 1133.0 83.0 Q1133.5 79.6 1133.5 80.7 Z" fill="#1a1a1a"/>
<path d="M1220.0 79.5 Q1220.4 75.4 1223.7 73.0 Q1226.9 70.6 1231.5 69.4 Q1236.0 68.2 1240.5 69.7 Q1244.9 71.2 1249.1 74.5 Q1253.3 77.7 1255.0 82.0 Q1256.6 86.4 1254.9 90.7 Q1253.3 95.1 1249.3 98.4 Q1245.3 101.7 1240.3 102.3 Q1235.3 102.9 1230.1 101.6 Q1224.9 100.3 1221.5 96.9 Q1218.1 93.6 1217.6 89.6 Q1217.1 85.5 1218.4 82.5 Q1219.8 79.4 1220.0 79.5 Z" fill="#d97706"/>
  </g>
  <text x="400" y="450" font-family="JetBrains Mono, monospace" font-size="10" fill="#1a1a1a" letter-spacing="1.5" text-anchor="middle">PRIOR FORM: &#8220;TRUST, BUT VERIFY&#8221; &#8212; RUSSIAN PROVERB</text>
  <text x="400" y="475" font-family="JetBrains Mono, monospace" font-size="10" fill="#1a1a1a" letter-spacing="1.5" text-anchor="middle">SHARPENED VIA ANTONOPOULOS, MASTERING BITCOIN, 2014</text>
  <text x="400" y="500" font-family="JetBrains Mono, monospace" font-size="10" fill="#1a1a1a" letter-spacing="1.5" text-anchor="middle">USAGE: INSTRUCTION AND SYSTEM-DESIGN PRINCIPLE</text>
  <text x="720" y="575" font-family="JetBrains Mono, monospace" font-size="9" fill="#1a1a1a" letter-spacing="1.5" text-anchor="end">bitcoinannotated.com</text>
</svg>
