<svg xmlns="http://www.w3.org/2000/svg" viewBox="0 0 800 600" width="800" height="600">
  <rect width="800" height="600" fill="#f8f4ed"/>
  <rect x="40" y="40" width="720" height="520" fill="none" stroke="#1a1a1a" stroke-width="1.5"/>
  <rect x="56" y="56" width="688" height="488" fill="none" stroke="#1a1a1a" stroke-width="0.5"/>
  <text x="80" y="100" font-family="JetBrains Mono, monospace" font-size="11" fill="#1a1a1a" letter-spacing="2.5">SPECIMEN — PHRASE</text>
  <line x1="80" y1="115" x2="220" y2="115" stroke="#d97706" stroke-width="1.5"/>
  <text x="720" y="100" font-family="JetBrains Mono, monospace" font-size="11" fill="#1a1a1a" letter-spacing="2" text-anchor="end">CAT. AUGUST 2019</text>
  <text x="400" y="265" font-family="EB Garamond, Garamond, serif" font-style="italic" font-size="76" fill="#1a1a1a" text-anchor="middle" font-weight="500">Gradually,</text>
  <text x="400" y="350" font-family="EB Garamond, Garamond, serif" font-style="italic" font-size="76" fill="#1a1a1a" text-anchor="middle" font-weight="500">then <tspan fill="#d97706">suddenly</tspan>.</text>
  <g fill="#1a1a1a">
    <path d="M 367.7,409.0 Q 368.3,409.9 367.6,410.9 Q 367.0,411.9 365.9,411.8 Q 364.8,411.7 364.3,410.9 Q 363.8,410.0 364.4,408.9 Q 365.1,407.8 366.1,407.9 Q 367.2,408.1 367.7,409.0 Z"/>
    <path d="M 376.0,408.5 Q 376.5,409.6 375.9,410.5 Q 375.4,411.4 374.4,411.7 Q 373.5,412.0 372.4,411.3 Q 371.4,410.6 371.4,409.4 Q 371.4,408.3 372.2,407.6 Q 373.1,406.8 374.3,407.1 Q 375.5,407.5 376.0,408.5 Z"/>
    <path d="M 385.1,407.4 Q 385.6,408.7 385.0,410.0 Q 384.4,411.2 383.1,411.5 Q 381.9,411.9 380.9,411.1 Q 379.8,410.4 379.7,409.1 Q 379.6,407.7 380.7,406.8 Q 381.7,405.9 383.2,406.0 Q 384.6,406.2 385.1,407.4 Z"/>
    <path d="M 396.9,405.9 Q 397.9,407.3 397.3,409.0 Q 396.6,410.6 395.1,411.2 Q 393.5,411.8 391.8,411.0 Q 390.0,410.3 389.4,408.9 Q 388.8,407.5 389.4,406.0 Q 390.1,404.5 391.5,403.7 Q 392.9,403.0 394.4,403.7 Q 395.9,404.4 396.9,405.9 Z"/>
    <path d="M 413.0,403.0 Q 414.0,405.2 413.7,407.3 Q 413.3,409.4 411.3,410.6 Q 409.2,411.8 406.5,411.1 Q 403.8,410.4 402.3,408.9 Q 400.9,407.5 400.9,405.5 Q 401.0,403.5 402.6,401.4 Q 404.3,399.2 406.5,399.1 Q 408.8,399.0 410.4,399.9 Q 412.0,400.9 413.0,403.0 Z"/>
  </g>
  <path d="M 434.9,399.8 Q 435.5,402.0 434.8,404.8 Q 434.0,407.6 432.2,409.4 Q 430.3,411.1 426.6,411.4 Q 422.8,411.7 421.0,409.6 Q 419.1,407.4 418.3,404.9 Q 417.6,402.4 418.4,400.1 Q 419.2,397.8 421.1,395.4 Q 423.0,393.0 426.7,393.1 Q 430.4,393.2 432.3,395.4 Q 434.9,397.7 434.9,399.8 Z" fill="#d97706" stroke="#1a1a1a" stroke-width="1.1"/>
  <text x="400" y="445" font-family="EB Garamond, Garamond, serif" font-style="italic" font-size="14" fill="#1a1a1a" text-anchor="middle">Hemingway’s line on going bankrupt, redeployed by Parker Lewis —</text>
  <text x="400" y="465" font-family="EB Garamond, Garamond, serif" font-style="italic" font-size="14" fill="#1a1a1a" text-anchor="middle">adopted by the community as the shape of the bitcoin-adoption curve.</text>
  <line x1="280" y1="500" x2="520" y2="500" stroke="#1a1a1a" stroke-width="0.5"/>
  <text x="400" y="525" font-family="JetBrains Mono, monospace" font-size="10" fill="#1a1a1a" letter-spacing="1.5" text-anchor="middle">PARKER LEWIS — UNCHAINED CAPITAL, AUGUST 2, 2019</text>
  <text x="720" y="575" font-family="JetBrains Mono, monospace" font-size="9" fill="#1a1a1a" letter-spacing="1.5" text-anchor="end">bitcoinannotated.com</text>
</svg>
