<svg xmlns="http://www.w3.org/2000/svg" viewBox="0 0 800 600" width="800" height="600">
  <rect width="800" height="600" fill="#f8f4ed"/>
  <rect x="40" y="40" width="720" height="520" fill="none" stroke="#1a1a1a" stroke-width="1.5"/>
  <rect x="56" y="56" width="688" height="488" fill="none" stroke="#1a1a1a" stroke-width="0.5"/>
  <text x="80" y="100" font-family="JetBrains Mono, monospace" font-size="11" fill="#1a1a1a" letter-spacing="2.5">SPECIMEN &#8212; PHRASE</text>
  <line x1="80" y1="115" x2="220" y2="115" stroke="#d97706" stroke-width="1.5"/>
  <text x="720" y="100" font-family="JetBrains Mono, monospace" font-size="11" fill="#1a1a1a" letter-spacing="2" text-anchor="end">CAT. APRIL 2021</text>
  <text x="400" y="240" font-family="JetBrains Mono, monospace" font-size="56" fill="#d97706" text-anchor="middle" font-weight="700" letter-spacing="8">HFSP</text>
  <line x1="320" y1="270" x2="480" y2="270" stroke="#1a1a1a" stroke-width="0.5"/>
  <text x="400" y="320" font-family="EB Garamond, Garamond, serif" font-style="italic" font-size="32" fill="#1a1a1a" text-anchor="middle">have fun</text>
  <text x="400" y="365" font-family="EB Garamond, Garamond, serif" font-style="italic" font-size="32" fill="#1a1a1a" text-anchor="middle">staying poor.</text>
  <g transform="translate(343.05,370.00) scale(0.099558)">
    <metadata>
Created by potrace 1.16, written by Peter Selinger 2001-2019
</metadata>
<g transform="translate(0.000000,904.000000) scale(0.100000,-0.100000)"
fill="#1a1a1a" stroke="none">
<path d="M6450 7580 c-36 -5 -228 -14 -428 -19 -318 -9 -373 -8 -449 6 -79 14
-95 14 -202 -1 -64 -9 -172 -16 -241 -17 -69 0 -147 -4 -175 -9 -27 -5 -138
-14 -245 -19 -235 -12 -396 -33 -510 -67 -106 -32 -304 -96 -390 -127 -135
-48 -401 -180 -459 -227 -20 -17 -108 -83 -196 -149 -116 -86 -183 -144 -245
-212 -46 -52 -117 -128 -156 -170 -70 -75 -124 -147 -196 -261 -20 -32 -65
-92 -100 -132 -129 -151 -135 -160 -245 -351 -61 -104 -160 -336 -202 -470
-22 -72 -62 -197 -89 -280 -28 -82 -55 -179 -60 -215 -11 -68 -29 -143 -64
-270 -12 -41 -31 -132 -44 -202 -12 -70 -27 -142 -33 -160 -5 -18 -15 -68 -21
-112 -7 -43 -18 -100 -26 -125 -8 -25 -19 -118 -24 -206 -8 -156 -33 -311 -79
-495 -12 -47 -28 -110 -35 -140 -8 -30 -17 -73 -21 -95 -7 -43 -43 -162 -81
-265 -13 -36 -26 -85 -30 -110 -4 -25 -15 -61 -24 -80 -9 -19 -27 -66 -40
-105 -30 -93 -278 -597 -398 -805 -70 -123 -107 -329 -86 -477 7 -49 13 -117
13 -152 1 -59 3 -66 35 -96 44 -41 102 -55 181 -45 33 5 96 13 140 19 44 6
117 19 163 28 66 13 90 14 121 5 21 -7 50 -12 65 -12 33 0 73 -20 152 -76 34
-24 88 -56 120 -70 l59 -26 94 17 c130 24 273 97 377 191 41 38 101 89 134
114 190 144 350 319 562 617 73 102 107 152 232 338 110 163 158 202 269 216
40 5 99 20 132 32 50 18 80 22 185 22 l125 -1 99 -47 c98 -47 177 -67 266 -67
25 0 88 -10 140 -21 111 -24 315 -48 417 -48 50 -1 96 -9 150 -27 56 -19 113
-28 208 -35 87 -6 173 -20 251 -39 65 -17 164 -35 219 -40 156 -15 242 -30
288 -50 23 -10 67 -21 97 -24 163 -19 232 -30 301 -47 89 -22 266 -41 639 -69
198 -15 704 8 830 37 36 8 110 21 165 28 55 7 125 22 155 33 30 11 118 39 195
62 77 24 187 61 245 85 58 23 130 50 160 60 160 51 402 184 453 248 7 8 39 37
72 65 80 66 378 364 427 427 21 28 63 79 93 115 30 36 75 103 100 150 58 106
83 146 118 191 15 20 27 39 27 43 0 5 8 20 19 34 10 15 41 70 69 123 28 53 66
126 85 161 19 35 42 89 52 119 9 30 38 99 63 154 43 97 105 281 138 415 9 36
32 110 50 165 23 69 36 134 44 210 28 299 29 341 15 566 -13 217 -15 228 -53
344 -22 66 -61 168 -86 227 -25 59 -46 120 -46 136 0 33 -53 145 -104 222 -21
30 -99 120 -174 200 -141 148 -152 162 -262 310 -34 47 -100 122 -147 167 -68
66 -105 93 -191 136 -59 30 -132 68 -162 85 -70 38 -373 158 -459 182 -37 10
-145 45 -241 79 -205 72 -284 86 -550 101 -107 6 -244 18 -305 26 -60 8 -175
19 -255 25 -80 5 -201 14 -270 19 -174 14 -831 21 -910 10z m-508 -180 c29
-11 60 -20 69 -20 9 0 37 -11 63 -25 25 -14 75 -29 110 -35 35 -5 82 -16 104
-24 23 -8 79 -20 124 -26 121 -16 278 -38 398 -57 117 -17 299 -66 345 -92 48
-27 376 -177 425 -194 25 -9 67 -19 93 -22 27 -4 69 -15 94 -26 197 -85 519
-128 983 -134 230 -3 466 -21 545 -40 33 -8 112 -22 176 -29 106 -13 126 -20
234 -71 116 -55 246 -143 285 -192 22 -29 26 -69 8 -76 -7 -3 -56 -3 -108 0
-144 7 -271 -25 -460 -115 -122 -59 -160 -93 -245 -219 -39 -58 -70 -83 -151
-120 -51 -23 -70 -26 -193 -28 -133 -2 -138 -3 -221 -39 -116 -50 -164 -88
-267 -208 -48 -57 -112 -125 -142 -153 -164 -152 -171 -160 -171 -198 0 -72
72 -92 126 -36 16 17 62 56 102 87 49 37 94 84 133 138 80 111 176 197 256
229 57 22 77 25 201 25 161 0 208 12 292 73 82 60 127 105 176 179 78 117 238
208 418 239 79 13 228 7 269 -12 43 -19 76 -88 93 -192 20 -122 5 -506 -25
-672 -37 -196 -43 -219 -81 -315 -132 -327 -179 -564 -180 -897 0 -184 5 -224
51 -374 24 -76 39 -108 79 -157 28 -34 50 -70 50 -79 0 -9 -15 -39 -34 -67
-45 -68 -136 -223 -136 -232 0 -17 -68 -114 -115 -164 -29 -30 -69 -77 -89
-105 -75 -100 -340 -357 -402 -390 -43 -22 -136 -20 -165 4 -22 18 -24 26 -24
118 0 98 0 98 -45 173 -24 41 -83 120 -131 176 -117 135 -199 243 -199 260 0
8 -11 36 -25 62 -16 30 -27 72 -31 117 l-6 71 48 62 c27 34 75 94 108 133 55
66 166 264 166 295 0 7 7 35 16 61 9 26 16 61 16 78 -1 33 -34 67 -57 59 -15
-6 -69 -100 -145 -250 -50 -99 -80 -141 -178 -248 -74 -81 -86 -101 -102 -180
-26 -129 26 -291 137 -427 235 -285 283 -365 291 -484 4 -63 2 -72 -18 -90
-19 -17 -35 -20 -109 -18 -47 1 -140 11 -206 23 -66 11 -163 28 -215 36 -52 8
-126 22 -165 31 -88 20 -373 29 -435 13 -25 -6 -121 -15 -215 -20 -93 -5 -226
-18 -295 -30 -69 -11 -181 -25 -250 -30 -69 -5 -145 -16 -170 -25 -65 -23
-174 -45 -226 -45 -28 0 -71 -11 -112 -29 -37 -16 -112 -39 -167 -51 -132 -28
-187 -46 -266 -86 -80 -40 -283 -96 -365 -102 -38 -2 -82 2 -115 12 -30 9
-112 21 -184 26 -75 6 -155 19 -190 30 -80 26 -166 38 -337 50 -151 9 -242 22
-348 47 -36 9 -84 18 -108 20 -28 4 -46 11 -53 24 -8 16 8 36 115 144 174 173
262 285 366 465 24 41 65 102 91 135 26 33 64 83 85 111 49 65 286 285 356
331 121 80 279 130 448 143 298 23 486 61 528 107 30 33 29 71 -4 83 -26 10
-204 2 -454 -20 -232 -20 -570 -65 -750 -99 -44 -9 -131 -39 -345 -120 -116
-44 -257 -113 -288 -140 -20 -17 -42 -30 -179 -110 -97 -57 -219 -155 -376
-303 -50 -49 -96 -88 -101 -88 -9 0 -255 -268 -299 -325 -12 -17 -40 -53 -61
-81 -22 -28 -59 -63 -83 -77 -54 -31 -68 -56 -71 -127 -3 -38 -11 -66 -28 -91
-13 -19 -40 -63 -59 -98 -37 -66 -40 -70 -152 -229 -40 -57 -98 -139 -129
-183 -31 -45 -80 -109 -110 -142 -30 -34 -77 -93 -104 -132 -55 -76 -171 -196
-250 -255 -27 -21 -99 -83 -160 -139 -94 -87 -126 -109 -224 -157 -147 -72
-163 -75 -248 -35 -37 18 -81 42 -98 55 -16 12 -57 38 -90 56 -58 33 -64 35
-185 38 -110 4 -139 1 -240 -23 -161 -39 -191 -41 -220 -17 -22 18 -24 25 -28
178 -5 170 -3 183 48 304 90 216 159 320 212 320 11 0 59 -13 107 -29 83 -28
94 -29 321 -32 462 -8 533 -4 791 41 30 6 70 10 87 10 19 0 75 22 134 52 78
39 117 66 160 111 118 123 189 329 144 415 -35 65 -175 165 -270 190 -26 8
-116 8 -285 2 -312 -12 -726 1 -791 24 -88 32 -96 59 -55 178 35 101 62 206
85 323 10 55 33 154 50 220 41 161 60 282 60 385 0 92 19 230 44 325 8 33 22
105 31 160 9 55 23 125 31 155 9 30 22 84 29 120 7 36 24 115 38 175 13 61 27
128 30 150 4 22 42 148 86 280 43 132 82 256 86 275 10 48 155 344 196 401 42
58 209 249 269 307 91 89 236 216 274 239 21 14 57 43 80 65 23 22 73 61 111
86 39 25 97 70 130 99 57 50 81 66 165 110 19 10 67 37 105 59 176 103 323
164 480 199 128 29 349 72 430 84 44 7 118 21 165 33 115 27 332 73 460 98 58
12 137 27 175 35 102 22 108 21 157 -32 115 -126 130 -138 219 -166 104 -34
100 -31 138 -92 16 -27 43 -70 58 -95 40 -65 39 -163 -5 -324 -51 -188 -42
-318 29 -417 11 -17 60 -49 112 -76 101 -52 171 -115 185 -166 13 -46 -11
-382 -31 -433 -8 -23 -18 -67 -22 -97 -7 -51 -5 -58 18 -81 44 -44 85 -30 111
35 39 98 66 312 66 531 l0 128 -36 40 c-37 41 -150 123 -237 174 -57 33 -86
86 -87 156 0 25 15 99 32 165 28 101 33 137 33 230 0 104 -2 114 -32 175 -71
143 -155 228 -258 260 -88 28 -155 94 -140 139 3 11 37 29 93 50 48 17 112 45
142 61 66 34 112 37 182 10z m-4333 -4904 c5 -11 4 -34 0 -51 -5 -16 -9 -46
-9 -66 0 -22 -8 -47 -21 -63 -17 -21 -29 -26 -65 -26 -57 0 -84 14 -83 43 1
37 72 171 97 183 31 15 72 6 81 -20z m299 -18 c25 -21 0 -149 -37 -182 -25
-23 -76 -23 -101 -1 -23 21 -27 82 -9 135 19 54 104 82 147 48z m708 8 c43
-32 3 -193 -58 -226 -23 -13 -32 -12 -82 3 -32 10 -60 26 -66 37 -14 27 -4
150 14 168 12 12 81 26 152 31 11 0 29 -5 40 -13z m-374 -33 c12 -11 18 -30
18 -61 0 -37 -5 -49 -35 -79 -33 -33 -39 -35 -85 -31 -64 6 -90 29 -90 79 0
52 15 88 42 99 40 15 129 12 150 -7z m-375 -344 c13 -12 18 -65 7 -94 -4 -8
-19 -22 -35 -30 -51 -27 -99 9 -99 74 0 58 79 89 127 50z m355 -6 c23 -20 24
-80 1 -105 -12 -14 -31 -18 -84 -18 -59 0 -70 3 -83 22 -23 32 -20 71 7 95 37
35 123 39 159 6z m327 -22 c18 -33 -8 -53 -70 -54 -49 -2 -54 0 -57 21 -6 44
4 52 62 52 44 0 57 -4 65 -19z"/>
<path d="M2585 5091 c-140 -51 -170 -61 -186 -61 -26 0 -137 -88 -166 -132
-23 -34 -25 -45 -19 -101 12 -120 90 -222 199 -261 67 -23 207 -39 298 -34
139 9 264 80 327 187 23 40 27 57 27 126 0 90 -16 131 -69 178 -49 43 -101 67
-204 93 -112 29 -141 29 -207 5z m318 -191 c45 -50 32 -132 -31 -195 -45 -45
-57 -31 -58 65 0 47 -4 97 -8 112 -5 15 -5 35 -2 44 10 25 65 10 99 -26z
m-412 -37 c5 -80 -20 -143 -55 -143 -43 0 -73 84 -43 122 30 38 96 52 98 21z"/>
<path d="M3680 4930 c-94 -35 -111 -45 -162 -99 -54 -55 -58 -63 -59 -108 -2
-72 1 -84 27 -129 31 -53 104 -119 180 -163 50 -29 71 -35 138 -39 101 -5 344
24 415 51 58 21 133 83 157 128 16 32 19 106 4 143 -15 41 -80 106 -131 131
-26 14 -82 34 -124 45 -43 11 -94 28 -114 36 -32 14 -189 45 -216 43 -5 0 -57
-18 -115 -39z m76 -177 c-4 -16 -9 -56 -13 -90 -7 -77 -18 -88 -64 -65 -46 23
-66 79 -43 123 16 32 62 58 103 59 20 0 23 -3 17 -27z m468 -64 c24 -28 25
-32 12 -58 -20 -38 -41 -53 -68 -49 -21 3 -23 8 -22 55 1 29 4 59 8 68 9 25
42 17 70 -16z"/>
<path d="M2999 4358 c-30 -31 -123 -214 -135 -265 -19 -77 -124 -238 -230
-353 -17 -19 -53 -68 -79 -109 -46 -72 -47 -75 -41 -133 12 -114 57 -158 164
-158 73 0 124 22 189 81 51 47 69 49 91 8 45 -82 101 -118 181 -119 58 0 99
27 155 101 36 50 49 78 67 154 l23 94 -27 118 c-15 64 -34 124 -41 133 -19 20
-82 166 -91 210 -14 66 -85 235 -106 253 -35 28 -86 22 -120 -15z"/>
</g>
  </g>
  <text x="400" y="495" font-family="JetBrains Mono, monospace" font-size="10" fill="#1a1a1a" letter-spacing="1.5" text-anchor="middle">USAGE: DECLARATIVE &#8212; DIRECTED AT NOCOINERS</text>
  <text x="400" y="515" font-family="JetBrains Mono, monospace" font-size="10" fill="#1a1a1a" letter-spacing="1.5" text-anchor="middle">EARLIEST KNOWN APPEARANCE ~APRIL 2021</text>
  <text x="720" y="575" font-family="JetBrains Mono, monospace" font-size="9" fill="#1a1a1a" letter-spacing="1.5" text-anchor="end">bitcoinannotated.com</text>
</svg>
