<svg xmlns="http://www.w3.org/2000/svg" viewBox="0 0 800 600" width="800" height="600">
<rect width="800" height="600" fill="#f8f4ed"/>
<rect x="40" y="40" width="720" height="520" fill="none" stroke="#1a1a1a" stroke-width="1.5"/>
<rect x="56" y="56" width="688" height="488" fill="none" stroke="#1a1a1a" stroke-width="0.5"/>
<text x="80" y="100" font-family="JetBrains Mono, monospace" font-size="11" fill="#1a1a1a" letter-spacing="2.5">SPECIMEN &#8212; PHRASE</text>
<line x1="80" y1="115" x2="220" y2="115" stroke="#d97706" stroke-width="1.5"/>
<text x="720" y="100" font-family="JetBrains Mono, monospace" font-size="11" fill="#1a1a1a" letter-spacing="2" text-anchor="end">CAT. CIRCA 2016</text>
<text x="400" y="245" font-family="EB Garamond, Garamond, serif" font-style="italic" font-size="64" fill="#1a1a1a" text-anchor="middle" font-weight="500">Not your keys,</text>
<text x="400" y="315" font-family="EB Garamond, Garamond, serif" font-style="italic" font-size="64" fill="#d97706" text-anchor="middle" font-weight="500">not your coins.</text>
<g transform="translate(290.00,300.00) scale(0.3667)">
<g transform="translate(-106.39,104.74) scale(1.0583)"><circle cx="562" cy="102" r="46" fill="#d97706"/><g transform="translate(120,60) scale(0.95)" fill="#1a1a1a"><path d="M0 0 C1.1 -0 2.3 -0.1 3.4 -0.1 C6.4 0.4 6.4 0.4 8.4 2.7 C9.4 5.4 9.4 5.4 8.8 8 C2.2 19.4 -8.6 25.8 -20.6 30.4 C-23.3 31.1 -26 31.5 -28.7 31.9 C-38.1 33.6 -47.1 37.5 -55.9 41.1 C-56.6 41.4 -57.3 41.6 -58.1 41.9 C-61.7 43.4 -63.8 44.6 -66.6 47.4 C-66.6 48.8 -66.6 50.1 -66.6 51.4 C-51.2 52 -37.4 50.3 -22.9 44.6 C-19.6 43.4 -19.6 43.4 -15.9 42.5 C-10.6 41.2 -5.4 39.4 -0.2 37.6 C0.7 37.2 1.7 36.9 2.7 36.5 C9 34.3 15.2 32 21.4 29.4 C22.9 28.9 24.3 28.3 25.8 27.7 C30 26 34.1 24.3 38.2 22.6 C41.5 21.2 44.8 19.8 48.1 18.4 C50.1 17.5 52.2 16.7 54.2 15.8 C60.2 13.4 64.9 11.8 71.4 12.4 C72.1 14.7 72.1 14.7 72.4 17.4 C71.2 19.4 71.2 19.4 69.3 21.2 C66.8 23.9 64.5 26.5 62.4 29.5 C59.8 33 56.9 35.8 53.5 38.6 C48.7 42.7 43.9 47.1 40.4 52.4 C39.7 52.4 39.1 52.4 38.4 52.4 C37.7 53.8 37.1 55.1 36.4 56.4 C34.3 58.7 32.2 60.9 29.9 63.1 C29.3 63.7 28.7 64.4 28 65 C22.7 70.2 17.3 75 11.4 79.4 C10.3 80.3 9.1 81.2 8 82 C-26.1 107.9 -63.9 121.3 -106.2 127.1 C-111.2 127.9 -115.8 128.7 -120.6 130.4 C-124.4 131.2 -128.1 131.9 -131.9 132.6 C-138.7 134.2 -145.2 136.7 -149.6 142.4 C-158.1 159 -158.6 177.6 -159.7 195.7 C-160.3 204.6 -162 212.2 -165.6 220.4 C-166.9 220.4 -168.3 220.4 -169.6 220.4 C-169.7 219.5 -169.9 218.5 -170 217.6 C-171.6 214.4 -171.6 214.4 -173.8 213.7 C-175.6 213.5 -177.4 213.2 -179.2 212.9 C-182.3 212.3 -183.8 211 -185.6 208.4 C-185.8 208.8 -185.8 208.8 -186.8 210.4 C-188.6 212.4 -188.6 212.4 -191.2 212.9 C-191.6 212.8 -191.6 212.8 -193.6 212.4 C-195.6 209.4 -195.6 209.4 -196.2 206.4 C-197.6 203.4 -197.6 203.4 -199.7 202.7 C-201.3 202.4 -202.9 202.1 -204.5 201.9 C-206.6 201.4 -206.6 201.4 -208.6 199.4 C-208.6 196.4 -208.1 193.5 -207.6 190.4 C-211.4 188.6 -212.3 188.4 -216.6 189.4 C-217.3 189.8 -217.9 190.1 -218.6 190.4 C-222.1 190.6 -222.1 190.6 -225.6 190.4 C-226 190.1 -226 190.1 -227.6 188.4 C-228 188.4 -228 188.4 -230.1 188.1 C-232.6 187.4 -232.6 187.4 -233.9 185.5 C-236.2 182.7 -237.8 182.7 -241.2 182.2 C-242.3 182.1 -243.4 182 -244.5 181.8 C-245 181.8 -245 181.8 -247.6 181.4 C-248.1 181.4 -248.1 181.4 -250.2 181.1 C-253.3 180.6 -256.1 180.3 -259.1 181 C-263.2 181.7 -266.7 180.4 -270.6 179.4 C-271 177.8 -271.3 176.1 -271.6 174.4 C-278.4 176.2 -278.4 176.2 -280.6 178.4 C-281.9 178.1 -283.3 177.8 -284.6 177.4 C-282.8 173.9 -281.2 171.7 -278.6 168.7 C-274.3 163.5 -270.8 158.1 -267.3 152.4 C-263.7 146.5 -259.8 140.9 -255.6 135.4 C-251.5 129.9 -247.5 124.3 -243.7 118.4 C-233.8 103.5 -220.7 87.2 -205.6 77.4 C-204.1 76.1 -202.6 74.7 -201.1 73.2 C-195.3 68 -189.1 63.7 -182.6 59.4 C-181.5 58.7 -180.3 57.9 -179.1 57.1 C-168.7 50.6 -157.9 46.1 -146.3 42.4 C-143.6 41.4 -143.6 41.4 -140.6 39.4 C-139 38.9 -137.3 38.5 -135.6 38.1 C-130 36.6 -124.8 34.6 -119.5 32.3 C-118.6 31.9 -117.7 31.5 -116.8 31.1 C-109.5 27.9 -102.5 24.3 -95.5 20.5 C-88 16.5 -81.2 13.8 -72.9 12.3 C-72 12.1 -71.1 12 -70.2 11.8 C-67.7 11.3 -65.1 10.9 -62.6 10.4 C-61.5 10.2 -60.5 10 -59.4 9.8 C-54.1 8.9 -48.8 8.4 -43.5 8 C-42.3 7.9 -41.2 7.9 -40 7.8 C-37.8 7.6 -35.5 7.5 -33.3 7.4 C-24.5 6.9 -17 4.7 -9 1.3 C-5.9 0.2 -3.3 0.1 0 0 Z M-9.6 6.8 C-16.5 9.4 -22.5 11.6 -29.8 12.2 C-31.2 12.3 -32.6 12.4 -34 12.5 C-35.5 12.6 -36.9 12.8 -38.4 12.9 C-72.4 15.7 -72.4 15.7 -83.5 23.4 C-88.9 26.9 -94.6 29 -100.9 30.3 C-105.7 31.3 -109.9 33.1 -114.3 35.1 C-121.5 38.2 -128.8 41.1 -136.2 43.8 C-137.1 44.1 -138 44.4 -139 44.7 C-143.2 46.2 -147.4 47.7 -151.6 49.1 C-155.6 50.4 -155.6 50.4 -157.6 51.4 C-157.7 52.1 -157.7 52.1 -158.1 55.2 C-159 62 -161.9 64.7 -166.6 69.4 C-169.5 72.6 -169.5 72.6 -171.6 76.4 C-170.6 80 -170.6 80 -168.4 83.8 C-167.6 85.2 -166.8 86.6 -166 88 C-165.6 88.7 -165.2 89.4 -164.8 90.2 C-162.9 93.9 -161.5 97.7 -160.1 101.6 C-152.3 122.6 -152.3 122.6 -146.6 125.4 C-146.1 125.1 -146.1 125.1 -143.6 123.4 C-136.6 122.2 -128.7 121.7 -121.6 122.4 C-121.3 122.8 -121.3 122.8 -119.6 124.4 C-116.9 124.2 -114.3 123.9 -111.6 123.4 C-110.7 123.3 -109.7 123.1 -108.8 123 C-70.9 116.7 -36.2 108.1 -4.6 85.4 C-3.5 84.6 -2.3 83.8 -1.1 83 C16.1 71 16.1 71 18.4 66.4 C13.9 68 10.1 70.4 6.2 73.1 C4.9 74 3.6 74.9 2.2 75.8 C1.6 76.3 0.9 76.7 0.2 77.2 C-4 80 -8.3 82.7 -12.6 85.4 C-13.4 85.9 -14.2 86.4 -15 86.9 C-20.1 90 -25.3 93 -30.5 95.8 C-31.8 96.5 -33 97.2 -34.3 97.9 C-37.6 99.4 -37.6 99.4 -41.6 99.4 C-41.6 98.8 -41.6 98.1 -41.6 97.4 C-40 96.4 -40 96.4 -37.6 95.2 C-36.8 94.8 -35.9 94.4 -35 93.9 C-34.1 93.4 -33.2 93 -32.2 92.5 C-22.9 87.8 -14.2 82.6 -5.6 76.8 C-3.6 75.4 -1.6 74.1 0.4 72.8 C6.1 69 11.7 65.3 17.2 61.4 C18 60.9 18.8 60.4 19.6 59.8 C21.4 58.4 21.4 58.4 22.4 56.4 C19.1 57.7 16 59.1 12.9 60.8 C12.4 61.1 12.4 61.1 10.3 62.2 C9.9 62.5 9.9 62.5 7.7 63.7 C6.8 64.2 5.9 64.7 4.9 65.2 C0.7 67.6 -3.6 70 -7.7 72.6 C-14.6 76.8 -22.1 80 -29.4 83.4 C-31.3 84.3 -33.3 85.2 -35.2 86.1 C-35.7 86.4 -35.7 86.4 -38.1 87.5 C-38.9 87.9 -39.8 88.3 -40.6 88.7 C-42.6 89.4 -42.6 89.4 -45.6 89.4 C-44.6 85.4 -44.6 85.4 -42.7 84.2 C-41.8 83.8 -40.9 83.5 -40.1 83.1 C-39.6 82.9 -39.6 82.9 -37.2 81.9 C-36.1 81.5 -35.1 81.1 -34.1 80.7 C-31.9 79.8 -29.8 78.9 -27.7 78 C-26.6 77.6 -25.6 77.1 -24.5 76.7 C-4.9 68.3 13.4 56.8 31.4 45.4 C30.7 45.1 30.1 44.8 29.4 44.4 C26.6 45.6 24 46.8 21.3 48.1 C20.9 48.2 20.9 48.2 19.1 49.1 C15.3 50.9 11.6 52.9 7.9 54.9 C-3.4 61.3 -15.2 66.8 -27.6 70.4 C-29.3 71 -31 71.5 -32.6 72 C-34.4 72.6 -36.2 73.2 -38.1 73.8 C-38.9 74 -39.8 74.3 -40.7 74.6 C-48.3 76.9 -48.3 76.9 -52.6 75.4 C-52.6 74.8 -52.6 74.1 -52.6 73.4 C-51.5 73.2 -50.4 72.9 -49.2 72.6 C-29.7 67.7 -11.8 60.8 6.1 51.6 C10.6 49.3 15.1 47.1 19.6 44.8 C21.5 43.9 23.4 42.9 25.3 42 C28.2 40.5 31.1 39.1 34 37.6 C39.1 35.2 44.1 32.6 49.1 29.9 C50.1 29.3 51.1 28.8 52.1 28.2 C54.9 26 54.9 24.9 55.4 21.4 C48.7 23.3 42.6 25.6 36.3 28.6 C24.6 34 12.6 38.2 0.4 42.4 C-0.4 42.7 -1.2 43 -2 43.3 C-40.6 56.5 -40.6 56.5 -56.1 56.8 C-56.8 56.8 -56.8 56.8 -60.5 56.9 C-65.1 56.4 -67.2 55.4 -70.6 52.4 C-71.8 49.5 -71.8 49.5 -71.6 46.4 C-67.7 40.7 -60.7 38.2 -54.6 35.4 C-53.7 35 -52.9 34.6 -51.9 34.1 C-44.5 30.7 -36.8 29 -28.7 27.4 C-22.3 26.1 -16.1 24.2 -10.6 20.4 C-9.2 16.9 -9.2 16.9 -8.6 13.4 C-5.6 8.3 -2.1 7.2 3.4 5.4 C3.4 5.1 3.4 4.8 3.4 4.4 C-1.5 4.2 -5.1 5.1 -9.6 6.8 Z M-0.6 10.4 C-1.9 12.1 -3.3 13.7 -4.6 15.4 C-3.3 14.8 -2 14.1 -0.6 13.4 C-0.6 12.4 -0.6 11.5 -0.6 10.4 Z M25.4 53.4 C24.4 54.4 23.4 55.4 22.4 56.4 C24 55.8 25.7 55.1 27.4 54.4 C26.7 54.1 26.1 53.8 25.4 53.4 Z M-190.3 69.9 C-190.8 70.4 -190.8 70.4 -193.3 72.5 C-193.7 72.8 -193.7 72.8 -195.6 74.4 C-195 75.8 -194.3 77.1 -193.6 78.4 C-192.7 80.4 -191.8 82.3 -190.9 84.2 C-182.5 101.9 -173.9 118.7 -161.5 134.1 C-159.6 136.4 -158.1 138.8 -156.6 141.4 C-152.7 140.1 -151.6 139.2 -149.6 135.4 C-150.2 128.5 -153.3 123.1 -157 117.4 C-159 113.7 -160.5 109.8 -162 105.8 C-165.8 95.7 -170.4 86.1 -175.7 76.8 C-177.2 74.2 -178.5 71.7 -179.7 69 C-180 68.4 -180 68.4 -181.6 65.4 C-185.8 65.4 -187.2 67.3 -190.3 69.9 Z " transform="translate(327.625,46.5625)"/></g></g>
</g>
<text x="400" y="495" font-family="EB Garamond, Garamond, serif" font-style="italic" font-size="14" fill="#1a1a1a" text-anchor="middle">Popularized by Andreas Antonopoulos through Mastering Bitcoin, talks, and teaching &#8212;</text>
<text x="400" y="515" font-family="EB Garamond, Garamond, serif" font-style="italic" font-size="14" fill="#1a1a1a" text-anchor="middle">the four-beat instruction that became a creed.</text>
<text x="400" y="540" font-family="JetBrains Mono, monospace" font-size="10" fill="#1a1a1a" letter-spacing="1.5" text-anchor="middle">ANDREAS ANTONOPOULOS &#8212; POPULARIZER, CIRCA 2016</text>
<text x="720" y="575" font-family="JetBrains Mono, monospace" font-size="9" fill="#1a1a1a" letter-spacing="1.5" text-anchor="end">bitcoinannotated.com</text>
</svg>
