<svg xmlns="http://www.w3.org/2000/svg" viewBox="0 0 800 600" width="800" height="600">
<rect width="800" height="600" fill="#f8f4ed"/>
<rect x="40" y="40" width="720" height="520" fill="none" stroke="#1a1a1a" stroke-width="1.5"/>
<rect x="56" y="56" width="688" height="488" fill="none" stroke="#1a1a1a" stroke-width="0.5"/>
<text x="80" y="100" font-family="JetBrains Mono, monospace" font-size="11" fill="#1a1a1a" letter-spacing="2.5">SPECIMEN &#8212; PHRASE</text>
<line x1="80" y1="115" x2="220" y2="115" stroke="#d97706" stroke-width="1.5"/>
<text x="720" y="100" font-family="JetBrains Mono, monospace" font-size="11" fill="#1a1a1a" letter-spacing="2" text-anchor="end">CAT. MAY 2024</text>
<text x="400" y="280" font-family="EB Garamond, Garamond, serif" font-style="italic" font-size="78" fill="#1a1a1a" text-anchor="middle" font-weight="500">Nothing stops</text>
<text x="400" y="365" font-family="EB Garamond, Garamond, serif" font-style="italic" font-size="78" fill="#d97706" text-anchor="middle" font-weight="500">this train.</text>
<g transform="translate(280.00,392.86) scale(0.124224)">
<metadata>
Created by potrace 1.16, written by Peter Selinger 2001-2019
</metadata>
<g transform="translate(0.000000,276.000000) scale(0.100000,-0.100000)"
fill="#1a1a1a" stroke="none">
<path d="M3557 2151 c-179 -6 -179 -6 -203 -36 -13 -16 -24 -33 -24 -36 0 -4
-37 -22 -82 -40 -61 -25 -86 -41 -97 -62 -30 -54 -51 -75 -82 -82 -30 -7 -42
-24 -54 -78 -10 -48 -46 -53 -143 -21 -70 23 -83 31 -89 53 -11 49 -32 78 -65
91 -18 7 -49 30 -68 51 -33 36 -41 39 -135 55 -55 9 -116 23 -135 31 -25 10
-53 13 -100 8 -47 -4 -78 -1 -109 10 -60 21 -84 19 -126 -9 -26 -18 -55 -26
-113 -31 -95 -8 -198 -33 -214 -53 -7 -8 -17 -29 -23 -46 -10 -32 -27 -40 -98
-51 -30 -5 -43 -14 -58 -39 -25 -44 -125 -91 -170 -81 -38 9 -151 113 -185
171 -35 59 -100 88 -228 101 -86 9 -101 14 -127 39 -28 27 -35 28 -167 36
-207 13 -269 4 -294 -38 -12 -20 -31 -37 -47 -40 -112 -27 -207 -92 -177 -121
3 -4 104 0 224 7 456 29 595 4 682 -119 63 -89 53 -105 -80 -127 -104 -18
-785 -24 -907 -9 l-63 8 0 -292 c0 -291 0 -291 28 -291 35 0 101 -46 121 -84
18 -32 81 -62 160 -75 31 -6 124 -21 206 -36 166 -28 193 -27 325 11 122 36
158 58 257 154 80 76 113 124 136 193 12 32 54 21 76 -20 10 -21 33 -51 51
-68 17 -16 37 -44 45 -61 7 -17 27 -41 45 -55 17 -13 54 -45 81 -70 31 -30 62
-49 84 -53 19 -4 54 -24 79 -45 46 -40 74 -49 224 -77 100 -18 188 -16 371 10
89 12 96 15 125 49 21 24 57 46 110 69 69 29 82 39 111 83 17 28 43 56 56 63
23 13 91 116 103 159 12 38 63 38 95 -1 7 -9 19 -16 26 -16 25 0 74 -51 90
-95 14 -36 25 -47 58 -60 22 -9 62 -36 89 -60 51 -45 122 -85 152 -85 10 0 39
-7 65 -15 25 -8 73 -23 106 -34 73 -23 181 -19 235 10 19 10 53 23 75 28 121
30 147 44 167 89 16 34 29 47 63 62 33 14 46 26 51 47 4 15 20 56 36 90 33 74
55 81 88 29 11 -19 36 -44 55 -55 21 -12 37 -31 41 -48 20 -87 85 -157 195
-214 22 -11 52 -34 67 -50 59 -66 406 -86 511 -30 11 6 29 11 41 11 11 0 33
12 48 28 14 15 49 38 77 52 35 17 56 37 72 64 14 27 36 47 64 60 33 15 46 29
61 65 11 29 32 54 52 68 20 13 39 36 45 56 25 73 85 70 119 -6 15 -34 27 -45
53 -53 26 -7 39 -19 54 -51 26 -53 38 -65 78 -79 21 -7 38 -24 52 -49 16 -31
30 -42 70 -55 66 -22 134 -56 165 -81 15 -12 54 -24 95 -30 39 -6 108 -16 155
-23 196 -30 399 6 470 83 22 25 51 43 78 50 33 9 46 20 59 45 10 21 31 41 58
54 41 20 56 41 69 105 18 80 70 78 116 -5 14 -24 40 -58 57 -74 18 -16 38 -47
45 -69 11 -33 21 -44 60 -63 35 -16 53 -33 68 -62 21 -42 34 -48 154 -69 33
-6 69 -18 80 -26 12 -8 32 -23 45 -32 21 -15 46 -18 147 -18 123 0 123 0 156
32 19 18 49 35 68 39 19 3 53 12 75 19 22 8 52 16 68 20 19 4 32 17 45 42 14
31 25 40 65 51 41 12 51 19 68 56 13 26 34 49 57 61 26 14 41 32 52 61 29 78
49 85 154 61 50 -12 55 -17 77 -75 7 -20 28 -44 50 -58 21 -13 48 -42 59 -65
12 -22 35 -48 52 -57 17 -9 45 -31 63 -48 21 -21 47 -34 74 -39 50 -8 154 -55
194 -87 60 -48 289 -32 347 23 16 16 42 31 57 34 140 30 168 42 193 79 15 21
44 45 67 56 32 14 43 26 53 57 32 97 69 97 171 0 42 -39 82 -85 90 -102 15
-32 97 -78 159 -89 19 -4 63 -21 97 -37 53 -27 75 -32 165 -36 101 -6 235 13
263 37 5 5 57 21 115 35 126 33 136 37 155 74 9 18 28 34 48 40 35 12 76 50
96 88 35 68 169 -16 200 -125 10 -37 18 -46 57 -62 29 -13 52 -32 65 -55 13
-21 32 -38 48 -41 14 -4 47 -19 72 -35 25 -16 52 -29 60 -29 8 0 30 -10 49
-23 33 -21 46 -22 205 -22 188 0 233 7 285 42 19 12 45 23 58 23 63 0 162 42
193 81 17 21 37 39 44 39 24 0 73 50 80 81 11 48 42 62 121 52 65 -8 68 -9 99
-53 29 -42 37 -46 114 -67 68 -17 89 -28 116 -57 18 -20 37 -36 41 -36 5 0 41
-7 79 -16 142 -30 344 2 441 71 35 25 83 54 107 64 29 13 51 31 65 55 14 23
36 43 59 53 43 17 49 24 63 74 19 68 49 84 131 72 56 -9 79 -18 108 -42 104
-89 136 -112 174 -122 23 -6 58 -26 78 -43 35 -33 36 -33 170 -39 119 -6 242
1 349 20 19 3 55 16 80 29 25 13 51 24 59 24 30 0 171 152 185 200 16 56 40
70 122 70 67 0 84 -9 111 -59 12 -23 37 -44 71 -62 28 -14 64 -40 80 -57 34
-36 86 -52 268 -80 224 -35 473 2 535 79 16 20 41 40 55 43 40 10 71 34 84 65
7 18 27 35 52 47 22 10 52 33 68 52 15 19 32 33 38 31 9 -4 105 -107 187 -200
81 -93 145 -114 390 -129 255 -15 491 20 625 95 45 24 99 49 121 55 25 7 48
23 65 45 15 20 45 44 68 54 40 17 76 65 76 100 0 7 16 21 35 32 38 23 38 23
60 127 34 164 -12 352 -86 352 -10 0 -55 25 -101 56 -45 31 -104 62 -131 69
-28 7 -62 25 -80 43 -58 56 -199 83 -327 63 -45 -8 -121 -8 -248 -1 -222 13
-278 2 -318 -61 -17 -28 -31 -38 -61 -43 -66 -12 -71 -16 -88 -66 -17 -50 -17
-50 -114 -50 -104 0 -121 7 -121 48 0 14 -12 51 -27 84 -25 56 -30 61 -91 89
-36 16 -78 29 -93 29 -28 0 -69 30 -69 50 0 18 -104 40 -195 40 -108 0 -204
-27 -250 -71 -29 -27 -36 -29 -119 -29 -120 0 -198 -27 -232 -81 -15 -24 -34
-41 -52 -45 -15 -3 -35 -8 -44 -10 -9 -3 -27 -24 -40 -47 -13 -23 -32 -43 -43
-45 -30 -6 -63 -41 -70 -73 -16 -70 -115 -79 -156 -14 -8 12 -34 38 -58 56
-25 19 -52 47 -61 63 -21 40 -143 112 -203 121 -44 7 -49 5 -77 -25 -49 -52
-41 -69 48 -112 42 -20 86 -40 97 -43 11 -3 29 -24 40 -47 17 -36 28 -46 65
-58 47 -16 57 -32 46 -75 -9 -37 -54 -44 -261 -43 -104 0 -246 -4 -315 -11
-69 -6 -168 -16 -220 -20 -114 -11 -140 4 -140 82 0 52 5 59 54 78 31 11 42
22 53 53 16 49 13 46 63 57 22 5 59 21 80 35 38 25 43 26 97 15 97 -18 117 -7
121 67 4 74 -7 83 -115 90 -73 5 -73 5 -105 -31 -19 -20 -47 -38 -67 -42 -45
-10 -127 -63 -173 -113 -20 -23 -50 -43 -67 -47 -23 -5 -37 -17 -51 -46 -33
-63 -111 -66 -138 -4 -24 55 -29 60 -68 73 -21 7 -55 28 -74 46 -52 50 -88 58
-260 61 -118 3 -161 0 -181 -11 -37 -19 -46 -50 -22 -76 17 -19 25 -20 114
-14 111 7 166 -10 229 -69 19 -18 53 -38 76 -44 54 -14 69 -33 89 -115 24 -96
16 -103 -141 -122 -193 -23 -521 -46 -662 -46 -37 0 -72 40 -72 82 0 46 18 70
61 84 27 9 39 22 58 63 25 53 33 59 117 82 52 14 72 35 54 56 -10 12 -37 15
-119 15 -120 0 -132 -5 -151 -64 -10 -31 -21 -42 -55 -57 -38 -17 -46 -26 -60
-70 -19 -55 -52 -85 -88 -76 -81 21 -147 51 -152 71 -18 63 -30 79 -72 97 -30
13 -48 29 -60 53 -19 42 -25 45 -127 62 -51 8 -91 21 -115 38 -47 33 -88 33
-137 0 -70 -48 -138 -57 -207 -28 -59 25 -59 25 -145 -1 -75 -21 -93 -31 -127
-69 -22 -24 -50 -46 -62 -50 -26 -8 -48 -40 -57 -84 -13 -58 -80 -53 -112 9
-8 17 -30 37 -50 45 -35 15 -54 45 -54 86 0 57 -123 184 -195 202 -16 4 -40
17 -53 29 -22 20 -36 22 -167 25 -166 4 -176 1 -207 -66 -24 -49 -63 -67 -93
-42 -28 24 -74 28 -148 16 -89 -16 -93 -18 -111 -61 -10 -24 -27 -39 -60 -53
-34 -15 -49 -29 -60 -56 -11 -27 -26 -41 -59 -55 -42 -18 -54 -34 -72 -98 -7
-24 -25 -30 -122 -39 -74 -7 -103 9 -103 58 0 34 -23 66 -60 83 -24 11 -43 28
-51 47 -15 37 -37 48 -128 64 -62 11 -80 19 -110 48 -20 19 -48 38 -63 41 -44
11 -171 -22 -198 -50 -34 -37 -72 -33 -104 10 -36 47 -75 48 -110 3 -19 -25
-45 -39 -118 -64 -83 -28 -96 -36 -121 -72 -21 -31 -37 -43 -63 -48 -34 -6
-74 -44 -74 -71 0 -7 -11 -18 -25 -25 -29 -13 -75 11 -75 39 0 9 -9 35 -19 57
-11 23 -25 53 -30 69 -6 15 -23 32 -38 37 -16 6 -48 31 -73 56 -25 25 -90 75
-145 110 -100 65 -100 65 -215 59 -102 -5 -121 -9 -166 -35 -55 -31 -137 -50
-218 -50 -94 -1 -216 -41 -216 -71 0 -13 -81 -47 -142 -60 -53 -12 -68 -29
-68 -78 0 -34 -30 -71 -58 -71 -34 0 -153 29 -167 40 -8 7 -17 28 -21 49 -10
53 -17 63 -65 80 -32 12 -48 26 -63 56 -21 40 -21 40 -115 55 -87 14 -95 18
-125 51 -43 50 -128 64 -376 63 -206 0 -283 -14 -329 -58 -17 -16 -60 -35
-116 -51 -103 -30 -111 -35 -120 -77 -6 -23 -17 -34 -50 -49 -44 -19 -61 -35
-80 -73 -8 -17 -20 -21 -55 -21 -41 0 -46 3 -67 40 -16 30 -33 44 -65 55 -33
12 -47 24 -60 52 -20 42 -28 48 -77 59 -118 26 -134 33 -154 66 -11 20 -30 35
-46 39 -14 3 -46 12 -70 20 -59 19 -207 18 -261 -1 -23 -8 -59 -15 -79 -15
-80 0 -112 -11 -134 -47 -16 -25 -36 -40 -71 -51 -50 -17 -57 -24 -73 -77 -7
-24 -17 -33 -55 -45 -26 -8 -60 -25 -77 -37 -47 -35 -58 -29 -110 67 -17 31
-46 65 -68 80 -24 17 -41 38 -48 60 -15 51 -22 58 -68 71 -23 6 -55 23 -72 38
-79 73 -118 81 -378 72z m213 -173 c58 -28 119 -54 135 -57 24 -5 35 -17 53
-55 18 -38 32 -51 62 -63 46 -19 48 -22 56 -121 9 -122 24 -115 -272 -118
-300 -4 -629 11 -701 32 -60 17 -66 32 -33 86 11 18 20 45 20 59 0 37 19 56
75 76 28 11 54 28 60 40 20 38 37 53 79 64 27 7 55 26 81 54 78 84 215 85 385
3z m12640 52 c10 -5 26 -24 37 -42 16 -28 32 -37 96 -57 88 -28 91 -30 142
-131 21 -41 48 -88 61 -103 29 -34 32 -87 7 -109 -30 -26 -82 -29 -339 -18
-137 6 -365 11 -507 12 -285 0 -287 1 -287 62 0 45 83 166 114 166 46 0 87 24
106 59 15 30 27 40 54 45 19 4 54 15 78 25 24 10 65 22 93 26 27 4 63 14 80
23 16 8 50 15 75 14 27 -1 61 6 85 17 45 22 78 25 105 11z m1455 -91 c102 -19
103 -20 147 -82 12 -17 40 -30 103 -47 75 -20 90 -28 105 -54 27 -45 47 -63
81 -70 43 -8 53 -39 43 -127 -12 -103 7 -98 -384 -98 -362 0 -501 10 -573 40
-35 15 -80 22 -170 26 -103 5 -125 9 -144 26 -26 23 -37 65 -29 105 9 38 123
158 169 177 21 9 43 27 49 41 6 14 23 27 37 30 14 3 46 10 71 16 185 44 325
49 495 17z m-15516 -19 c102 -14 136 -26 155 -55 10 -16 33 -29 60 -36 64 -16
91 -49 90 -109 -1 -77 -39 -101 -119 -75 -78 26 -134 29 -521 29 -374 1 -393
2 -413 20 -42 38 -26 66 69 118 47 26 95 60 107 75 22 27 28 28 155 38 152 12
306 10 417 -5z m2441 5 c23 -8 68 -15 99 -15 83 0 128 -16 146 -50 16 -32 19
-33 140 -50 93 -14 115 -29 115 -79 0 -20 7 -49 15 -65 22 -42 13 -46 -121
-53 -73 -3 -130 -11 -148 -20 -49 -25 -547 -42 -580 -19 -38 24 -41 55 -13
132 27 75 28 76 162 118 28 9 49 26 70 56 17 24 39 47 50 51 11 4 21 8 21 8 1
1 21 -6 44 -14z m1602 -34 c44 -5 62 -13 77 -32 16 -21 33 -27 113 -38 88 -12
171 -27 211 -38 10 -2 29 -22 42 -43 18 -29 33 -41 59 -46 65 -12 87 -74 51
-143 -22 -43 -37 -47 -91 -20 -43 20 -51 21 -103 10 -190 -39 -241 -50 -281
-61 -60 -17 -390 -5 -439 16 -39 16 -132 38 -206 49 -81 11 -145 51 -145 89 0
20 113 86 147 86 6 0 20 15 31 34 16 27 31 37 64 45 102 25 149 43 178 68 52
43 107 48 292 24z m4763 -85 c28 -13 57 -26 66 -29 18 -6 62 -93 79 -155 6
-23 23 -48 45 -65 40 -32 43 -52 20 -132 -24 -82 -16 -80 -289 -83 -133 -1
-349 -4 -481 -5 -236 -3 -321 5 -348 32 -13 13 -28 120 -21 143 3 9 15 20 27
24 32 9 68 44 84 82 7 18 26 38 41 44 15 7 46 25 69 40 23 15 46 28 50 28 5 0
22 13 37 29 18 19 43 32 70 37 22 3 59 15 80 26 33 17 52 19 110 15 43 -4 95
-1 131 7 70 15 146 2 230 -38z m-3000 9 c153 -19 199 -36 227 -88 14 -24 38
-48 61 -60 46 -23 57 -49 57 -126 0 -100 15 -96 -359 -82 -247 9 -328 15 -357
27 -29 12 -57 14 -123 10 -268 -20 -289 -19 -296 4 -5 15 1 33 19 59 14 20 26
44 26 53 0 29 40 67 78 74 46 8 68 19 108 54 33 28 76 42 194 60 41 6 91 15
110 20 53 12 133 11 255 -5z m4080 -110 c28 -8 87 -18 133 -23 75 -9 86 -13
125 -48 24 -22 58 -47 76 -56 21 -12 39 -34 53 -65 11 -27 32 -58 44 -70 26
-24 32 -64 12 -81 -31 -25 -173 -32 -585 -29 -328 3 -425 6 -437 16 -33 28 -6
163 35 176 32 10 79 55 99 96 21 40 21 40 133 54 26 4 71 17 100 31 57 27 110
26 212 -1z m-2740 -14 c185 -11 209 -17 232 -66 12 -25 26 -38 51 -45 45 -12
82 -47 82 -77 0 -26 15 -60 37 -81 24 -24 15 -52 -22 -68 -39 -16 -128 -19
-171 -5 -16 6 -68 12 -115 14 -68 4 -93 10 -115 26 -41 30 -147 42 -374 45
-169 2 -199 4 -223 20 -58 39 -40 93 47 138 21 11 50 33 63 48 32 39 234 78
323 64 14 -3 97 -9 185 -13z"/>
<path d="M0 1854 c0 -67 0 -67 40 -61 64 8 102 42 98 86 -3 36 -3 36 -70 39
-68 3 -68 3 -68 -64z"/>
</g>
</g>
<text x="400" y="475" font-family="EB Garamond, Garamond, serif" font-style="italic" font-size="14" fill="#1a1a1a" text-anchor="middle">The four-word version of the trap the system is in.</text>
<text x="400" y="520" font-family="JetBrains Mono, monospace" font-size="10" fill="#1a1a1a" letter-spacing="1.5" text-anchor="middle">LYN ALDEN &#8212; BANKLESS PODCAST, MAY 13, 2024</text>
<text x="720" y="575" font-family="JetBrains Mono, monospace" font-size="9" fill="#1a1a1a" letter-spacing="1.5" text-anchor="end">bitcoinannotated.com</text>
</svg>
