<svg xmlns="http://www.w3.org/2000/svg" viewBox="0 0 800 600" width="800" height="600">
  <rect width="800" height="600" fill="#f8f4ed"/>
  <rect x="40" y="40" width="720" height="520" fill="none" stroke="#1a1a1a" stroke-width="1.5"/>
  <rect x="56" y="56" width="688" height="488" fill="none" stroke="#1a1a1a" stroke-width="0.5"/>
  <text x="80" y="100" font-family="JetBrains Mono, monospace" font-size="11" fill="#1a1a1a" letter-spacing="2.5">SPECIMEN — PHRASE</text>
  <line x1="80" y1="115" x2="220" y2="115" stroke="#d97706" stroke-width="1.5"/>
  <text x="720" y="100" font-family="JetBrains Mono, monospace" font-size="11" fill="#1a1a1a" letter-spacing="2" text-anchor="end">CAT. DECEMBER 2019</text>
  <text x="400" y="240" font-family="EB Garamond, Garamond, serif" font-style="italic" font-size="58" fill="#1a1a1a" text-anchor="middle" font-weight="500">down the bitcoin</text>
  <text x="400" y="305" font-family="EB Garamond, Garamond, serif" font-style="italic" font-size="58" fill="#d97706" text-anchor="middle" font-weight="500">rabbit hole.</text>
  <g fill="none" stroke="#1a1a1a" stroke-linejoin="round" stroke-linecap="round">
    <path d="M 431.8,342.9 Q 434.3,349.0 432.4,355.6 Q 430.5,362.2 422.5,366.0 Q 414.7,369.8 405.6,371.0 Q 396.5,372.2 387.7,369.6 Q 378.9,366.9 373.8,361.8 Q 368.6,356.6 367.9,349.6 Q 367.2,342.7 372.6,337.4 Q 377.9,332.2 386.1,328.8 Q 394.2,325.4 404.2,326.0 Q 414.3,326.6 421.8,331.7 Q 429.3,336.9 431.8,342.9 Z" stroke-width="2.76"/>
    <path d="M 426.3,346.5 Q 428.5,352.4 424.9,359.4 Q 421.3,366.4 412.8,369.3 Q 404.2,372.3 394.8,371.5 Q 385.3,370.8 381.4,366.1 Q 377.6,361.4 376.9,354.1 Q 376.3,346.7 382.3,341.4 Q 388.4,336.0 397.6,334.0 Q 406.8,332.0 415.5,336.3 Q 424.0,340.7 426.3,346.5 Z" stroke-width="2.39"/>
    <path d="M 415.5,355.5 Q 418.0,360.0 415.3,364.1 Q 412.6,368.2 407.0,370.3 Q 401.5,372.4 395.9,371.5 Q 390.2,370.7 386.8,367.1 Q 383.2,363.5 382.2,359.2 Q 381.0,354.8 385.1,351.0 Q 389.1,347.3 396.3,346.4 Q 403.7,345.6 408.4,348.4 Q 413.1,351.0 415.5,355.5 Z" stroke-width="2.02"/>
    <path d="M 409.0,362.3 Q 410.1,365.1 409.2,367.2 Q 408.4,369.3 405.1,370.6 Q 401.7,372.0 398.7,371.4 Q 395.8,370.8 393.0,368.6 Q 390.2,366.5 390.4,364.0 Q 390.8,361.5 393.4,359.9 Q 396.0,358.2 398.6,357.6 Q 401.3,356.9 404.6,358.2 Q 407.9,359.5 409.0,362.3 Z" stroke-width="1.66"/>
  </g>
  <path d="M 401.8,367.0 Q 402.7,367.9 401.9,368.8 Q 401.2,369.6 400.6,369.8 Q 399.8,369.9 398.5,369.6 Q 397.3,369.3 397.5,367.9 Q 397.8,366.4 398.4,365.7 Q 399.1,365.1 400.0,365.7 Q 401.0,366.2 401.8,367.0 Z" fill="#1a1a1a" stroke="none"/>
  <text x="400" y="395" font-family="EB Garamond, Garamond, serif" font-style="italic" font-size="14" fill="#1a1a1a" text-anchor="middle">“Begin at the beginning, and go on till you come</text>
  <text x="400" y="415" font-family="EB Garamond, Garamond, serif" font-style="italic" font-size="14" fill="#1a1a1a" text-anchor="middle">to the end: then stop.” — Lewis Carroll</text>
  <line x1="280" y1="450" x2="520" y2="450" stroke="#1a1a1a" stroke-width="0.5"/>
  <text x="400" y="490" font-family="JetBrains Mono, monospace" font-size="10" fill="#1a1a1a" letter-spacing="1.5" text-anchor="middle">CRYSTALLIZED: GIGI, 21 LESSONS, DECEMBER 24, 2019</text>
  <text x="400" y="510" font-family="JetBrains Mono, monospace" font-size="10" fill="#1a1a1a" letter-spacing="1.5" text-anchor="middle">USAGE: DURATION OF CONVICTION, NOT THE OUTCOME</text>
  <text x="720" y="555" font-family="JetBrains Mono, monospace" font-size="9" fill="#1a1a1a" letter-spacing="1.5" text-anchor="end">bitcoinannotated.com</text>
</svg>
