<svg xmlns="http://www.w3.org/2000/svg" viewBox="0 0 800 600" width="800" height="600">
  <defs>
    <clipPath id="stackclip" clipPathUnits="userSpaceOnUse">
      <g transform="translate(550,210) scale(0.21)">
        <g transform="translate(0,895) scale(0.1,-0.1)" fill="#000">
<path d="M3241 8449 c-90 -11 -139 -28 -251 -89 -47 -25 -106 -54 -131 -63
-44 -17 -143 -84 -182 -124 -68 -69 -138 -155 -157 -193 -13 -25 -33 -58 -45
-75 -95 -131 -140 -378 -96 -533 65 -229 177 -378 379 -506 54 -34 53 -55 0
-98 -178 -140 -263 -229 -310 -323 -13 -27 -48 -92 -77 -144 -81 -143 -85
-230 -21 -436 11 -33 24 -89 29 -123 6 -35 18 -76 28 -92 63 -98 94 -140 112
-150 41 -21 25 -51 -77 -146 -93 -87 -100 -97 -168 -230 -45 -88 -76 -163 -85
-204 -27 -132 -7 -404 40 -544 35 -102 33 -115 -32 -147 -60 -31 -171 -132
-221 -203 -24 -34 -66 -111 -93 -171 -65 -144 -68 -154 -94 -265 -38 -164 -12
-299 79 -419 41 -53 36 -67 -39 -127 -27 -21 -62 -56 -76 -77 -15 -21 -39 -47
-54 -58 -15 -11 -33 -36 -39 -57 -7 -20 -23 -56 -36 -79 -35 -60 -96 -288 -85
-316 5 -12 12 -51 16 -87 4 -36 17 -86 30 -112 34 -69 93 -158 105 -158 5 0
14 -9 20 -20 15 -28 -11 -74 -52 -90 -18 -8 -46 -22 -61 -33 -35 -24 -66 -14
-149 44 -32 22 -79 47 -105 56 -27 9 -66 28 -87 42 -38 25 -45 26 -185 26
-252 0 -401 -35 -515 -121 -25 -18 -67 -50 -93 -70 -108 -81 -199 -179 -213
-231 -7 -26 -23 -66 -35 -88 -52 -93 -105 -285 -105 -382 0 -54 61 -217 94
-252 13 -14 34 -48 46 -76 41 -97 131 -168 339 -268 167 -80 311 -127 387
-127 62 0 245 34 321 61 53 18 87 43 219 162 42 37 71 57 80 53 9 -3 20 -6 25
-6 5 0 27 -16 49 -36 49 -44 191 -118 290 -150 169 -55 429 -56 600 -4 114 35
148 57 257 167 96 98 113 99 262 22 41 -22 83 -39 93 -39 10 0 36 -9 56 -19
21 -11 77 -26 125 -34 48 -8 102 -25 121 -36 38 -24 28 -25 316 24 47 8 112
19 146 24 61 9 167 65 225 119 39 35 68 26 106 -32 53 -81 84 -107 188 -157
150 -72 203 -86 367 -100 177 -15 326 2 440 52 36 16 70 29 74 29 17 0 174 99
236 148 99 79 163 189 204 347 39 151 38 396 -1 505 -14 41 -35 86 -44 100
-10 14 -22 36 -26 50 -23 76 -165 242 -241 280 -16 8 -49 28 -74 45 -25 16
-79 47 -120 68 -77 39 -108 44 -365 61 -16 2 -38 3 -47 4 -38 4 -49 43 -34
118 39 189 36 397 -8 482 -7 15 -26 61 -40 102 -15 41 -39 92 -53 113 -34 49
-34 91 0 122 14 14 52 73 83 132 56 103 63 127 105 318 11 55 11 280 -1 332
-6 24 -35 87 -64 141 -73 132 -76 143 -39 195 17 23 38 58 48 77 10 19 52 75
94 125 92 108 149 207 161 278 5 28 18 79 30 111 32 88 27 370 -7 413 -12 15
-32 48 -43 72 -11 24 -38 63 -60 87 -22 24 -40 48 -40 54 0 5 -19 22 -42 37
-24 15 -61 42 -82 60 -22 18 -45 33 -52 33 -8 0 -28 13 -46 29 -21 18 -77 44
-158 71 -113 38 -134 42 -220 42 -111 -1 -231 -22 -289 -51 -48 -25 -64 -26
-82 -5 -11 13 -10 26 9 77 12 34 22 79 22 99 0 20 7 65 16 100 13 50 15 91 11
198 -6 150 -22 214 -67 275 -16 22 -43 68 -61 101 -38 76 -118 156 -224 226
-44 29 -81 60 -83 70 -2 11 16 26 57 49 80 42 351 307 351 342 0 6 11 24 24
41 50 66 85 151 101 242 9 50 20 106 25 125 15 52 11 208 -6 254 -9 22 -23 61
-32 87 -8 26 -45 92 -81 145 -72 106 -131 153 -288 228 -161 76 -233 95 -361
94 -64 -1 -151 -5 -191 -10z m109 -1756 c131 -37 156 -47 180 -68 14 -13 41
-30 60 -38 47 -20 161 -135 187 -188 55 -111 67 -153 69 -239 3 -138 -41 -380
-81 -445 -7 -11 -20 -44 -30 -73 -36 -111 -90 -138 -168 -83 -71 50 -364 77
-503 47 -317 -68 -336 -68 -402 12 -53 63 -62 83 -62 134 0 24 -12 75 -26 113
-33 92 -46 286 -21 331 8 16 32 60 52 98 104 198 344 379 542 410 94 14 117
13 203 -11z m1189 -1214 c47 -20 104 -47 126 -58 21 -12 45 -21 53 -21 25 0
133 -124 168 -192 27 -54 36 -88 45 -167 l12 -99 -42 -89 c-51 -105 -64 -131
-79 -158 -6 -11 -20 -40 -32 -65 -54 -117 -110 -196 -152 -212 -26 -11 -97 14
-155 54 -72 49 -200 66 -352 46 -16 -2 -30 5 -44 24 l-20 27 38 94 37 94 -5
129 c-3 71 -10 150 -17 175 -11 47 -90 192 -132 244 -58 70 -58 118 -1 130 15
3 47 15 70 25 62 28 212 61 247 55 17 -4 42 -2 56 4 35 14 80 4 179 -40z
m-339 -1201 c68 3 169 -21 235 -56 89 -48 134 -103 195 -241 l54 -123 -3 -117
c-3 -159 -53 -344 -115 -428 -32 -44 -55 -53 -76 -29 -6 8 -35 22 -63 31 -29
9 -84 30 -123 45 -145 59 -275 75 -426 52 -139 -20 -142 -19 -133 92 6 81 0
130 -28 241 -49 194 -52 212 -33 271 13 43 25 60 54 78 20 13 48 36 62 51 65
70 241 149 305 137 22 -4 65 -6 95 -4z m-1071 -129 c80 -27 168 -76 219 -123
42 -38 123 -222 132 -301 5 -38 16 -119 25 -179 l18 -108 -27 -66 c-36 -88
-45 -98 -129 -162 -64 -49 -76 -64 -112 -138 -45 -94 -73 -113 -103 -71 -27
40 -160 161 -215 196 -137 87 -168 97 -342 106 -188 10 -267 1 -402 -46 -105
-36 -111 -35 -156 32 -35 51 -47 183 -28 297 17 102 115 291 189 367 52 53
186 147 210 147 5 0 36 12 67 26 101 44 155 52 370 51 192 0 203 -1 284 -28z
m961 -976 c30 -8 84 -30 119 -49 35 -19 71 -34 79 -34 60 0 242 -180 260 -259
5 -20 17 -67 27 -106 24 -88 29 -207 17 -365 -11 -140 -19 -157 -96 -205 -27
-16 -72 -51 -101 -77 -64 -59 -88 -61 -146 -10 -89 77 -194 139 -265 156 -160
37 -303 36 -455 -4 -126 -34 -201 -31 -213 8 -3 9 -2 62 3 117 5 60 4 146 -2
217 l-10 118 51 102 c28 57 57 120 66 141 42 103 233 226 386 247 41 6 95 15
120 19 51 9 82 5 160 -16z m-185 -1194 c33 -10 80 -24 104 -30 60 -15 144 -96
200 -194 54 -95 71 -157 71 -261 0 -186 -52 -306 -188 -436 -137 -129 -146
-135 -253 -157 -174 -36 -263 -37 -397 -6 -152 35 -232 61 -310 98 l-64 30 5
41 c3 23 12 66 21 96 49 165 37 366 -29 484 -53 96 -46 132 43 193 71 49 65
45 152 87 76 35 207 65 299 67 25 1 57 5 71 9 39 14 209 1 275 -21z m-1419
-69 c60 -30 129 -73 155 -96 26 -23 65 -52 88 -65 29 -16 47 -36 62 -68 11
-25 25 -53 30 -61 27 -43 80 -167 81 -189 3 -88 -15 -160 -69 -276 -51 -109
-64 -128 -142 -206 -135 -135 -229 -175 -426 -178 -142 -3 -345 53 -429 117
-19 15 -47 35 -61 45 -30 21 -33 63 -8 110 39 74 55 408 24 492 -11 28 -31 83
-47 123 -33 89 -28 105 56 176 117 98 243 136 442 133 l136 -2 108 -55z"/>
        </g>
      </g>
    </clipPath>
  </defs>
  <rect width="800" height="600" fill="#f8f4ed"/>
  <rect x="40" y="40" width="720" height="520" fill="none" stroke="#1a1a1a" stroke-width="1.5"/>
  <rect x="56" y="56" width="688" height="488" fill="none" stroke="#1a1a1a" stroke-width="0.5"/>
  <text x="80" y="100" font-family="JetBrains Mono, monospace" font-size="11" fill="#1a1a1a" letter-spacing="2.5">SPECIMEN &#8212; PHRASE</text>
  <line x1="80" y1="115" x2="220" y2="115" stroke="#d97706" stroke-width="1.5"/>
  <text x="720" y="100" font-family="JetBrains Mono, monospace" font-size="11" fill="#1a1a1a" letter-spacing="2" text-anchor="end">CAT. JUNE 2019</text>
  <text x="340" y="290" font-family="EB Garamond, Garamond, serif" font-style="italic" font-size="60" fill="#1a1a1a" text-anchor="middle">stay humble,</text>
  <text x="340" y="360" font-family="EB Garamond, Garamond, serif" font-style="italic" font-size="60" fill="#d97706" text-anchor="middle">stack sats.</text>
  <g transform="translate(550,210) scale(0.21)">
    <g transform="translate(0,895) scale(0.1,-0.1)" fill="#1a1a1a">
<path d="M3241 8449 c-90 -11 -139 -28 -251 -89 -47 -25 -106 -54 -131 -63
-44 -17 -143 -84 -182 -124 -68 -69 -138 -155 -157 -193 -13 -25 -33 -58 -45
-75 -95 -131 -140 -378 -96 -533 65 -229 177 -378 379 -506 54 -34 53 -55 0
-98 -178 -140 -263 -229 -310 -323 -13 -27 -48 -92 -77 -144 -81 -143 -85
-230 -21 -436 11 -33 24 -89 29 -123 6 -35 18 -76 28 -92 63 -98 94 -140 112
-150 41 -21 25 -51 -77 -146 -93 -87 -100 -97 -168 -230 -45 -88 -76 -163 -85
-204 -27 -132 -7 -404 40 -544 35 -102 33 -115 -32 -147 -60 -31 -171 -132
-221 -203 -24 -34 -66 -111 -93 -171 -65 -144 -68 -154 -94 -265 -38 -164 -12
-299 79 -419 41 -53 36 -67 -39 -127 -27 -21 -62 -56 -76 -77 -15 -21 -39 -47
-54 -58 -15 -11 -33 -36 -39 -57 -7 -20 -23 -56 -36 -79 -35 -60 -96 -288 -85
-316 5 -12 12 -51 16 -87 4 -36 17 -86 30 -112 34 -69 93 -158 105 -158 5 0
14 -9 20 -20 15 -28 -11 -74 -52 -90 -18 -8 -46 -22 -61 -33 -35 -24 -66 -14
-149 44 -32 22 -79 47 -105 56 -27 9 -66 28 -87 42 -38 25 -45 26 -185 26
-252 0 -401 -35 -515 -121 -25 -18 -67 -50 -93 -70 -108 -81 -199 -179 -213
-231 -7 -26 -23 -66 -35 -88 -52 -93 -105 -285 -105 -382 0 -54 61 -217 94
-252 13 -14 34 -48 46 -76 41 -97 131 -168 339 -268 167 -80 311 -127 387
-127 62 0 245 34 321 61 53 18 87 43 219 162 42 37 71 57 80 53 9 -3 20 -6 25
-6 5 0 27 -16 49 -36 49 -44 191 -118 290 -150 169 -55 429 -56 600 -4 114 35
148 57 257 167 96 98 113 99 262 22 41 -22 83 -39 93 -39 10 0 36 -9 56 -19
21 -11 77 -26 125 -34 48 -8 102 -25 121 -36 38 -24 28 -25 316 24 47 8 112
19 146 24 61 9 167 65 225 119 39 35 68 26 106 -32 53 -81 84 -107 188 -157
150 -72 203 -86 367 -100 177 -15 326 2 440 52 36 16 70 29 74 29 17 0 174 99
236 148 99 79 163 189 204 347 39 151 38 396 -1 505 -14 41 -35 86 -44 100
-10 14 -22 36 -26 50 -23 76 -165 242 -241 280 -16 8 -49 28 -74 45 -25 16
-79 47 -120 68 -77 39 -108 44 -365 61 -16 2 -38 3 -47 4 -38 4 -49 43 -34
118 39 189 36 397 -8 482 -7 15 -26 61 -40 102 -15 41 -39 92 -53 113 -34 49
-34 91 0 122 14 14 52 73 83 132 56 103 63 127 105 318 11 55 11 280 -1 332
-6 24 -35 87 -64 141 -73 132 -76 143 -39 195 17 23 38 58 48 77 10 19 52 75
94 125 92 108 149 207 161 278 5 28 18 79 30 111 32 88 27 370 -7 413 -12 15
-32 48 -43 72 -11 24 -38 63 -60 87 -22 24 -40 48 -40 54 0 5 -19 22 -42 37
-24 15 -61 42 -82 60 -22 18 -45 33 -52 33 -8 0 -28 13 -46 29 -21 18 -77 44
-158 71 -113 38 -134 42 -220 42 -111 -1 -231 -22 -289 -51 -48 -25 -64 -26
-82 -5 -11 13 -10 26 9 77 12 34 22 79 22 99 0 20 7 65 16 100 13 50 15 91 11
198 -6 150 -22 214 -67 275 -16 22 -43 68 -61 101 -38 76 -118 156 -224 226
-44 29 -81 60 -83 70 -2 11 16 26 57 49 80 42 351 307 351 342 0 6 11 24 24
41 50 66 85 151 101 242 9 50 20 106 25 125 15 52 11 208 -6 254 -9 22 -23 61
-32 87 -8 26 -45 92 -81 145 -72 106 -131 153 -288 228 -161 76 -233 95 -361
94 -64 -1 -151 -5 -191 -10z m109 -1756 c131 -37 156 -47 180 -68 14 -13 41
-30 60 -38 47 -20 161 -135 187 -188 55 -111 67 -153 69 -239 3 -138 -41 -380
-81 -445 -7 -11 -20 -44 -30 -73 -36 -111 -90 -138 -168 -83 -71 50 -364 77
-503 47 -317 -68 -336 -68 -402 12 -53 63 -62 83 -62 134 0 24 -12 75 -26 113
-33 92 -46 286 -21 331 8 16 32 60 52 98 104 198 344 379 542 410 94 14 117
13 203 -11z m1189 -1214 c47 -20 104 -47 126 -58 21 -12 45 -21 53 -21 25 0
133 -124 168 -192 27 -54 36 -88 45 -167 l12 -99 -42 -89 c-51 -105 -64 -131
-79 -158 -6 -11 -20 -40 -32 -65 -54 -117 -110 -196 -152 -212 -26 -11 -97 14
-155 54 -72 49 -200 66 -352 46 -16 -2 -30 5 -44 24 l-20 27 38 94 37 94 -5
129 c-3 71 -10 150 -17 175 -11 47 -90 192 -132 244 -58 70 -58 118 -1 130 15
3 47 15 70 25 62 28 212 61 247 55 17 -4 42 -2 56 4 35 14 80 4 179 -40z
m-339 -1201 c68 3 169 -21 235 -56 89 -48 134 -103 195 -241 l54 -123 -3 -117
c-3 -159 -53 -344 -115 -428 -32 -44 -55 -53 -76 -29 -6 8 -35 22 -63 31 -29
9 -84 30 -123 45 -145 59 -275 75 -426 52 -139 -20 -142 -19 -133 92 6 81 0
130 -28 241 -49 194 -52 212 -33 271 13 43 25 60 54 78 20 13 48 36 62 51 65
70 241 149 305 137 22 -4 65 -6 95 -4z m-1071 -129 c80 -27 168 -76 219 -123
42 -38 123 -222 132 -301 5 -38 16 -119 25 -179 l18 -108 -27 -66 c-36 -88
-45 -98 -129 -162 -64 -49 -76 -64 -112 -138 -45 -94 -73 -113 -103 -71 -27
40 -160 161 -215 196 -137 87 -168 97 -342 106 -188 10 -267 1 -402 -46 -105
-36 -111 -35 -156 32 -35 51 -47 183 -28 297 17 102 115 291 189 367 52 53
186 147 210 147 5 0 36 12 67 26 101 44 155 52 370 51 192 0 203 -1 284 -28z
m961 -976 c30 -8 84 -30 119 -49 35 -19 71 -34 79 -34 60 0 242 -180 260 -259
5 -20 17 -67 27 -106 24 -88 29 -207 17 -365 -11 -140 -19 -157 -96 -205 -27
-16 -72 -51 -101 -77 -64 -59 -88 -61 -146 -10 -89 77 -194 139 -265 156 -160
37 -303 36 -455 -4 -126 -34 -201 -31 -213 8 -3 9 -2 62 3 117 5 60 4 146 -2
217 l-10 118 51 102 c28 57 57 120 66 141 42 103 233 226 386 247 41 6 95 15
120 19 51 9 82 5 160 -16z m-185 -1194 c33 -10 80 -24 104 -30 60 -15 144 -96
200 -194 54 -95 71 -157 71 -261 0 -186 -52 -306 -188 -436 -137 -129 -146
-135 -253 -157 -174 -36 -263 -37 -397 -6 -152 35 -232 61 -310 98 l-64 30 5
41 c3 23 12 66 21 96 49 165 37 366 -29 484 -53 96 -46 132 43 193 71 49 65
45 152 87 76 35 207 65 299 67 25 1 57 5 71 9 39 14 209 1 275 -21z m-1419
-69 c60 -30 129 -73 155 -96 26 -23 65 -52 88 -65 29 -16 47 -36 62 -68 11
-25 25 -53 30 -61 27 -43 80 -167 81 -189 3 -88 -15 -160 -69 -276 -51 -109
-64 -128 -142 -206 -135 -135 -229 -175 -426 -178 -142 -3 -345 53 -429 117
-19 15 -47 35 -61 45 -30 21 -33 63 -8 110 39 74 55 408 24 492 -11 28 -31 83
-47 123 -33 89 -28 105 56 176 117 98 243 136 442 133 l136 -2 108 -55z"/>
    </g>
  </g>
  <circle cx="618" cy="220" r="13" fill="#d97706" clip-path="url(#stackclip)"/>
  <line x1="280" y1="420" x2="520" y2="420" stroke="#1a1a1a" stroke-width="0.5"/>
  <text x="400" y="455" font-family="JetBrains Mono, monospace" font-size="10" fill="#1a1a1a" letter-spacing="1.5" text-anchor="middle">POPULARIZED BY MATT ODELL</text>
  <text x="400" y="475" font-family="JetBrains Mono, monospace" font-size="10" fill="#1a1a1a" letter-spacing="1.5" text-anchor="middle">EARLIEST KNOWN APPEARANCE ~JUNE 2019</text>
  <text x="720" y="530" font-family="JetBrains Mono, monospace" font-size="9" fill="#1a1a1a" letter-spacing="1.5" text-anchor="end">bitcoinannotated.com</text>
</svg>
