<svg xmlns="http://www.w3.org/2000/svg" viewBox="0 0 800 600" width="800" height="600">
<rect width="800" height="600" fill="#f8f4ed"/>
<rect x="40" y="40" width="720" height="520" fill="none" stroke="#1a1a1a" stroke-width="1.5"/>
<rect x="56" y="56" width="688" height="488" fill="none" stroke="#1a1a1a" stroke-width="0.5"/>
<text x="80" y="100" font-family="JetBrains Mono, monospace" font-size="11" fill="#1a1a1a" letter-spacing="2.5">SPECIMEN &#8212; PHRASE</text>
<line x1="80" y1="115" x2="220" y2="115" stroke="#d97706" stroke-width="1.5"/>
<text x="720" y="100" font-family="JetBrains Mono, monospace" font-size="11" fill="#1a1a1a" letter-spacing="2" text-anchor="end">CAT. MARCH 2023</text>
<text x="400" y="245" font-family="EB Garamond, Garamond, serif" font-style="italic" font-size="80" fill="#1a1a1a" text-anchor="middle" font-weight="500">Study <tspan fill="#d97706">bitcoin</tspan>.</text>
<g transform="translate(335.00,320.00) scale(0.5417)">
<path d="M 164.0 120.0 Q 178.0 122.0 192.0 120.0" fill="none" stroke="#1a1a1a" stroke-width="5" stroke-linecap="round"/><path d="M 158.1 142.0 Q 169.2 150.7 182.4 156.0" fill="none" stroke="#1a1a1a" stroke-width="5" stroke-linecap="round"/><path d="M 142.0 158.1 Q 147.3 171.2 156.0 182.4" fill="none" stroke="#1a1a1a" stroke-width="5" stroke-linecap="round"/><path d="M 120.0 164.0 Q 118.0 178.0 120.0 192.0" fill="none" stroke="#1a1a1a" stroke-width="5" stroke-linecap="round"/><path d="M 98.0 158.1 Q 89.3 169.2 84.0 182.4" fill="none" stroke="#1a1a1a" stroke-width="5" stroke-linecap="round"/><path d="M 81.9 142.0 Q 68.8 147.3 57.6 156.0" fill="none" stroke="#1a1a1a" stroke-width="5" stroke-linecap="round"/><path d="M 76.0 120.0 Q 62.0 118.0 48.0 120.0" fill="none" stroke="#1a1a1a" stroke-width="5" stroke-linecap="round"/><path d="M 81.9 98.0 Q 70.8 89.3 57.6 84.0" fill="none" stroke="#1a1a1a" stroke-width="5" stroke-linecap="round"/><path d="M 98.0 81.9 Q 92.7 68.8 84.0 57.6" fill="none" stroke="#1a1a1a" stroke-width="5" stroke-linecap="round"/><path d="M 120.0 76.0 Q 122.0 62.0 120.0 48.0" fill="none" stroke="#1a1a1a" stroke-width="5" stroke-linecap="round"/><path d="M 142.0 81.9 Q 150.7 70.8 156.0 57.6" fill="none" stroke="#1a1a1a" stroke-width="5" stroke-linecap="round"/><path d="M 158.1 98.0 Q 171.2 92.7 182.4 84.0" fill="none" stroke="#1a1a1a" stroke-width="5" stroke-linecap="round"/><path d="M 154.8 112.9 Q 155.5 120.0 154.7 127.0 Q 153.9 134.0 150.6 140.7 Q 147.4 147.4 141.2 151.9 Q 135.0 156.3 127.5 157.2 Q 120.0 158.1 112.9 156.3 Q 105.7 154.4 99.4 150.6 Q 93.1 146.9 88.4 141.0 Q 83.6 135.1 82.3 127.5 Q 80.9 120.0 83.3 112.9 Q 85.8 105.8 90.4 100.4 Q 95.0 95.0 100.5 90.7 Q 106.1 86.4 113.0 83.6 Q 120.0 80.8 127.8 81.4 Q 135.7 82.1 141.9 87.0 Q 148.2 91.8 151.2 98.8 Q 154.1 105.9 154.8 112.9 Z" fill="#d97706"/>
</g>
<text x="400" y="490" font-family="EB Garamond, Garamond, serif" font-style="italic" font-size="14" fill="#1a1a1a" text-anchor="middle">A community instruction deployed casually for years &#8212;</text>
<text x="400" y="510" font-family="EB Garamond, Garamond, serif" font-style="italic" font-size="14" fill="#1a1a1a" text-anchor="middle">projected on the European Central Bank, Frankfurt, March 30, 2023.</text>
<text x="400" y="535" font-family="JetBrains Mono, monospace" font-size="10" fill="#1a1a1a" letter-spacing="1.5" text-anchor="middle">COMMUNITY INSTRUCTION &#8212; EARLIEST KNOWN APPEARANCE UNSETTLED</text>
<text x="720" y="575" font-family="JetBrains Mono, monospace" font-size="9" fill="#1a1a1a" letter-spacing="1.5" text-anchor="end">bitcoinannotated.com</text>
</svg>
